SplineFontDB: 3.2
FontName: CMUTypewriterSlashed-Bold
FullName: CMU Typewriter Slashed Bold
FamilyName: CMU Typewriter Slashed
Weight: Bold
Copyright: Converted by Andrey V. Panov from TeX fonts
Version: 0.7.0
ItalicAngle: 0
UnderlinePosition: -150
UnderlineWidth: 50
Ascent: 775
Descent: 225
InvalidEm: 0
sfntRevision: 0x0000b333
LayerCount: 2
Layer: 0 1 "Back" 1
Layer: 1 1 "Fore" 0
XUID: [1021 306 -1528867943 3039302]
StyleMap: 0x0020
FSType: 0
OS2Version: 1
OS2_WeightWidthSlopeOnly: 0
OS2_UseTypoMetrics: 0
CreationTime: 1245316127
ModificationTime: 1781540292
PfmFamily: 17
TTFWeight: 700
TTFWidth: 5
LineGap: 200
VLineGap: 0
Panose: 2 0 8 9 0 0 0 0 0 0
OS2TypoAscent: 775
OS2TypoAOffset: 0
OS2TypoDescent: -225
OS2TypoDOffset: 0
OS2TypoLinegap: 200
OS2WinAscent: 866
OS2WinAOffset: 0
OS2WinDescent: 230
OS2WinDOffset: 0
HheadAscent: 866
HheadAOffset: 0
HheadDescent: -230
HheadDOffset: 0
OS2SubXSize: 650
OS2SubYSize: 700
OS2SubXOff: 0
OS2SubYOff: 140
OS2SupXSize: 650
OS2SupYSize: 700
OS2SupXOff: 0
OS2SupYOff: 480
OS2StrikeYSize: 49
OS2StrikeYPos: 258
OS2Vendor: 'PfEd'
OS2CodePages: 0000011f.d7d70000
OS2UnicodeRanges: e10002ff.5201e9eb.00020004.00000000
Lookup: 1 0 0 "'case' Case-Sensitive Forms lookup 0" { "'case' Case-Sensitive Forms lookup 0 subtable"  } ['case' ('cyrl' <'dflt' > 'grek' <'dflt' > 'latn' <'dflt' > ) ]
Lookup: 3 0 0 "'salt' Stylistic Alternatives in Greek lookup 1" { "'salt' Stylistic Alternatives in Greek lookup 1 subtable"  } ['salt' ('grek' <'dflt' > ) ]
Lookup: 1 0 0 "'locl' Localized Forms in Greek lookup 2" { "'locl' Localized Forms in Greek lookup 2 subtable"  } ['locl' ('grek' <'dflt' > ) ]
Lookup: 4 0 0 "'dlig' Discretionary Ligatures in Latin lookup 3" { "'dlig' Discretionary Ligatures in Latin lookup 3 subtable"  } ['dlig' ('latn' <'NLD ' > ) ]
Lookup: 4 0 0 "'dlig' Discretionary Ligatures in Latin lookup 4" { "'dlig' Discretionary Ligatures in Latin lookup 4 subtable"  } ['dlig' ('latn' <'NLD ' 'VIT ' 'dflt' > ) ]

StartChar: .notdef
Encoding: 0 0 0
Width: 525
GlyphClass: 1
Flags: W
LayerCount: 2
Fore
SplineSet
10 10 m 1,0,-1
 10 765 l 1,1,-1
 515 765 l 1,2,-1
 515 10 l 1,3,-1
 10 10 l 1,0,-1
70 112 m 1,4,-1
 232 388 l 1,5,-1
 70 663 l 1,6,-1
 70 112 l 1,4,-1
105 70 m 1,7,-1
 420 70 l 1,8,-1
 262 337 l 1,9,-1
 105 70 l 1,7,-1
105 705 m 1,10,-1
 262 438 l 1,11,-1
 420 705 l 1,12,-1
 105 705 l 1,10,-1
292 388 m 1,13,-1
 455 112 l 1,14,-1
 455 663 l 1,15,-1
 292 388 l 1,13,-1
EndSplineSet
EndChar

StartChar: exclam
Encoding: 33 33 4
Width: 525
GlyphClass: 2
Flags: W
LayerCount: 2
Fore
SplineSet
187 75 m 128,-1,1
 187 107 187 107 209.5 128 c 128,-1,2
 232 149 232 149 262 149 c 128,-1,3
 292 149 292 149 314 128 c 128,-1,4
 336 107 336 107 336 75 c 0,5,6
 336 45 336 45 315 22.5 c 128,-1,7
 294 0 294 0 262 0 c 0,8,9
 232 0 232 0 209.5 21.5 c 128,-1,0
 187 43 187 43 187 75 c 128,-1,1
187 545 m 0,10,11
 187 578 187 578 210 598.5 c 128,-1,12
 233 619 233 619 262 619 c 0,13,14
 292 619 292 619 314 598.5 c 128,-1,15
 336 578 336 578 336 545 c 2,16,-1
 336 526 l 1,17,-1
 322 257 l 2,18,19
 320 222 320 222 284 222 c 0,20,21
 282 222 282 222 279 222.5 c 128,-1,22
 276 223 276 223 275 223 c 2,23,-1
 247 223 l 2,24,25
 246 223 246 223 243.5 222.5 c 128,-1,26
 241 222 241 222 240 222 c 0,27,28
 226 222 226 222 217.5 225.5 c 128,-1,29
 209 229 209 229 205.5 238.5 c 128,-1,30
 202 248 202 248 202 251 c 128,-1,31
 202 254 202 254 201 267 c 2,32,-1
 188 527 l 2,33,34
 188 530 188 530 187.5 536 c 128,-1,35
 187 542 187 542 187 545 c 0,10,11
EndSplineSet
EndChar

StartChar: quotedbl
Encoding: 34 34 5
Width: 525
GlyphClass: 2
Flags: W
LayerCount: 2
Fore
SplineSet
132 547.5 m 128,-1,1
 132 558 132 558 132 564 c 0,2,3
 132 591 132 591 146 601 c 128,-1,4
 160 611 160 611 174 611 c 0,5,6
 189 611 189 611 202.5 600.5 c 128,-1,7
 216 590 216 590 216 565 c 0,8,9
 216 559 216 559 216 548 c 128,-1,10
 216 537 216 537 215.5 521 c 128,-1,11
 215 505 215 505 214 464.5 c 128,-1,12
 213 424 213 424 212 373 c 0,13,14
 210 336 210 336 175 336 c 0,15,16
 166 336 166 336 159.5 337.5 c 128,-1,17
 153 339 153 339 149 342.5 c 128,-1,18
 145 346 145 346 142 348.5 c 128,-1,19
 139 351 139 351 138 357 c 128,-1,20
 137 363 137 363 136.5 365.5 c 128,-1,21
 136 368 136 368 136 375 c 128,-1,22
 136 382 136 382 136 384 c 0,23,24
 135 432 135 432 134 469.5 c 128,-1,25
 133 507 133 507 132.5 522 c 128,-1,0
 132 537 132 537 132 547.5 c 128,-1,1
308 565 m 0,26,27
 308 588 308 588 321 599.5 c 128,-1,28
 334 611 334 611 350 611 c 0,29,30
 365 611 365 611 378.5 600.5 c 128,-1,31
 392 590 392 590 392 565 c 0,32,33
 392 559 392 559 392 548 c 128,-1,34
 392 537 392 537 391.5 521 c 128,-1,35
 391 505 391 505 390 464.5 c 128,-1,36
 389 424 389 424 388 373 c 0,37,38
 388 357 388 357 381 348 c 128,-1,39
 374 339 374 339 367 337.5 c 128,-1,40
 360 336 360 336 348 336 c 2,41,-1
 346 336 l 2,42,43
 323 336 323 336 317 354 c 0,44,45
 308 379 308 379 308 549 c 0,46,47
 308 554 308 554 308 565 c 0,26,27
EndSplineSet
EndChar

StartChar: numbersign
Encoding: 35 35 6
Width: 525
GlyphClass: 2
Flags: W
LayerCount: 2
Fore
SplineSet
35 194 m 0,0,1
 35 217 35 217 55 227 c 0,2,3
 64 232 64 232 85 232 c 2,4,-1
 129 232 l 1,5,-1
 147 379 l 1,6,-1
 79 379 l 2,7,8
 61 379 61 379 50 387.5 c 128,-1,9
 39 396 39 396 37 403 c 128,-1,10
 35 410 35 410 35 416 c 0,11,12
 35 423 35 423 37.5 431 c 128,-1,13
 40 439 40 439 51.5 447 c 128,-1,14
 63 455 63 455 82 455 c 2,15,-1
 157 455 l 1,16,17
 157 460 157 460 158 467.5 c 128,-1,18
 159 475 159 475 163 504.5 c 128,-1,19
 167 534 167 534 172 571 c 0,20,21
 172 575 172 575 173.5 582.5 c 128,-1,22
 175 590 175 590 184.5 600 c 128,-1,23
 194 610 194 610 210 610 c 0,24,25
 227 610 227 610 237 598.5 c 128,-1,26
 247 587 247 587 247 574 c 0,27,28
 247 560 247 560 233 455 c 1,29,-1
 329 455 l 1,30,31
 329 460 329 460 330 467.5 c 128,-1,32
 331 475 331 475 335 504.5 c 128,-1,33
 339 534 339 534 344 571 c 0,34,35
 344 575 344 575 345.5 582.5 c 128,-1,36
 347 590 347 590 356.5 600 c 128,-1,37
 366 610 366 610 382 610 c 0,38,39
 396 610 396 610 407.5 600 c 128,-1,40
 419 590 419 590 419 575 c 0,41,42
 419 561 419 561 405 455 c 1,43,-1
 440 455 l 2,44,45
 461 455 461 455 470 450 c 0,46,47
 489 439 489 439 489 417 c 0,48,49
 489 394 489 394 469 384 c 0,50,51
 460 379 460 379 439 379 c 2,52,-1
 395 379 l 1,53,-1
 377 232 l 1,54,-1
 445 232 l 2,55,56
 463 232 463 232 474 223.5 c 128,-1,57
 485 215 485 215 487 208 c 128,-1,58
 489 201 489 201 489 195 c 0,59,60
 489 188 489 188 486.5 180.5 c 128,-1,61
 484 173 484 173 473 164.5 c 128,-1,62
 462 156 462 156 443 156 c 2,63,-1
 367 156 l 1,64,65
 365 135 365 135 353 40 c 0,66,67
 347 0 347 0 315 0 c 0,68,69
 299 0 299 0 288.5 11 c 128,-1,70
 278 22 278 22 278 36 c 0,71,72
 278 52 278 52 292 156 c 1,73,-1
 195 156 l 1,74,75
 193 135 193 135 181 40 c 0,76,77
 175 0 175 0 143 0 c 0,78,79
 127 0 127 0 116.5 11 c 128,-1,80
 106 22 106 22 106 36 c 0,81,82
 106 52 106 52 120 156 c 1,83,-1
 85 156 l 2,84,85
 64 156 64 156 55 161 c 0,86,87
 35 173 35 173 35 194 c 0,0,1
205 232 m 1,88,-1
 301 232 l 1,89,-1
 319 379 l 1,90,-1
 223 379 l 1,91,-1
 205 232 l 1,88,-1
EndSplineSet
EndChar

StartChar: dollar
Encoding: 36 36 7
Width: 525
GlyphClass: 2
Flags: W
LayerCount: 2
Fore
SplineSet
58 172 m 0,0,1
 58 196 58 196 71.5 206.5 c 128,-1,2
 85 217 85 217 100 217 c 0,3,4
 134 217 134 217 141 184 c 0,5,6
 141 182 141 182 142 168 c 128,-1,7
 143 154 143 154 146 143.5 c 128,-1,8
 149 133 149 133 156.5 118.5 c 128,-1,9
 164 104 164 104 181.5 92.5 c 128,-1,10
 199 81 199 81 224 75 c 1,11,-1
 224 283 l 1,12,13
 143 298 143 298 100.5 344 c 128,-1,14
 58 390 58 390 58 448 c 0,15,16
 58 463 58 463 61 478.5 c 128,-1,17
 64 494 64 494 74 516.5 c 128,-1,18
 84 539 84 539 101 557.5 c 128,-1,19
 118 576 118 576 150 591.5 c 128,-1,20
 182 607 182 607 224 613 c 1,21,-1
 224 652 l 2,22,23
 224 694 224 694 260 694 c 0,24,25
 275 694 275 694 284 690 c 128,-1,26
 293 686 293 686 296 677.5 c 128,-1,27
 299 669 299 669 299.5 665 c 128,-1,28
 300 661 300 661 300 651 c 2,29,-1
 300 613 l 1,30,31
 351 607 351 607 387 587 c 128,-1,32
 423 567 423 567 438.5 540.5 c 128,-1,33
 454 514 454 514 460 493 c 128,-1,34
 466 472 466 472 466 452 c 0,35,36
 466 430 466 430 453.5 418 c 128,-1,37
 441 406 441 406 424 406 c 0,38,39
 394 406 394 406 385 434 c 0,40,41
 384 436 384 436 382 454.5 c 128,-1,42
 380 473 380 473 375.5 486 c 128,-1,43
 371 499 371 499 351.5 514.5 c 128,-1,44
 332 530 332 530 300 536 c 1,45,-1
 300 353 l 1,46,47
 383 336 383 336 424.5 285.5 c 128,-1,48
 466 235 466 235 466 175 c 0,49,50
 466 102 466 102 419.5 54.5 c 128,-1,51
 373 7 373 7 300 -2 c 1,52,-1
 300 -40 l 2,53,54
 300 -52 300 -52 299 -59 c 128,-1,55
 298 -66 298 -66 289 -74.5 c 128,-1,56
 280 -83 280 -83 262 -83 c 128,-1,57
 244 -83 244 -83 234.5 -74 c 128,-1,58
 225 -65 225 -65 224.5 -59 c 128,-1,59
 224 -53 224 -53 224 -41 c 2,60,-1
 224 -2 l 1,61,62
 148 7 148 7 103 55 c 128,-1,63
 58 103 58 103 58 172 c 0,0,1
137 452 m 0,64,65
 137 425 137 425 159 402 c 128,-1,66
 181 379 181 379 224 368 c 1,67,-1
 224 537 l 1,68,69
 188 531 188 531 166.5 512.5 c 128,-1,70
 145 494 145 494 141 480 c 128,-1,71
 137 466 137 466 137 452 c 0,64,65
300 75 m 1,72,73
 337 82 337 82 358.5 103.5 c 128,-1,74
 380 125 380 125 383.5 140 c 128,-1,75
 387 155 387 155 387 171 c 0,76,77
 387 202 387 202 365 228.5 c 128,-1,78
 343 255 343 255 300 267 c 1,79,-1
 300 75 l 1,72,73
EndSplineSet
EndChar

StartChar: percent
Encoding: 37 37 8
Width: 525
GlyphClass: 2
Flags: W
LayerCount: 2
Fore
SplineSet
35 561 m 128,-1,1
 35 631 35 631 62 662.5 c 128,-1,2
 89 694 89 694 122 694 c 128,-1,3
 155 694 155 694 182.5 662.5 c 128,-1,4
 210 631 210 631 210 561 c 128,-1,5
 210 491 210 491 183 459.5 c 128,-1,6
 156 428 156 428 123 428 c 128,-1,7
 90 428 90 428 62.5 459.5 c 128,-1,0
 35 491 35 491 35 561 c 128,-1,1
81 -42 m 0,8,9
 81 -34 81 -34 87 -18 c 2,10,-1
 357 653 l 2,11,12
 373 694 373 694 402 694 c 0,13,14
 418 694 418 694 430.5 682.5 c 128,-1,15
 443 671 443 671 443 653 c 0,16,17
 443 643 443 643 437 629 c 2,18,-1
 166 -45 l 2,19,20
 151 -83 151 -83 122 -83 c 0,21,22
 107 -83 107 -83 94 -71.5 c 128,-1,23
 81 -60 81 -60 81 -42 c 0,8,9
103 563 m 0,24,25
 103 537 103 537 109 521 c 128,-1,26
 115 505 115 505 123 505 c 0,27,28
 132 505 132 505 137 521 c 128,-1,29
 142 537 142 537 142 559 c 0,30,31
 142 616 142 616 122 616 c 0,32,33
 103 616 103 616 103 563 c 0,24,25
315 50 m 128,-1,35
 315 120 315 120 342 151.5 c 128,-1,36
 369 183 369 183 402 183 c 128,-1,37
 435 183 435 183 462.5 151.5 c 128,-1,38
 490 120 490 120 490 50 c 128,-1,39
 490 -20 490 -20 462.5 -51.5 c 128,-1,40
 435 -83 435 -83 402 -83 c 128,-1,41
 369 -83 369 -83 342 -51.5 c 128,-1,34
 315 -20 315 -20 315 50 c 128,-1,35
382 52 m 0,42,43
 382 26 382 26 388 10 c 128,-1,44
 394 -6 394 -6 402 -6 c 0,45,46
 411 -6 411 -6 416.5 10.5 c 128,-1,47
 422 27 422 27 422 48 c 0,48,49
 422 105 422 105 402 105 c 128,-1,50
 382 105 382 105 382 52 c 0,42,43
EndSplineSet
EndChar

StartChar: ampersand
Encoding: 38 38 9
Width: 525
GlyphClass: 2
Flags: W
LayerCount: 2
Fore
SplineSet
27 145 m 0,0,1
 27 184 27 184 42 216 c 128,-1,2
 57 248 57 248 72 263.5 c 128,-1,3
 87 279 87 279 123 313 c 1,4,5
 97 388 97 388 97 465 c 0,6,7
 97 532 97 532 128 575.5 c 128,-1,8
 159 619 159 619 210 619 c 0,9,10
 262 619 262 619 286.5 574.5 c 128,-1,11
 311 530 311 530 311 475 c 0,12,13
 311 388 311 388 205 288 c 1,14,-1
 224 252 l 1,15,-1
 268 178 l 1,16,17
 282 206 282 206 345 373 c 1,18,19
 329 385 329 385 329 407 c 0,20,21
 329 444 329 444 367 444 c 2,22,-1
 453 444 l 2,23,24
 490 444 490 444 490 406 c 0,25,26
 491 369 491 369 453 369 c 2,27,-1
 415 369 l 1,28,29
 367 220 367 220 313 116 c 1,30,31
 357 68 357 68 389 68 c 0,32,33
 404 68 404 68 410.5 79 c 128,-1,34
 417 90 417 90 417.5 102.5 c 128,-1,35
 418 115 418 115 426.5 126 c 128,-1,36
 435 137 435 137 453 137 c 0,37,38
 486 137 486 137 486 103 c 0,39,40
 486 67 486 67 463 29.5 c 128,-1,41
 440 -8 440 -8 392 -8 c 0,42,43
 337 -8 337 -8 272 57 c 1,44,45
 218 -8 218 -8 149 -8 c 0,46,47
 90 -7 90 -7 58.5 39.5 c 128,-1,48
 27 86 27 86 27 145 c 0,0,1
111 147 m 0,49,50
 111 67 111 67 153 67 c 0,51,52
 188 67 188 67 228 114 c 1,53,-1
 228 115 l 1,54,55
 182 182 182 182 154 238 c 1,56,57
 152 236 152 236 144.5 228.5 c 128,-1,58
 137 221 137 221 135 218.5 c 128,-1,59
 133 216 133 216 127.5 209.5 c 128,-1,60
 122 203 122 203 120.5 198 c 128,-1,61
 119 193 119 193 116 185 c 128,-1,62
 113 177 113 177 112 167.5 c 128,-1,63
 111 158 111 158 111 147 c 0,49,50
164 467 m 0,64,65
 164 416 164 416 177 367 c 1,66,67
 243 429 243 429 243 475 c 0,68,69
 243 498 243 498 235 520.5 c 128,-1,70
 227 543 227 543 209 543 c 0,71,72
 192 543 192 543 178 524 c 128,-1,73
 164 505 164 505 164 467 c 0,64,65
EndSplineSet
EndChar

StartChar: quotesingle
Encoding: 39 39 10
Width: 525
GlyphClass: 2
Flags: W
LayerCount: 2
Fore
SplineSet
220 548.5 m 128,-1,1
 220 559 220 559 220 565 c 0,2,3
 220 589 220 589 234 600 c 128,-1,4
 248 611 248 611 262 611 c 0,5,6
 277 611 277 611 290.5 600.5 c 128,-1,7
 304 590 304 590 304 565 c 0,8,9
 304 559 304 559 304 548 c 128,-1,10
 304 537 304 537 303.5 521 c 128,-1,11
 303 505 303 505 302 464.5 c 128,-1,12
 301 424 301 424 300 373 c 0,13,14
 299 336 299 336 261 336 c 0,15,16
 255 336 255 336 250.5 337 c 128,-1,17
 246 338 246 338 242.5 339 c 128,-1,18
 239 340 239 340 236.5 342.5 c 128,-1,19
 234 345 234 345 232 346.5 c 128,-1,20
 230 348 230 348 228.5 352 c 128,-1,21
 227 356 227 356 226.5 357.5 c 128,-1,22
 226 359 226 359 225.5 364 c 128,-1,23
 225 369 225 369 224.5 370.5 c 128,-1,24
 224 372 224 372 224 377.5 c 128,-1,25
 224 383 224 383 224 384 c 0,26,27
 223 432 223 432 222 470 c 128,-1,28
 221 508 221 508 220.5 523 c 128,-1,0
 220 538 220 538 220 548.5 c 128,-1,1
EndSplineSet
EndChar

StartChar: parenleft
Encoding: 40 40 11
Width: 525
GlyphClass: 2
Flags: W
LayerCount: 2
Fore
SplineSet
166 306 m 128,-1,1
 166 422 166 422 219 522.5 c 128,-1,2
 272 623 272 623 366 684 c 0,3,4
 382 694 382 694 398 694 c 2,5,-1
 400 694 l 2,6,7
 436 694 436 694 436 665 c 0,8,9
 436 661 436 661 434.5 657 c 128,-1,10
 433 653 433 653 432 650.5 c 128,-1,11
 431 648 431 648 427.5 644.5 c 128,-1,12
 424 641 424 641 422.5 640 c 128,-1,13
 421 639 421 639 416.5 636 c 128,-1,14
 412 633 412 633 411 632 c 0,15,16
 333 577 333 577 291.5 491.5 c 128,-1,17
 250 406 250 406 250 306 c 128,-1,18
 250 206 250 206 293.5 118 c 128,-1,19
 337 30 337 30 416 -24 c 0,20,21
 436 -38 436 -38 436 -54 c 0,22,23
 436 -82 436 -82 402 -83 c 2,24,-1
 398 -83 l 2,25,26
 382 -83 382 -83 365 -72 c 0,27,28
 271 -11 271 -11 218.5 89.5 c 128,-1,0
 166 190 166 190 166 306 c 128,-1,1
EndSplineSet
EndChar

StartChar: parenright
Encoding: 41 41 12
Width: 525
GlyphClass: 2
Flags: W
LayerCount: 2
Fore
SplineSet
87 -54 m 0,0,1
 87 -47 87 -47 91 -40.5 c 128,-1,2
 95 -34 95 -34 98.5 -31 c 128,-1,3
 102 -28 102 -28 109 -23.5 c 128,-1,4
 116 -19 116 -19 117 -18 c 0,5,6
 193 36 193 36 233.5 122.5 c 128,-1,7
 274 209 274 209 274 306 c 0,8,9
 274 406 274 406 230.5 493.5 c 128,-1,10
 187 581 187 581 108 635 c 0,11,12
 87 649 87 649 87 665 c 0,13,14
 87 670 87 670 89 676 c 128,-1,15
 91 682 91 682 100 688 c 128,-1,16
 109 694 109 694 124 694 c 2,17,-1
 125 694 l 2,18,19
 142 694 142 694 159 683 c 0,20,21
 255 620 255 620 306.5 519.5 c 128,-1,22
 358 419 358 419 358 306 c 0,23,24
 358 190 358 190 305 89 c 128,-1,25
 252 -12 252 -12 158 -73 c 0,26,27
 142 -83 142 -83 125 -83 c 0,28,29
 87 -83 87 -83 87 -54 c 0,0,1
EndSplineSet
EndChar

StartChar: asterisk
Encoding: 42 42 13
Width: 525
GlyphClass: 2
Flags: W
LayerCount: 2
Fore
SplineSet
67 214 m 0,0,1
 67 236 67 236 95 251 c 2,2,-1
 198 305 l 1,3,-1
 198 306 l 1,4,-1
 95 359 l 2,5,6
 67 372 67 372 67 397 c 0,7,8
 67 413 67 413 78.5 424 c 128,-1,9
 90 435 90 435 105 435 c 0,10,11
 115 435 115 435 128 427 c 128,-1,12
 141 419 141 419 230 361 c 1,13,-1
 229 386 l 2,14,15
 228 412 228 412 226.5 443.5 c 128,-1,16
 225 475 225 475 225 489 c 2,17,-1
 225 500 l 1,18,19
 233 527 233 527 262 527 c 0,20,21
 281 527 281 527 290 516 c 128,-1,22
 299 505 299 505 299 494 c 2,23,-1
 299 483 l 1,24,-1
 294 361 l 1,25,26
 317 376 317 376 349 397 c 0,27,28
 407 435 407 435 417 435 c 0,29,30
 433 435 433 435 444.5 424 c 128,-1,31
 456 413 456 413 456 397 c 0,32,33
 456 374 456 374 428 359 c 2,34,-1
 325 306 l 1,35,-1
 325 305 l 1,36,-1
 428 251 l 2,37,38
 456 236 456 236 456 214 c 0,39,40
 456 198 456 198 444.5 186.5 c 128,-1,41
 433 175 433 175 418 175 c 0,42,43
 407 175 407 175 357 209 c 0,44,45
 321 232 321 232 294 250 c 1,46,-1
 295 224 l 2,47,48
 296 198 296 198 297.5 166.5 c 128,-1,49
 299 135 299 135 299 121 c 2,50,-1
 299 111 l 1,51,52
 291 84 291 84 262 84 c 0,53,54
 243 84 243 84 233.5 95 c 128,-1,55
 224 106 224 106 224 117 c 2,56,-1
 224 128 l 1,57,-1
 230 250 l 1,58,59
 207 235 207 235 175 214 c 0,60,61
 116 175 116 175 106 175 c 0,62,63
 92 175 92 175 79.5 185.5 c 128,-1,64
 67 196 67 196 67 214 c 0,0,1
EndSplineSet
EndChar

StartChar: plus
Encoding: 43 43 14
Width: 525
GlyphClass: 2
Flags: W
LayerCount: 2
Fore
SplineSet
37 305 m 0,0,1
 37 318 37 318 46 329 c 128,-1,2
 55 340 55 340 69 342 c 0,3,4
 76 343 76 343 91 343 c 2,5,-1
 224 343 l 1,6,-1
 224 484 l 2,7,8
 224 511 224 511 236.5 520.5 c 128,-1,9
 249 530 249 530 262 530 c 0,10,11
 276 530 276 530 286.5 521 c 128,-1,12
 297 512 297 512 299 498 c 0,13,14
 300 491 300 491 300 477 c 2,15,-1
 300 343 l 1,16,-1
 433 343 l 2,17,18
 448 343 448 343 455 342 c 0,19,20
 468 340 468 340 477 329.5 c 128,-1,21
 486 319 486 319 486 305 c 0,22,23
 486 298 486 298 484 291 c 128,-1,24
 482 284 482 284 471 276 c 128,-1,25
 460 268 460 268 442 268 c 2,26,-1
 300 268 l 1,27,-1
 300 127 l 2,28,29
 300 81 300 81 262 81 c 0,30,31
 248 81 248 81 237.5 90 c 128,-1,32
 227 99 227 99 225 113 c 0,33,34
 224 120 224 120 224 134 c 2,35,-1
 224 268 l 1,36,-1
 82 268 l 2,37,38
 63 268 63 268 52 276 c 128,-1,39
 41 284 41 284 39 291 c 128,-1,40
 37 298 37 298 37 305 c 0,0,1
EndSplineSet
EndChar

StartChar: comma
Encoding: 44 44 15
Width: 525
GlyphClass: 2
Flags: W
LayerCount: 2
Fore
SplineSet
175 -97 m 128,-1,1
 175 -83 175 -83 186 -75 c 128,-1,2
 197 -67 197 -67 212 -63.5 c 128,-1,3
 227 -60 227 -60 245.5 -43.5 c 128,-1,4
 264 -27 264 -27 275 1 c 1,5,6
 274 1 274 1 270 0.5 c 128,-1,7
 266 0 266 0 265 0 c 0,8,9
 227 0 227 0 207 22 c 128,-1,10
 187 44 187 44 187 75 c 0,11,12
 187 107 187 107 207.5 128 c 128,-1,13
 228 149 228 149 262 149 c 0,14,15
 300 149 300 149 328.5 119 c 128,-1,16
 357 89 357 89 357 39 c 0,17,18
 357 -38 357 -38 304.5 -88 c 128,-1,19
 252 -138 252 -138 215 -138 c 0,20,21
 203 -138 203 -138 189 -124.5 c 128,-1,0
 175 -111 175 -111 175 -97 c 128,-1,1
EndSplineSet
EndChar

StartChar: hyphen
Encoding: 45 45 16
Width: 525
GlyphClass: 2
Flags: W
LayerCount: 2
Fore
SplineSet
87 219 m 0,0,1
 87 260 87 260 126 260 c 2,2,-1
 399 260 l 2,3,4
 437 260 437 260 437 223 c 128,-1,5
 437 186 437 186 401 185 c 2,6,-1
 122 185 l 2,7,8
 87 186 87 186 87 219 c 0,0,1
EndSplineSet
EndChar

StartChar: period
Encoding: 46 46 17
Width: 525
GlyphClass: 2
Flags: W
LayerCount: 2
Fore
SplineSet
187 75 m 0,0,1
 187 104 187 104 208.5 126.5 c 128,-1,2
 230 149 230 149 262 149 c 0,3,4
 292 149 292 149 314 128 c 128,-1,5
 336 107 336 107 336 75 c 0,6,7
 336 45 336 45 315 22.5 c 128,-1,8
 294 0 294 0 262 0 c 0,9,10
 232 0 232 0 209.5 21.5 c 128,-1,11
 187 43 187 43 187 75 c 0,0,1
EndSplineSet
EndChar

StartChar: slash
Encoding: 47 47 18
Width: 525
GlyphClass: 2
Flags: WO
LayerCount: 2
Fore
SplineSet
58 -46 m 0,0,1
 58 -36 58 -36 66 -20 c 2,2,-1
 386 656 l 2,3,4
 386 657 386 657 388.5 661.5 c 128,-1,5
 391 666 391 666 392 668 c 128,-1,6
 393 670 393 670 396 675 c 128,-1,7
 399 680 399 680 402 682.5 c 128,-1,8
 405 685 405 685 409 688 c 128,-1,9
 413 691 413 691 417.5 692.5 c 128,-1,10
 422 694 422 694 428 694 c 0,11,12
 444 694 444 694 455 682.5 c 128,-1,13
 466 671 466 671 466 657 c 0,14,15
 466 644 466 644 459 632 c 2,16,-1
 133 -55 l 2,17,18
 120 -83 120 -83 96 -83 c 0,19,20
 81 -83 81 -83 69.5 -72 c 128,-1,21
 58 -61 58 -61 58 -46 c 0,0,1
EndSplineSet
EndChar

StartChar: zero
Encoding: 48 48 19
Width: 525
GlyphClass: 2
Flags: W
LayerCount: 2
Fore
SplineSet
42 306 m 0,0,1
 42 392 42 392 63 456 c 128,-1,2
 84 520 84 520 118.5 554 c 128,-1,3
 153 588 153 588 189 603.5 c 128,-1,4
 225 619 225 619 262 619 c 0,5,6
 300 619 300 619 336 603 c 128,-1,7
 372 587 372 587 406 553.5 c 128,-1,8
 440 520 440 520 461 456 c 128,-1,9
 482 392 482 392 482 306 c 0,10,11
 482 219 482 219 460.5 154 c 128,-1,12
 439 89 439 89 404.5 56 c 128,-1,13
 370 23 370 23 334 7.5 c 128,-1,14
 298 -8 298 -8 262 -8 c 0,15,16
 225 -8 225 -8 189.5 7 c 128,-1,17
 154 22 154 22 119.5 55.5 c 128,-1,18
 85 89 85 89 63.5 153.5 c 128,-1,19
 42 218 42 218 42 306 c 0,0,1
200.881120645 89.8716504014 m 1,20,21
 229.485718408 67 229.485718408 67 262 67 c 0,22,23
 313 67 313 67 355.5 125.5 c 128,-1,24
 398 184 398 184 398 315 c 0,25,26
 398 380 398 380 384.5 428 c 0,27,28
 380.528246213 442.121791241 380.528246213 442.121791241 375.777488568 454.122960867 c 1,29,-1
 200.881120645 89.8716504014 l 1,20,21
149.710661295 159.07319784 m 1,30,-1
 323.654928868 521.712635148 l 1,31,32
 313.980249581 528.87011067 313.980249581 528.87011067 304.5 533.5 c 0,33,34
 283 544 283 544 261 544 c 0,35,36
 210 544 210 544 168 490.5 c 128,-1,37
 126 437 126 437 126 315 c 0,38,39
 126 216.572040064 126 216.572040064 149.710661295 159.07319784 c 1,30,-1
EndSplineSet
Substitution2: "'onum' Oldstyle Figures lookup 14 subtable" zerooldstyle
EndChar

StartChar: one
Encoding: 49 49 20
Width: 525
GlyphClass: 2
Flags: W
LayerCount: 2
Fore
SplineSet
97 460 m 0,0,1
 97 475 97 475 103 483.5 c 128,-1,2
 109 492 109 492 114.5 494 c 128,-1,3
 120 496 120 496 133.5 497.5 c 128,-1,4
 147 499 147 499 151 500 c 0,5,6
 212 515 212 515 249 592 c 0,7,8
 261 619 261 619 284 619 c 0,9,10
 318 619 318 619 318 580 c 2,11,-1
 318 75 l 1,12,-1
 411 75 l 2,13,14
 451 75 451 75 449 38 c 0,15,16
 449 0 449 0 412 0 c 2,17,-1
 136 0 l 2,18,19
 119 1 119 1 110.5 11.5 c 128,-1,20
 102 22 102 22 102 37 c 0,21,22
 102 75 102 75 141 75 c 2,23,-1
 234 75 l 1,24,-1
 234 460 l 1,25,26
 183 422 183 422 134 422 c 0,27,28
 97 422 97 422 97 460 c 0,0,1
EndSplineSet
Substitution2: "'onum' Oldstyle Figures lookup 14 subtable" oneoldstyle
EndChar

StartChar: two
Encoding: 50 50 21
Width: 525
GlyphClass: 2
Flags: W
LayerCount: 2
Fore
SplineSet
52 36 m 0,0,1
 52 58 52 58 69 73 c 0,2,3
 99 98 99 98 140.5 132.5 c 128,-1,4
 182 167 182 167 203.5 184.5 c 128,-1,5
 225 202 225 202 254.5 227 c 128,-1,6
 284 252 284 252 298.5 265.5 c 128,-1,7
 313 279 313 279 331.5 298.5 c 128,-1,8
 350 318 350 318 358 330.5 c 128,-1,9
 366 343 366 343 374.5 359 c 128,-1,10
 383 375 383 375 385.5 389.5 c 128,-1,11
 388 404 388 404 388 420 c 0,12,13
 388 480 388 480 340.5 512 c 128,-1,14
 293 544 293 544 233 544 c 0,15,16
 189 544 189 544 164 516.5 c 128,-1,17
 139 489 139 489 136 455 c 0,18,19
 136 448 136 448 135 440.5 c 128,-1,20
 134 433 134 433 123.5 420.5 c 128,-1,21
 113 408 113 408 94 408 c 0,22,23
 78 408 78 408 65 418.5 c 128,-1,24
 52 429 52 429 52 454 c 0,25,26
 52 516 52 516 107 567.5 c 128,-1,27
 162 619 162 619 249 619 c 0,28,29
 344 619 344 619 408 564 c 128,-1,30
 472 509 472 509 472 421 c 0,31,32
 472 394 472 394 466.5 370.5 c 128,-1,33
 461 347 461 347 444.5 321.5 c 128,-1,34
 428 296 428 296 415.5 278.5 c 128,-1,35
 403 261 403 261 370.5 232 c 128,-1,36
 338 203 338 203 319.5 187 c 128,-1,37
 301 171 301 171 254 133 c 128,-1,38
 207 95 207 95 183 75 c 1,39,-1
 388 75 l 1,40,-1
 388 84 l 2,41,42
 388 109 388 109 399 116 c 128,-1,43
 410 123 410 123 428 123 c 2,44,-1
 430 123 l 2,45,46
 443 123 443 123 450 121.5 c 128,-1,47
 457 120 457 120 464.5 111 c 128,-1,48
 472 102 472 102 472 84 c 2,49,-1
 472 43 l 2,50,51
 472 31 472 31 471 24 c 128,-1,52
 470 17 470 17 460.5 8.5 c 128,-1,53
 451 0 451 0 433 0 c 2,54,-1
 91 0 l 2,55,56
 53 0 53 0 52 36 c 0,0,1
EndSplineSet
Substitution2: "'onum' Oldstyle Figures lookup 14 subtable" twooldstyle
EndChar

StartChar: three
Encoding: 51 51 22
Width: 525
GlyphClass: 2
Flags: W
LayerCount: 2
Fore
SplineSet
43 138 m 0,0,1
 43 160 43 160 55.5 171.5 c 128,-1,2
 68 183 68 183 85 183 c 128,-1,3
 102 183 102 183 113 172.5 c 128,-1,4
 124 162 124 162 126 147 c 2,5,-1
 126 139 l 2,6,7
 127 131 127 131 129 126.5 c 128,-1,8
 131 122 131 122 135 114 c 128,-1,9
 139 106 139 106 147.5 99 c 128,-1,10
 156 92 156 92 168 86 c 0,11,12
 208 67 208 67 262 67 c 0,13,14
 333 67 333 67 364.5 101.5 c 128,-1,15
 396 136 396 136 396 180 c 128,-1,16
 396 224 396 224 364.5 258 c 128,-1,17
 333 292 333 292 251 292 c 2,18,-1
 207 292 l 2,19,20
 174 292 174 292 174 330 c 0,21,22
 174 341 174 341 177.5 348 c 128,-1,23
 181 355 181 355 185 359 c 128,-1,24
 189 363 189 363 199.5 365.5 c 128,-1,25
 210 368 210 368 217 368.5 c 128,-1,26
 224 369 224 369 240.5 370 c 128,-1,27
 257 371 257 371 267 372 c 0,28,29
 307 375 307 375 337 404.5 c 128,-1,30
 367 434 367 434 367 474 c 0,31,32
 367 501 367 501 343.5 522.5 c 128,-1,33
 320 544 320 544 263 544 c 0,34,35
 170 544 170 544 158 508 c 1,36,-1
 157 502 l 2,37,38
 156 495 156 495 153.5 488.5 c 128,-1,39
 151 482 151 482 147 474.5 c 128,-1,40
 143 467 143 467 134.5 462.5 c 128,-1,41
 126 458 126 458 114 458 c 0,42,43
 94 458 94 458 83.5 471 c 128,-1,44
 73 484 73 484 73 505 c 0,45,46
 73 548 73 548 118 583.5 c 128,-1,47
 163 619 163 619 263 619 c 0,48,49
 352 619 352 619 401.5 577.5 c 128,-1,50
 451 536 451 536 451 474 c 0,51,52
 451 386 451 386 372 331 c 1,53,54
 431 307 431 307 455.5 265 c 128,-1,55
 480 223 480 223 480 179 c 0,56,57
 480 100 480 100 422.5 46 c 128,-1,58
 365 -8 365 -8 262 -8 c 0,59,60
 167 -8 167 -8 105 32.5 c 128,-1,61
 43 73 43 73 43 138 c 0,0,1
EndSplineSet
Substitution2: "'onum' Oldstyle Figures lookup 14 subtable" threeoldstyle
EndChar

StartChar: four
Encoding: 52 52 23
Width: 525
GlyphClass: 2
Flags: W
LayerCount: 2
Fore
SplineSet
29 207 m 2,0,1
 29 207 29 207 29 228 c 0,2,3
 29 236 29 236 30 240.5 c 128,-1,4
 31 245 31 245 32 247.5 c 128,-1,5
 33 250 33 250 37.5 257 c 128,-1,6
 42 264 42 264 45 269 c 2,7,-1
 251 594 l 2,8,9
 261 610 261 610 269 614.5 c 128,-1,10
 277 619 277 619 294 619 c 2,11,-1
 346 619 l 2,12,13
 363 619 363 619 372 612 c 128,-1,14
 381 605 381 605 382.5 597 c 128,-1,15
 384 589 384 589 384 575 c 2,16,-1
 384 243 l 1,17,-1
 459 243 l 2,18,19
 495 243 495 243 495 206 c 128,-1,20
 495 169 495 169 458 168 c 2,21,-1
 384 168 l 1,22,-1
 384 75 l 1,23,-1
 439 75 l 2,24,25
 440 75 440 75 443 75.5 c 128,-1,26
 446 76 446 76 448 76 c 0,27,28
 488 76 488 76 486 38 c 0,29,30
 486 0 486 0 447 0 c 2,31,-1
 252 0 l 2,32,33
 241 0 241 0 234.5 1.5 c 128,-1,34
 228 3 228 3 221 12 c 128,-1,35
 214 21 214 21 214 38 c 0,36,37
 214 76 214 76 252 76 c 0,38,39
 254 76 254 76 257 75.5 c 128,-1,40
 260 75 260 75 261 75 c 2,41,-1
 316 75 l 1,42,-1
 316 168 l 1,43,-1
 67 168 l 2,44,45
 56 168 56 168 49 169.5 c 128,-1,46
 42 171 42 171 35.5 180.5 c 128,-1,47
 29 190 29 190 29 207 c 2,0,1
115 243 m 1,48,-1
 316 243 l 1,49,-1
 316 560 l 1,50,-1
 115 243 l 1,48,-1
EndSplineSet
Substitution2: "'onum' Oldstyle Figures lookup 14 subtable" fouroldstyle
EndChar

StartChar: five
Encoding: 53 53 24
Width: 525
GlyphClass: 2
Flags: W
LayerCount: 2
Fore
SplineSet
52 137 m 0,0,1
 52 156 52 156 64 168.5 c 128,-1,2
 76 181 76 181 94 181 c 0,3,4
 106 181 106 181 115 176.5 c 128,-1,5
 124 172 124 172 128 163.5 c 128,-1,6
 132 155 132 155 134 148.5 c 128,-1,7
 136 142 136 142 137 134 c 2,8,-1
 138 125 l 1,9,10
 145 100 145 100 174.5 83.5 c 128,-1,11
 204 67 204 67 245 67 c 0,12,13
 307 67 307 67 347.5 99 c 128,-1,14
 388 131 388 131 388 190 c 0,15,16
 388 236 388 236 361 273 c 128,-1,17
 334 310 334 310 273 310 c 0,18,19
 197 310 197 310 159 267 c 0,20,21
 148 253 148 253 141.5 250.5 c 128,-1,22
 135 248 135 248 119 248 c 0,23,24
 105 248 105 248 96.5 252 c 128,-1,25
 88 256 88 256 84.5 264.5 c 128,-1,26
 81 273 81 273 80.5 278 c 128,-1,27
 80 283 80 283 80 294 c 2,28,-1
 80 572 l 2,29,30
 79 611 79 611 119 611 c 2,31,-1
 397 611 l 2,32,33
 437 611 437 611 437 574 c 0,34,35
 437 535 437 535 400 535 c 2,36,-1
 164 535 l 1,37,-1
 164 360 l 1,38,39
 212 386 212 386 274 386 c 0,40,41
 365 386 365 386 418.5 330.5 c 128,-1,42
 472 275 472 275 472 189 c 0,43,44
 472 101 472 101 409 46.5 c 128,-1,45
 346 -8 346 -8 245 -8 c 0,46,47
 163 -8 163 -8 107.5 33.5 c 128,-1,48
 52 75 52 75 52 137 c 0,0,1
EndSplineSet
Substitution2: "'onum' Oldstyle Figures lookup 14 subtable" fiveoldstyle
EndChar

StartChar: six
Encoding: 54 54 25
Width: 525
GlyphClass: 2
Flags: W
LayerCount: 2
Fore
SplineSet
45 301 m 0,0,1
 45 388 45 388 71 453 c 128,-1,2
 97 518 97 518 140 552.5 c 128,-1,3
 183 587 183 587 228.5 603 c 128,-1,4
 274 619 274 619 321 619 c 0,5,6
 392 619 392 619 423 588 c 128,-1,7
 454 557 454 557 454 519 c 0,8,9
 454 496 454 496 440 485.5 c 128,-1,10
 426 475 426 475 412 475 c 0,11,12
 393 475 393 475 382.5 487.5 c 128,-1,13
 372 500 372 500 370.5 508.5 c 128,-1,14
 369 517 369 517 369 522 c 0,15,16
 363 544 363 544 319 544 c 0,17,18
 291 544 291 544 262.5 534.5 c 128,-1,19
 234 525 234 525 204.5 503.5 c 128,-1,20
 175 482 175 482 154.5 439.5 c 128,-1,21
 134 397 134 397 130 340 c 1,22,23
 195 398 195 398 286 398 c 0,24,25
 373 398 373 398 424 344 c 0,26,27
 479 288 479 288 479 195 c 0,28,29
 479 85 479 85 391 25 c 0,30,31
 342 -8 342 -8 265 -8 c 0,32,33
 235 -8 235 -8 208 -2 c 128,-1,34
 181 4 181 4 150 24.5 c 128,-1,35
 119 45 119 45 97 77 c 128,-1,36
 75 109 75 109 60 167 c 128,-1,37
 45 225 45 225 45 301 c 0,0,1
137 220 m 0,38,39
 137 199 137 199 143 175 c 128,-1,40
 149 151 149 151 161.5 125.5 c 128,-1,41
 174 100 174 100 201 83.5 c 128,-1,42
 228 67 228 67 264 67 c 0,43,44
 323 67 323 67 360 103 c 0,45,46
 395 137 395 137 395 197 c 0,47,48
 395 266 395 266 343 304 c 0,49,50
 314 323 314 323 268 323 c 0,51,52
 212 323 212 323 174.5 292 c 128,-1,53
 137 261 137 261 137 220 c 0,38,39
EndSplineSet
Substitution2: "'onum' Oldstyle Figures lookup 14 subtable" sixoldstyle
EndChar

StartChar: seven
Encoding: 55 55 26
Width: 525
GlyphClass: 2
Flags: W
LayerCount: 2
Fore
SplineSet
43 532 m 2,0,-1
 43 587 l 2,1,2
 43 599 43 599 44.5 606 c 128,-1,3
 46 613 46 613 55 620 c 128,-1,4
 64 627 64 627 82 627 c 0,5,6
 107 627 107 627 116 619 c 128,-1,7
 125 611 125 611 134 611 c 2,8,-1
 440 611 l 2,9,10
 480 611 480 611 480 574 c 0,11,12
 480 561 480 561 476 552.5 c 128,-1,13
 472 544 472 544 464.5 537.5 c 128,-1,14
 457 531 457 531 438 511.5 c 128,-1,15
 419 492 419 492 398 466 c 0,16,17
 340 394 340 394 304.5 311 c 128,-1,18
 269 228 269 228 260 173 c 128,-1,19
 251 118 251 118 247 70 c 128,-1,20
 243 22 243 22 243 21 c 0,21,22
 233 -8 233 -8 203 -8 c 0,23,24
 195 -8 195 -8 187 -5.5 c 128,-1,25
 179 -3 179 -3 170 9.5 c 128,-1,26
 161 22 161 22 161 42 c 0,27,28
 163 175 163 175 213.5 303 c 128,-1,29
 264 431 264 431 364 535 c 1,30,-1
 127 535 l 1,31,-1
 127 527 l 2,32,33
 127 502 127 502 116 495 c 128,-1,34
 105 488 105 488 87 488 c 2,35,-1
 83 488 l 2,36,37
 64 488 64 488 54.5 496.5 c 128,-1,38
 45 505 45 505 44 512 c 128,-1,39
 43 519 43 519 43 532 c 2,0,-1
EndSplineSet
Substitution2: "'onum' Oldstyle Figures lookup 14 subtable" sevenoldstyle
EndChar

StartChar: eight
Encoding: 56 56 27
Width: 525
GlyphClass: 2
Flags: W
LayerCount: 2
Fore
SplineSet
43 179 m 0,0,1
 43 286 43 286 166 330 c 1,2,3
 112 346 112 346 85 381 c 128,-1,4
 58 416 58 416 58 457 c 0,5,6
 58 526 58 526 111 572.5 c 128,-1,7
 164 619 164 619 261 619 c 0,8,9
 317 619 317 619 359 603.5 c 128,-1,10
 401 588 401 588 423 562.5 c 128,-1,11
 445 537 445 537 455 510.5 c 128,-1,12
 465 484 465 484 465 457 c 0,13,14
 465 366 465 366 357 330 c 1,15,16
 420 311 420 311 450 269.5 c 128,-1,17
 480 228 480 228 480 179 c 0,18,19
 480 98 480 98 422 45 c 128,-1,20
 364 -8 364 -8 262 -8 c 0,21,22
 158 -8 158 -8 100.5 45.5 c 128,-1,23
 43 99 43 99 43 179 c 0,0,1
127 180 m 0,24,25
 127 125 127 125 167 96 c 128,-1,26
 207 67 207 67 262 67 c 0,27,28
 322 67 322 67 359 97 c 128,-1,29
 396 127 396 127 396 179 c 0,30,31
 396 230 396 230 359.5 261 c 128,-1,32
 323 292 323 292 262 292 c 0,33,34
 199 292 199 292 163 261 c 128,-1,35
 127 230 127 230 127 180 c 0,24,25
142 456 m 0,36,37
 142 413 142 413 177.5 390 c 128,-1,38
 213 367 213 367 262 367 c 0,39,40
 313 367 313 367 347.5 390.5 c 128,-1,41
 382 414 382 414 382 456 c 0,42,43
 382 499 382 499 346.5 521.5 c 128,-1,44
 311 544 311 544 262 544 c 0,45,46
 211 544 211 544 176.5 521 c 128,-1,47
 142 498 142 498 142 456 c 0,36,37
EndSplineSet
Substitution2: "'onum' Oldstyle Figures lookup 14 subtable" eightoldstyle
EndChar

StartChar: nine
Encoding: 57 57 28
Width: 525
GlyphClass: 2
Flags: W
LayerCount: 2
Fore
SplineSet
45 416 m 0,0,1
 45 525 45 525 132 584 c 0,2,3
 183 619 183 619 265 619 c 0,4,5
 294 619 294 619 320.5 613 c 128,-1,6
 347 607 347 607 377 587 c 128,-1,7
 407 567 407 567 428.5 534.5 c 128,-1,8
 450 502 450 502 464.5 444.5 c 128,-1,9
 479 387 479 387 479 310 c 0,10,11
 479 239 479 239 462 182 c 128,-1,12
 445 125 445 125 418 90.5 c 128,-1,13
 391 56 391 56 355.5 33 c 128,-1,14
 320 10 320 10 285.5 1 c 128,-1,15
 251 -8 251 -8 215 -8 c 0,16,17
 135 -8 135 -8 102.5 22.5 c 128,-1,18
 70 53 70 53 70 92 c 0,19,20
 70 115 70 115 83.5 125.5 c 128,-1,21
 97 136 97 136 111 136 c 0,22,23
 130 136 130 136 141 123.5 c 128,-1,24
 152 111 152 111 153.5 102.5 c 128,-1,25
 155 94 155 94 155 89 c 0,26,27
 160 67 160 67 216 67 c 0,28,29
 245 67 245 67 271.5 76.5 c 128,-1,30
 298 86 298 86 324.5 107 c 128,-1,31
 351 128 351 128 370 170.5 c 128,-1,32
 389 213 389 213 394 271 c 1,33,34
 328 212 328 212 237 212 c 0,35,36
 173 212 173 212 128 243 c 0,37,38
 45 302 45 302 45 416 c 0,0,1
129 414 m 2,39,40
 129 355 129 355 165 320 c 0,41,42
 198 288 198 288 253 288 c 0,43,44
 312 288 312 288 349.5 319 c 128,-1,45
 387 350 387 350 387 391 c 0,46,47
 387 422 387 422 377.5 454 c 128,-1,48
 368 486 368 486 338.5 515 c 128,-1,49
 309 544 309 544 264 544 c 0,50,51
 196 544 196 544 162.5 508 c 128,-1,52
 129 472 129 472 129 422 c 2,53,-1
 129 414 l 2,39,40
EndSplineSet
Substitution2: "'onum' Oldstyle Figures lookup 14 subtable" nineoldstyle
EndChar

StartChar: less
Encoding: 60 60 31
Width: 525
GlyphClass: 2
Flags: W
LayerCount: 2
Fore
SplineSet
56 305 m 0,0,1
 56 327 56 327 85 345 c 2,2,-1
 403 555 l 2,3,4
 418 565 418 565 430 565 c 0,5,6
 445 565 445 565 456.5 554 c 128,-1,7
 468 543 468 543 468 527 c 0,8,9
 468 520 468 520 465.5 514 c 128,-1,10
 463 508 463 508 458.5 503.5 c 128,-1,11
 454 499 454 499 450.5 496 c 128,-1,12
 447 493 447 493 440.5 489 c 128,-1,13
 434 485 434 485 433 484 c 2,14,-1
 163 306 l 1,15,-1
 163 305 l 1,16,-1
 433 126 l 2,17,18
 434 126 434 126 441 121.5 c 128,-1,19
 448 117 448 117 451 114.5 c 128,-1,20
 454 112 454 112 459 107 c 128,-1,21
 464 102 464 102 466 96 c 128,-1,22
 468 90 468 90 468 83 c 0,23,24
 468 69 468 69 457.5 57.5 c 128,-1,25
 447 46 447 46 430 46 c 0,26,27
 423 46 423 46 417 48 c 128,-1,28
 411 50 411 50 401 57 c 128,-1,29
 391 64 391 64 390 64 c 2,30,-1
 85 266 l 2,31,32
 56 284 56 284 56 305 c 0,0,1
EndSplineSet
EndChar

StartChar: equal
Encoding: 61 61 32
Width: 525
GlyphClass: 2
Flags: W
LayerCount: 2
Fore
SplineSet
37 228 m 0,0,1
 37 258 37 258 69 264 c 0,2,3
 76 265 76 265 91 265 c 2,4,-1
 443 265 l 2,5,6
 461 265 461 265 471.5 256.5 c 128,-1,7
 482 248 482 248 484 241.5 c 128,-1,8
 486 235 486 235 486 228 c 0,9,10
 486 190 486 190 440 190 c 2,11,-1
 82 190 l 2,12,13
 64 190 64 190 53 198 c 128,-1,14
 42 206 42 206 39.5 213.5 c 128,-1,15
 37 221 37 221 37 228 c 0,0,1
37 383 m 0,16,17
 37 391 37 391 39.5 398 c 128,-1,18
 42 405 42 405 53.5 413 c 128,-1,19
 65 421 65 421 85 421 c 2,20,-1
 438 421 l 2,21,22
 486 421 486 421 486 383 c 0,23,24
 486 376 486 376 484 369 c 128,-1,25
 482 362 482 362 471 354 c 128,-1,26
 460 346 460 346 442 346 c 2,27,-1
 80 346 l 2,28,29
 55 346 55 346 46 358.5 c 128,-1,30
 37 371 37 371 37 383 c 0,16,17
EndSplineSet
EndChar

StartChar: greater
Encoding: 62 62 33
Width: 525
GlyphClass: 2
Flags: W
LayerCount: 2
Fore
SplineSet
56 83 m 0,0,1
 56 90 56 90 58.5 96 c 128,-1,2
 61 102 61 102 65.5 106.5 c 128,-1,3
 70 111 70 111 73.5 114 c 128,-1,4
 77 117 77 117 83.5 121 c 128,-1,5
 90 125 90 125 91 126 c 2,6,-1
 361 305 l 1,7,-1
 361 306 l 1,8,-1
 91 484 l 2,9,10
 90 485 90 485 84.5 488.5 c 128,-1,11
 79 492 79 492 76.5 493.5 c 128,-1,12
 74 495 74 495 69 499.5 c 128,-1,13
 64 504 64 504 62 507.5 c 128,-1,14
 60 511 60 511 58 516.5 c 128,-1,15
 56 522 56 522 56 528 c 0,16,17
 56 544 56 544 67.5 554.5 c 128,-1,18
 79 565 79 565 94 565 c 0,19,20
 101 565 101 565 107 563 c 128,-1,21
 113 561 113 561 123 554 c 128,-1,22
 133 547 133 547 134 547 c 2,23,-1
 439 345 l 2,24,25
 468 327 468 327 468 305 c 0,26,27
 468 284 468 284 439 266 c 2,28,-1
 121 56 l 2,29,30
 106 46 106 46 94 46 c 0,31,32
 79 46 79 46 67.5 56.5 c 128,-1,33
 56 67 56 67 56 83 c 0,0,1
EndSplineSet
EndChar

StartChar: question
Encoding: 63 63 34
Width: 525
GlyphClass: 2
Flags: W
LayerCount: 2
Fore
SplineSet
61 493 m 0,0,1
 61 513 61 513 70 533 c 128,-1,2
 79 553 79 553 99.5 572 c 128,-1,3
 120 591 120 591 159 603 c 128,-1,4
 198 615 198 615 252 615 c 0,5,6
 428 615 428 615 458 519 c 0,7,8
 462 506 462 506 462 490 c 0,9,10
 462 457 462 457 444.5 433 c 128,-1,11
 427 409 427 409 402.5 394.5 c 128,-1,12
 378 380 378 380 353.5 364 c 128,-1,13
 329 348 329 348 311.5 320 c 128,-1,14
 294 292 294 292 294 253 c 2,15,-1
 294 242 l 2,16,17
 294 228 294 228 292 220 c 128,-1,18
 290 212 290 212 282 206 c 128,-1,19
 274 200 274 200 258 200 c 2,20,-1
 233 200 l 2,21,22
 198 200 198 200 198 236 c 2,23,-1
 198 257 l 2,24,25
 198 373 198 373 336 448 c 0,26,27
 338 449 338 449 342.5 451.5 c 128,-1,28
 347 454 347 454 349 455 c 128,-1,29
 351 456 351 456 355 458 c 128,-1,30
 359 460 359 460 361 462 c 128,-1,31
 363 464 363 464 366 466.5 c 128,-1,32
 369 469 369 469 370.5 471.5 c 128,-1,33
 372 474 372 474 374 477 c 128,-1,34
 376 480 376 480 377 484 c 0,35,36
 378 486 378 486 378 491 c 0,37,38
 378 512 378 512 347.5 526 c 128,-1,39
 317 540 317 540 252 540 c 0,40,41
 158 540 158 540 146 499 c 0,42,43
 146 498 146 498 145 491.5 c 128,-1,44
 144 485 144 485 142 478.5 c 128,-1,45
 140 472 140 472 136 465 c 128,-1,46
 132 458 132 458 123.5 453.5 c 128,-1,47
 115 449 115 449 103 449 c 0,48,49
 85 449 85 449 73 461.5 c 128,-1,50
 61 474 61 474 61 493 c 0,0,1
186 60 m 0,51,52
 186 83 186 83 203.5 101.5 c 128,-1,53
 221 120 221 120 246 120 c 128,-1,54
 271 120 271 120 288.5 103 c 128,-1,55
 306 86 306 86 306 60 c 0,56,57
 306 37 306 37 288.5 18.5 c 128,-1,58
 271 0 271 0 246 0 c 0,59,60
 220 0 220 0 203 18 c 128,-1,61
 186 36 186 36 186 60 c 0,51,52
EndSplineSet
EndChar

StartChar: at
Encoding: 64 64 35
Width: 525
GlyphClass: 2
Flags: W
LayerCount: 2
Fore
SplineSet
43 306 m 0,0,1
 43 456 43 456 120 535.5 c 128,-1,2
 197 615 197 615 303 615 c 0,3,4
 480 615 480 615 480 329 c 2,5,-1
 480 313 l 2,6,7
 480 253 480 253 465 209 c 128,-1,8
 450 165 450 165 426 144 c 128,-1,9
 402 123 402 123 379 114 c 128,-1,10
 356 105 356 105 332 105 c 0,11,12
 270 105 270 105 227 157 c 128,-1,13
 184 209 184 209 184 305 c 0,14,15
 184 410 184 410 230.5 458 c 128,-1,16
 277 506 277 506 332 506 c 0,17,18
 356 506 356 506 383 496 c 1,19,20
 357 539 357 539 303 539 c 0,21,22
 270 539 270 539 238 526.5 c 128,-1,23
 206 514 206 514 176.5 488.5 c 128,-1,24
 147 463 147 463 129 415.5 c 128,-1,25
 111 368 111 368 111 306 c 0,26,27
 111 241 111 241 129.5 192.5 c 128,-1,28
 148 144 148 144 178.5 119 c 128,-1,29
 209 94 209 94 240 82.5 c 128,-1,30
 271 71 271 71 303 71 c 0,31,32
 341 71 341 71 365.5 82.5 c 128,-1,33
 390 94 390 94 406 105.5 c 128,-1,34
 422 117 422 117 440 117 c 0,35,36
 480 117 480 117 480 89 c 0,37,38
 480 64 480 64 426 30 c 128,-1,39
 372 -4 372 -4 305 -4 c 0,40,41
 257 -4 257 -4 212 13.5 c 128,-1,42
 167 31 167 31 128.5 66.5 c 128,-1,43
 90 102 90 102 66.5 164 c 128,-1,44
 43 226 43 226 43 306 c 0,0,1
252 305 m 128,-1,46
 252 238 252 238 276.5 209 c 128,-1,47
 301 180 301 180 332 180 c 0,48,49
 362 180 362 180 387 209 c 128,-1,50
 412 238 412 238 412 305 c 128,-1,51
 412 372 412 372 387.5 401.5 c 128,-1,52
 363 431 363 431 332 431 c 128,-1,53
 301 431 301 431 276.5 401.5 c 128,-1,45
 252 372 252 372 252 305 c 128,-1,46
EndSplineSet
EndChar

StartChar: A
Encoding: 65 65 36
Width: 525
GlyphClass: 2
Flags: W
AnchorPoint: "Anchor-5" 264 619 basechar 0
AnchorPoint: "Anchor-4" 262 0 basechar 0
AnchorPoint: "Anchor-1" 395 0 basechar 0
LayerCount: 2
Fore
SplineSet
27 38 m 0,0,1
 26 75 26 75 65 75 c 2,2,-1
 89 75 l 1,3,-1
 98 119 l 1,4,-1
 199 576 l 2,5,6
 202 587 202 587 203.5 592 c 128,-1,7
 205 597 205 597 210 605 c 128,-1,8
 215 613 215 613 224 616 c 128,-1,9
 233 619 233 619 247 619 c 2,10,-1
 280 619 l 2,11,12
 297 619 297 619 307.5 610.5 c 128,-1,13
 318 602 318 602 320.5 595 c 128,-1,14
 323 588 323 588 325 576 c 2,15,-1
 424 125 l 2,16,17
 430 99 430 99 435 75 c 1,18,-1
 457 75 l 2,19,20
 498 75 498 75 497 38 c 0,21,22
 497 0 497 0 458 0 c 2,23,-1
 334 0 l 2,24,25
 294 0 294 0 294 35 c 0,26,27
 294 75 294 75 333 75 c 2,28,-1
 349 75 l 1,29,-1
 333 150 l 1,30,-1
 190 150 l 1,31,-1
 175 75 l 1,32,-1
 190 75 l 2,33,34
 229 75 229 75 229 38 c 0,35,36
 229 0 229 0 190 0 c 2,37,-1
 65 0 l 2,38,39
 25 0 25 0 27 38 c 0,0,1
207 225 m 1,40,-1
 317 225 l 1,41,42
 314 242 314 242 299.5 312 c 128,-1,43
 285 382 285 382 274 444 c 128,-1,44
 263 506 263 506 262 541 c 1,45,46
 259 498 259 498 247 430.5 c 128,-1,47
 235 363 235 363 221.5 298 c 128,-1,48
 208 233 208 233 207 225 c 1,40,-1
EndSplineSet
EndChar

StartChar: B
Encoding: 66 66 37
Width: 525
GlyphClass: 2
Flags: W
AnchorPoint: "Anchor-5" 214 619 basechar 0
AnchorPoint: "Anchor-4" 214 0 basechar 0
LayerCount: 2
Fore
SplineSet
16 40 m 0,0,1
 16 75 16 75 53 75 c 2,2,-1
 84 75 l 1,3,-1
 84 535 l 1,4,-1
 57 535 l 2,5,6
 45 535 45 535 38 536.5 c 128,-1,7
 31 538 31 538 23.5 546.5 c 128,-1,8
 16 555 16 555 16 572 c 0,9,10
 16 611 16 611 53 611 c 2,11,-1
 288 611 l 2,12,13
 337 611 337 611 373 595.5 c 128,-1,14
 409 580 409 580 427 555 c 128,-1,15
 445 530 445 530 453 505 c 128,-1,16
 461 480 461 480 461 454 c 0,17,18
 461 356 461 356 364 320 c 1,19,20
 421 307 421 307 451.5 267 c 128,-1,21
 482 227 482 227 482 169 c 0,22,23
 482 140 482 140 474 113 c 128,-1,24
 466 86 466 86 448 59.5 c 128,-1,25
 430 33 430 33 394 16.5 c 128,-1,26
 358 0 358 0 309 0 c 2,27,-1
 53 0 l 2,28,29
 16 1 16 1 16 40 c 0,0,1
168 75 m 1,30,-1
 287 75 l 2,31,32
 350 75 350 75 374 104.5 c 128,-1,33
 398 134 398 134 398 172 c 0,34,35
 398 216 398 216 374.5 248 c 128,-1,36
 351 280 351 280 295 280 c 2,37,-1
 168 280 l 1,38,-1
 168 75 l 1,30,-1
168 355 m 1,39,-1
 267 355 l 2,40,41
 329 355 329 355 353.5 385.5 c 128,-1,42
 378 416 378 416 378 453 c 0,43,44
 378 486 378 486 357.5 510.5 c 128,-1,45
 337 535 337 535 289 535 c 2,46,-1
 168 535 l 1,47,-1
 168 355 l 1,39,-1
EndSplineSet
EndChar

StartChar: C
Encoding: 67 67 38
Width: 525
GlyphClass: 2
Flags: W
AnchorPoint: "Anchor-5" 279 619 basechar 0
AnchorPoint: "Anchor-4" 280 0 basechar 0
LayerCount: 2
Fore
SplineSet
40 305 m 0,0,1
 40 375 40 375 56 431 c 128,-1,2
 72 487 72 487 96.5 521.5 c 128,-1,3
 121 556 121 556 153.5 578.5 c 128,-1,4
 186 601 186 601 217 610 c 128,-1,5
 248 619 248 619 279 619 c 0,6,7
 345 619 345 619 404 578 c 1,8,9
 406 581 406 581 410.5 588 c 128,-1,10
 415 595 415 595 416.5 597.5 c 128,-1,11
 418 600 418 600 422 605 c 128,-1,12
 426 610 426 610 428 611.5 c 128,-1,13
 430 613 430 613 434 615.5 c 128,-1,14
 438 618 438 618 442.5 618.5 c 128,-1,15
 447 619 447 619 452 619 c 0,16,17
 484 619 484 619 484 580 c 2,18,-1
 484 448 l 2,19,20
 484 439 484 439 483.5 434 c 128,-1,21
 483 429 483 429 480 421.5 c 128,-1,22
 477 414 477 414 468 410.5 c 128,-1,23
 459 407 459 407 445 407 c 0,24,25
 444 407 444 407 441 406.5 c 128,-1,26
 438 406 438 406 436 406 c 0,27,28
 422 406 422 406 413.5 412 c 128,-1,29
 405 418 405 418 403 425 c 128,-1,30
 401 432 401 432 398 445.5 c 128,-1,31
 395 459 395 459 392 467 c 0,32,33
 382 496 382 496 358 520 c 128,-1,34
 334 544 334 544 295 544 c 0,35,36
 273 544 273 544 251 537.5 c 128,-1,37
 229 531 229 531 205.5 513.5 c 128,-1,38
 182 496 182 496 164.5 470 c 128,-1,39
 147 444 147 444 135.5 401.5 c 128,-1,40
 124 359 124 359 124 306 c 0,41,42
 124 240 124 240 140.5 190.5 c 128,-1,43
 157 141 157 141 184.5 115.5 c 128,-1,44
 212 90 212 90 239.5 78.5 c 128,-1,45
 267 67 267 67 296 67 c 0,46,47
 339 67 339 67 367.5 93.5 c 128,-1,48
 396 120 396 120 400 161 c 0,49,50
 401 178 401 178 408.5 186 c 128,-1,51
 416 194 416 194 421.5 194.5 c 128,-1,52
 427 195 427 195 439 195 c 2,53,-1
 445 195 l 2,54,55
 456 195 456 195 463 193.5 c 128,-1,56
 470 192 470 192 477 184.5 c 128,-1,57
 484 177 484 177 484 162 c 0,58,59
 484 94 484 94 425 43 c 128,-1,60
 366 -8 366 -8 280 -8 c 0,61,62
 177 -8 177 -8 108.5 73.5 c 128,-1,63
 40 155 40 155 40 305 c 0,0,1
EndSplineSet
EndChar

StartChar: D
Encoding: 68 68 39
Width: 525
GlyphClass: 2
Flags: W
AnchorPoint: "Anchor-5" 215 619 basechar 0
AnchorPoint: "Anchor-4" 215 0 basechar 0
LayerCount: 2
Fore
SplineSet
15 40 m 0,0,1
 15 76 15 76 52 76 c 0,2,3
 53 76 53 76 54 76 c 2,4,-1
 56 75 l 1,5,-1
 78 75 l 1,6,-1
 78 535 l 1,7,-1
 54 535 l 2,8,9
 15 535 15 535 15 571 c 0,10,11
 15 611 15 611 54 611 c 2,12,-1
 260 611 l 2,13,14
 312 611 312 611 352.5 591.5 c 128,-1,15
 393 572 393 572 417.5 541 c 128,-1,16
 442 510 442 510 458 468 c 128,-1,17
 474 426 474 426 480 385.5 c 128,-1,18
 486 345 486 345 486 302 c 0,19,20
 486 246 486 246 475.5 196.5 c 128,-1,21
 465 147 465 147 441 101 c 128,-1,22
 417 55 417 55 370.5 27.5 c 128,-1,23
 324 0 324 0 260 0 c 2,24,-1
 53 0 l 2,25,26
 15 0 15 0 15 40 c 0,0,1
162 75 m 1,27,-1
 242 75 l 2,28,29
 288 75 288 75 321 96 c 128,-1,30
 354 117 354 117 370.5 152 c 128,-1,31
 387 187 387 187 394.5 224 c 128,-1,32
 402 261 402 261 402 302 c 0,33,34
 402 344 402 344 394.5 382 c 128,-1,35
 387 420 387 420 370.5 456 c 128,-1,36
 354 492 354 492 321 513.5 c 128,-1,37
 288 535 288 535 242 535 c 2,38,-1
 162 535 l 1,39,-1
 162 75 l 1,27,-1
EndSplineSet
EndChar

StartChar: E
Encoding: 69 69 40
Width: 525
GlyphClass: 2
Flags: W
AnchorPoint: "Anchor-5" 260 619 basechar 0
AnchorPoint: "Anchor-4" 260 0 basechar 0
AnchorPoint: "Anchor-1" 260 0 basechar 0
LayerCount: 2
Fore
SplineSet
18 41 m 0,0,1
 18 75 18 75 57 75 c 2,2,-1
 89 75 l 1,3,-1
 89 535 l 1,4,-1
 60 535 l 2,5,6
 48 535 48 535 40 536.5 c 128,-1,7
 32 538 32 538 25 547 c 128,-1,8
 18 556 18 556 18 572 c 0,9,10
 18 582 18 582 19 588.5 c 128,-1,11
 20 595 20 595 30 603 c 128,-1,12
 40 611 40 611 58 611 c 2,13,-1
 442 611 l 2,14,15
 460 611 460 611 469 603 c 128,-1,16
 478 595 478 595 479 588.5 c 128,-1,17
 480 582 480 582 480 570 c 2,18,-1
 480 477 l 2,19,20
 481 441 481 441 444 441 c 2,21,-1
 440 441 l 2,22,23
 424 441 424 441 415 444 c 128,-1,24
 406 447 406 447 402 455 c 128,-1,25
 398 463 398 463 397.5 468.5 c 128,-1,26
 397 474 397 474 397 487 c 2,27,-1
 397 535 l 1,28,-1
 173 535 l 1,29,-1
 173 354 l 1,30,-1
 290 354 l 1,31,-1
 290 372 l 2,32,33
 290 389 290 389 297 398.5 c 128,-1,34
 304 408 304 408 311 409.5 c 128,-1,35
 318 411 318 411 328 411 c 2,36,-1
 333 411 l 2,37,38
 359 411 359 411 366.5 400.5 c 128,-1,39
 374 390 374 390 374 371 c 2,40,-1
 374 260 l 2,41,42
 374 222 374 222 335 222 c 2,43,-1
 331 222 l 2,44,45
 312 222 312 222 302 230 c 128,-1,46
 292 238 292 238 291 244.5 c 128,-1,47
 290 251 290 251 290 262 c 2,48,-1
 290 279 l 1,49,-1
 173 279 l 1,50,-1
 173 75 l 1,51,-1
 419 75 l 1,52,-1
 419 149 l 2,53,54
 419 165 419 165 426.5 173.5 c 128,-1,55
 434 182 434 182 441.5 183.5 c 128,-1,56
 449 185 449 185 463 185 c 0,57,58
 503 185 503 185 503 149 c 2,59,-1
 503 43 l 2,60,61
 503 30 503 30 501.5 22 c 128,-1,62
 500 14 500 14 490.5 7 c 128,-1,63
 481 0 481 0 464 0 c 2,64,-1
 55 0 l 2,65,66
 18 0 18 0 18 41 c 0,0,1
EndSplineSet
EndChar

StartChar: F
Encoding: 70 70 41
Width: 525
GlyphClass: 2
Flags: W
AnchorPoint: "Anchor-5" 256 619 basechar 0
AnchorPoint: "Anchor-4" 256 0 basechar 0
LayerCount: 2
Fore
SplineSet
21 40 m 0,0,1
 21 75 21 75 58 75 c 2,2,-1
 95 75 l 1,3,-1
 95 535 l 1,4,-1
 59 535 l 2,5,6
 21 535 21 535 21 572 c 0,7,8
 21 583 21 583 22.5 590 c 128,-1,9
 24 597 24 597 33 604 c 128,-1,10
 42 611 42 611 60 611 c 2,11,-1
 452 611 l 2,12,13
 470 611 470 611 479 603 c 128,-1,14
 488 595 488 595 489 588.5 c 128,-1,15
 490 582 490 582 490 570 c 2,16,-1
 490 478 l 2,17,18
 491 441 491 441 454 441 c 2,19,-1
 450 441 l 2,20,21
 429 441 429 441 419 448 c 128,-1,22
 409 455 409 455 407.5 462.5 c 128,-1,23
 406 470 406 470 406 487 c 2,24,-1
 406 535 l 1,25,-1
 178 535 l 1,26,-1
 178 343 l 1,27,-1
 300 343 l 1,28,-1
 300 361 l 2,29,30
 300 378 300 378 307 387.5 c 128,-1,31
 314 397 314 397 321 398.5 c 128,-1,32
 328 400 328 400 338 400 c 2,33,-1
 343 400 l 2,34,35
 369 400 369 400 376.5 389.5 c 128,-1,36
 384 379 384 379 384 360 c 2,37,-1
 384 249 l 2,38,39
 384 211 384 211 345 211 c 2,40,-1
 341 211 l 2,41,42
 322 211 322 211 312 219 c 128,-1,43
 302 227 302 227 301 233.5 c 128,-1,44
 300 240 300 240 300 251 c 2,45,-1
 300 268 l 1,46,-1
 178 268 l 1,47,-1
 178 75 l 1,48,-1
 231 75 l 2,49,50
 242 75 242 75 249 73.5 c 128,-1,51
 256 72 256 72 263.5 63.5 c 128,-1,52
 271 55 271 55 271 38 c 0,53,54
 272 18 272 18 261.5 9 c 128,-1,55
 251 0 251 0 232 0 c 2,56,-1
 60 0 l 2,57,58
 35 0 35 0 28 10.5 c 128,-1,59
 21 21 21 21 21 40 c 0,0,1
EndSplineSet
EndChar

StartChar: G
Encoding: 71 71 42
Width: 525
GlyphClass: 2
Flags: W
AnchorPoint: "Anchor-5" 259 619 basechar 0
AnchorPoint: "Anchor-4" 259 0 basechar 0
LayerCount: 2
Fore
SplineSet
37 306 m 0,0,1
 37 393 37 393 58.5 457 c 128,-1,2
 80 521 80 521 115 554.5 c 128,-1,3
 150 588 150 588 186 603.5 c 128,-1,4
 222 619 222 619 259 619 c 0,5,6
 318 619 318 619 372 581 c 1,7,8
 387 606 387 606 394.5 612.5 c 128,-1,9
 402 619 402 619 416 619 c 0,10,11
 449 619 449 619 449 580 c 2,12,-1
 449 443 l 2,13,14
 449 433 449 433 447.5 426.5 c 128,-1,15
 446 420 446 420 436.5 413.5 c 128,-1,16
 427 407 427 407 410 407 c 2,17,-1
 406 407 l 2,18,19
 376 407 376 407 368 424 c 0,20,21
 367 425 367 425 364 440 c 128,-1,22
 361 455 361 455 355.5 471 c 128,-1,23
 350 487 350 487 340.5 504 c 128,-1,24
 331 521 331 521 312.5 532 c 128,-1,25
 294 543 294 543 270 543 c 0,26,27
 214 543 214 543 167.5 486.5 c 128,-1,28
 121 430 121 430 121 305 c 0,29,30
 121 239 121 239 135.5 190 c 128,-1,31
 150 141 150 141 173.5 116 c 128,-1,32
 197 91 197 91 221 79 c 128,-1,33
 245 67 245 67 269 67 c 0,34,35
 340 67 340 67 362 193 c 1,36,-1
 324 193 l 1,37,-1
 322 192 l 1,38,-1
 320 192 l 2,39,40
 281 192 281 192 281 230 c 0,41,42
 281 253 281 253 291 260.5 c 128,-1,43
 301 268 301 268 319 268 c 2,44,-1
 454 268 l 2,45,46
 468 268 468 268 475.5 266.5 c 128,-1,47
 483 265 483 265 489.5 255.5 c 128,-1,48
 496 246 496 246 496 227 c 0,49,50
 496 192 496 192 457 192 c 0,51,52
 456 192 456 192 453 192.5 c 128,-1,53
 450 193 450 193 449 193 c 1,54,-1
 449 40 l 2,55,56
 449 28 449 28 448.5 22 c 128,-1,57
 448 16 448 16 439 7.5 c 128,-1,58
 430 -1 430 -1 412 -1 c 2,59,-1
 402 -1 l 2,60,61
 368 -1 368 -1 365 31 c 1,62,63
 320 -8 320 -8 259 -8 c 0,64,65
 230 -8 230 -8 201.5 1 c 128,-1,66
 173 10 173 10 142.5 32.5 c 128,-1,67
 112 55 112 55 89 89.5 c 128,-1,68
 66 124 66 124 51.5 180 c 128,-1,69
 37 236 37 236 37 306 c 0,0,1
EndSplineSet
EndChar

StartChar: H
Encoding: 72 72 43
Width: 525
GlyphClass: 2
Flags: W
AnchorPoint: "Anchor-5" 262 619 basechar 0
AnchorPoint: "Anchor-4" 262 0 basechar 0
LayerCount: 2
Fore
SplineSet
15 36 m 0,0,1
 15 47 15 47 16 53 c 128,-1,2
 17 59 17 59 26.5 67 c 128,-1,3
 36 75 36 75 55 75 c 2,4,-1
 80 75 l 1,5,-1
 80 535 l 1,6,-1
 54 535 l 2,7,8
 15 535 15 535 15 573 c 128,-1,9
 15 611 15 611 55 611 c 2,10,-1
 191 611 l 2,11,12
 230 611 230 611 230 575 c 0,13,14
 230 535 230 535 190 535 c 2,15,-1
 164 535 l 1,16,-1
 164 355 l 1,17,-1
 360 355 l 1,18,-1
 360 535 l 1,19,-1
 334 535 l 2,20,21
 294 535 294 535 294 573 c 128,-1,22
 294 611 294 611 334 611 c 2,23,-1
 470 611 l 2,24,25
 509 611 509 611 509 575 c 0,26,27
 509 564 509 564 507.5 557.5 c 128,-1,28
 506 551 506 551 496.5 543 c 128,-1,29
 487 535 487 535 468 535 c 2,30,-1
 443 535 l 1,31,-1
 443 75 l 1,32,-1
 471 75 l 2,33,34
 509 75 509 75 509 40 c 0,35,36
 509 0 509 0 469 0 c 2,37,-1
 333 0 l 2,38,39
 294 0 294 0 294 36 c 0,40,41
 294 47 294 47 295 53 c 128,-1,42
 296 59 296 59 305.5 67 c 128,-1,43
 315 75 315 75 334 75 c 2,44,-1
 360 75 l 1,45,-1
 360 280 l 1,46,-1
 164 280 l 1,47,-1
 164 75 l 1,48,-1
 192 75 l 2,49,50
 230 75 230 75 230 40 c 0,51,52
 230 0 230 0 190 0 c 2,53,-1
 54 0 l 2,54,55
 15 0 15 0 15 36 c 0,0,1
EndSplineSet
EndChar

StartChar: I
Encoding: 73 73 44
Width: 525
GlyphClass: 2
Flags: W
AnchorPoint: "Anchor-5" 262 619 basechar 0
AnchorPoint: "Anchor-4" 262 0 basechar 0
AnchorPoint: "Anchor-1" 262 0 basechar 0
LayerCount: 2
Fore
SplineSet
71 38 m 0,0,1
 71 75 71 75 110 75 c 2,2,-1
 220 75 l 1,3,-1
 220 535 l 1,4,-1
 110 535 l 2,5,6
 71 535 71 535 71 575 c 0,7,8
 72 611 72 611 109 611 c 2,9,-1
 415 611 l 2,10,11
 452 611 452 611 452 573 c 128,-1,12
 452 535 452 535 414 535 c 2,13,-1
 304 535 l 1,14,-1
 304 75 l 1,15,-1
 414 75 l 2,16,17
 436 75 436 75 444 66 c 128,-1,18
 452 57 452 57 452 37 c 0,19,20
 452 0 452 0 414 0 c 2,21,-1
 108 0 l 2,22,23
 71 0 71 0 71 38 c 0,0,1
EndSplineSet
EndChar

StartChar: J
Encoding: 74 74 45
Width: 525
GlyphClass: 2
Flags: W
AnchorPoint: "Anchor-5" 366 619 basechar 0
AnchorPoint: "Anchor-4" 277 0 basechar 0
LayerCount: 2
Fore
SplineSet
76 100 m 0,0,1
 76 118 76 118 88 130.5 c 128,-1,2
 100 143 100 143 118 143 c 0,3,4
 128 143 128 143 135.5 139.5 c 128,-1,5
 143 136 143 136 147 131.5 c 128,-1,6
 151 127 151 127 154.5 120.5 c 128,-1,7
 158 114 158 114 159 109.5 c 128,-1,8
 160 105 160 105 160 100 c 2,9,-1
 161 96 l 2,10,11
 171 67 171 67 241 67 c 0,12,13
 324 67 324 67 324 136 c 2,14,-1
 324 535 l 1,15,-1
 238 535 l 2,16,17
 201 535 201 535 201 573 c 128,-1,18
 201 611 201 611 240 611 c 2,19,-1
 439 611 l 2,20,21
 480 611 480 611 478 573 c 0,22,23
 478 556 478 556 470.5 547 c 128,-1,24
 463 538 463 538 456.5 536.5 c 128,-1,25
 450 535 450 535 440 535 c 2,26,-1
 407 535 l 1,27,-1
 407 139 l 2,28,29
 407 97 407 97 391.5 66.5 c 128,-1,30
 376 36 376 36 350.5 20.5 c 128,-1,31
 325 5 325 5 298 -1.5 c 128,-1,32
 271 -8 271 -8 241 -8 c 0,33,34
 167 -8 167 -8 121.5 21.5 c 128,-1,35
 76 51 76 51 76 100 c 0,0,1
EndSplineSet
EndChar

StartChar: K
Encoding: 75 75 46
Width: 525
GlyphClass: 2
Flags: W
AnchorPoint: "Anchor-5" 257 619 basechar 0
AnchorPoint: "Anchor-4" 257 0 basechar 0
LayerCount: 2
Fore
SplineSet
19 38 m 0,0,1
 19 75 19 75 58 75 c 2,2,-1
 82 75 l 1,3,-1
 82 535 l 1,4,-1
 57 535 l 2,5,6
 19 535 19 535 19 571 c 0,7,8
 19 611 19 611 59 611 c 2,9,-1
 175 611 l 2,10,11
 213 611 213 611 213 573 c 128,-1,12
 213 535 213 535 173 535 c 2,13,-1
 150 535 l 1,14,-1
 150 302 l 1,15,-1
 334 535 l 1,16,17
 302 538 302 538 302 574 c 0,18,19
 302 611 302 611 342 611 c 2,20,-1
 447 611 l 2,21,22
 456 611 456 611 462.5 610 c 128,-1,23
 469 609 469 609 477 599.5 c 128,-1,24
 485 590 485 590 485 573 c 128,-1,25
 485 556 485 556 478 547 c 128,-1,26
 471 538 471 538 464 536.5 c 128,-1,27
 457 535 457 535 445 535 c 2,28,-1
 436 535 l 2,29,30
 424 535 424 535 421 533.5 c 128,-1,31
 418 532 418 532 410 522 c 2,32,-1
 279 356 l 1,33,-1
 436 75 l 1,34,-1
 456 75 l 2,35,36
 495 75 495 75 495 38 c 0,37,38
 495 20 495 20 486.5 11 c 128,-1,39
 478 2 478 2 470.5 1 c 128,-1,40
 463 0 463 0 450 0 c 2,41,-1
 363 0 l 2,42,43
 325 0 325 0 325 39 c 0,44,45
 323 72 323 72 359 75 c 1,46,-1
 234 298 l 1,47,48
 231 294 231 294 226 288 c 128,-1,49
 221 282 221 282 203 258.5 c 128,-1,50
 185 235 185 235 161 205 c 0,51,52
 150 191 150 191 150 175 c 2,53,-1
 150 75 l 1,54,-1
 173 75 l 2,55,56
 213 75 213 75 213 40 c 0,57,58
 213 0 213 0 174 0 c 2,59,-1
 56 0 l 2,60,61
 19 0 19 0 19 38 c 0,0,1
EndSplineSet
EndChar

StartChar: L
Encoding: 76 76 47
Width: 525
GlyphClass: 2
Flags: W
AnchorPoint: "Anchor-5" 256 619 basechar 0
AnchorPoint: "Anchor-4" 256 0 basechar 0
LayerCount: 2
Fore
SplineSet
24 39 m 0,0,1
 23 55 23 55 31 63.5 c 128,-1,2
 39 72 39 72 46.5 73.5 c 128,-1,3
 54 75 54 75 66 75 c 2,4,-1
 101 75 l 1,5,-1
 101 535 l 1,6,-1
 66 535 l 2,7,8
 54 535 54 535 46.5 536.5 c 128,-1,9
 39 538 39 538 31.5 547 c 128,-1,10
 24 556 24 556 24 573 c 0,11,12
 24 595 24 595 34 603 c 128,-1,13
 44 611 44 611 62 611 c 2,14,-1
 242 611 l 2,15,16
 282 611 282 611 282 575 c 0,17,18
 282 557 282 557 275 547.5 c 128,-1,19
 268 538 268 538 261 536.5 c 128,-1,20
 254 535 254 535 240 535 c 2,21,-1
 185 535 l 1,22,-1
 185 75 l 1,23,-1
 405 75 l 1,24,-1
 405 149 l 2,25,26
 405 165 405 165 412 173.5 c 128,-1,27
 419 182 419 182 425.5 183.5 c 128,-1,28
 432 185 432 185 443 185 c 2,29,-1
 447 185 l 2,30,31
 460 185 460 185 467 184 c 128,-1,32
 474 183 474 183 481.5 174.5 c 128,-1,33
 489 166 489 166 489 149 c 2,34,-1
 489 41 l 2,35,36
 489 28 489 28 487 20.5 c 128,-1,37
 485 13 485 13 475.5 6.5 c 128,-1,38
 466 0 466 0 449 0 c 2,39,-1
 61 0 l 2,40,41
 24 0 24 0 24 39 c 0,0,1
EndSplineSet
EndChar

StartChar: M
Encoding: 77 77 48
Width: 525
GlyphClass: 2
Flags: W
AnchorPoint: "Anchor-5" 262 619 basechar 0
AnchorPoint: "Anchor-4" 262 0 basechar 0
LayerCount: 2
Fore
SplineSet
12 38 m 0,0,1
 12 75 12 75 48 75 c 2,2,-1
 65 75 l 1,3,-1
 65 535 l 1,4,-1
 49 535 l 2,5,6
 12 535 12 535 12 574 c 0,7,8
 12 583 12 583 13.5 589.5 c 128,-1,9
 15 596 15 596 24 603.5 c 128,-1,10
 33 611 33 611 50 611 c 2,11,-1
 129 611 l 2,12,13
 138 611 138 611 145 609.5 c 128,-1,14
 152 608 152 608 157.5 604 c 128,-1,15
 163 600 163 600 166.5 597 c 128,-1,16
 170 594 170 594 173 587.5 c 128,-1,17
 176 581 176 581 177 578 c 128,-1,18
 178 575 178 575 180.5 568 c 128,-1,19
 183 561 183 561 183 560 c 0,20,21
 256 329 256 329 262 274 c 1,22,23
 265 318 265 318 341 561 c 1,24,-1
 343 568 l 2,25,26
 345 574 345 574 345.5 575 c 128,-1,27
 346 576 346 576 348.5 582 c 128,-1,28
 351 588 351 588 352.5 590 c 128,-1,29
 354 592 354 592 357 596.5 c 128,-1,30
 360 601 360 601 363.5 602.5 c 128,-1,31
 367 604 367 604 372 606.5 c 128,-1,32
 377 609 377 609 382.5 610 c 128,-1,33
 388 611 388 611 395 611 c 2,34,-1
 474 611 l 2,35,36
 485 611 485 611 492 609 c 128,-1,37
 499 607 499 607 505.5 597.5 c 128,-1,38
 512 588 512 588 512 571 c 0,39,40
 512 535 512 535 475 535 c 2,41,-1
 459 535 l 1,42,-1
 459 75 l 1,43,-1
 475 75 l 2,44,45
 514 75 514 75 512 38 c 0,46,47
 512 29 512 29 511 22.5 c 128,-1,48
 510 16 510 16 500.5 8 c 128,-1,49
 491 0 491 0 473 0 c 2,50,-1
 375 0 l 2,51,52
 338 0 338 0 338 38 c 0,53,54
 338 75 338 75 374 75 c 2,55,-1
 391 75 l 1,56,-1
 391 515 l 1,57,-1
 390 541 l 1,58,59
 388 514 388 514 367 437 c 128,-1,60
 346 360 346 360 325.5 296.5 c 128,-1,61
 305 233 305 233 302 228 c 0,62,63
 288 204 288 204 262 204 c 0,64,65
 255 204 255 204 248.5 206 c 128,-1,66
 242 208 242 208 238 210 c 128,-1,67
 234 212 234 212 229.5 217.5 c 128,-1,68
 225 223 225 223 222.5 226.5 c 128,-1,69
 220 230 220 230 217 239 c 128,-1,70
 214 248 214 248 212.5 252 c 128,-1,71
 211 256 211 256 207.5 268 c 128,-1,72
 204 280 204 280 202 285 c 0,73,74
 140 481 140 481 133 541 c 1,75,-1
 133 75 l 1,76,-1
 149 75 l 2,77,78
 188 75 188 75 186 38 c 0,79,80
 186 29 186 29 185 22.5 c 128,-1,81
 184 16 184 16 174.5 8 c 128,-1,82
 165 0 165 0 147 0 c 2,83,-1
 50 0 l 2,84,85
 12 0 12 0 12 38 c 0,0,1
EndSplineSet
EndChar

StartChar: N
Encoding: 78 78 49
Width: 525
GlyphClass: 2
Flags: W
AnchorPoint: "Anchor-5" 262 619 basechar 0
AnchorPoint: "Anchor-4" 262 0 basechar 0
LayerCount: 2
Fore
SplineSet
21 36 m 0,0,1
 21 44 21 44 22 49 c 128,-1,2
 23 54 23 54 26 61 c 128,-1,3
 29 68 29 68 38 71.5 c 128,-1,4
 47 75 47 75 61 75 c 2,5,-1
 86 75 l 1,6,-1
 86 535 l 1,7,-1
 60 535 l 2,8,9
 21 535 21 535 21 573 c 128,-1,10
 21 611 21 611 59 611 c 2,11,-1
 150 611 l 2,12,13
 157 611 157 611 163 610 c 128,-1,14
 169 609 169 609 173.5 607 c 128,-1,15
 178 605 178 605 181.5 603 c 128,-1,16
 185 601 185 601 188 597 c 128,-1,17
 191 593 191 593 193 591 c 128,-1,18
 195 589 195 589 197 584.5 c 128,-1,19
 199 580 199 580 199.5 578.5 c 128,-1,20
 200 577 200 577 202 573 c 2,21,-1
 203 569 l 1,22,-1
 325 215 l 2,23,24
 364 97 364 97 369 70 c 1,25,-1
 369 535 l 1,26,-1
 342 535 l 2,27,28
 303 535 303 535 303 573 c 128,-1,29
 303 611 303 611 343 611 c 2,30,-1
 464 611 l 2,31,32
 502 611 502 611 502 575 c 0,33,34
 502 567 502 567 501 562 c 128,-1,35
 500 557 500 557 497 549.5 c 128,-1,36
 494 542 494 542 485 538.5 c 128,-1,37
 476 535 476 535 462 535 c 2,38,-1
 437 535 l 1,39,-1
 437 38 l 2,40,41
 437 0 437 0 398 0 c 2,42,-1
 375 0 l 2,43,44
 367 0 367 0 361 0.5 c 128,-1,45
 355 1 355 1 350 3.5 c 128,-1,46
 345 6 345 6 341.5 8 c 128,-1,47
 338 10 338 10 334 15.5 c 128,-1,48
 330 21 330 21 328 24 c 128,-1,49
 326 27 326 27 322 36.5 c 128,-1,50
 318 46 318 46 316.5 51 c 128,-1,51
 315 56 315 56 310.5 69.5 c 128,-1,52
 306 83 306 83 303 90 c 2,53,-1
 205 374 l 2,54,55
 162 504 162 504 154 541 c 1,56,-1
 154 75 l 1,57,-1
 182 75 l 2,58,59
 220 75 220 75 220 40 c 0,60,61
 220 0 220 0 180 0 c 2,62,-1
 59 0 l 2,63,64
 21 0 21 0 21 36 c 0,0,1
EndSplineSet
EndChar

StartChar: O
Encoding: 79 79 50
Width: 525
GlyphClass: 2
Flags: W
AnchorPoint: "Anchor-5" 261 619 basechar 0
AnchorPoint: "Anchor-4" 256 0 basechar 0
AnchorPoint: "Anchor-1" 256 0 basechar 0
LayerCount: 2
Fore
SplineSet
56 275 m 2,0,-1
 56 313 l 2,1,2
 56 431 56 431 63 492.5 c 128,-1,3
 70 554 70 554 91 579 c 0,4,5
 124 619 124 619 246 619 c 2,6,-1
 261 619 l 2,7,8
 386 619 386 619 421.5 590.5 c 128,-1,9
 457 562 457 562 465 453 c 0,10,11
 468 416 468 416 468 305 c 0,12,13
 468 225 468 225 466.5 179.5 c 128,-1,14
 465 134 465 134 456.5 94.5 c 128,-1,15
 448 55 448 55 437 38 c 128,-1,16
 426 21 426 21 399.5 8.5 c 128,-1,17
 373 -4 373 -4 344.5 -6 c 128,-1,18
 316 -8 316 -8 264 -8 c 2,19,-1
 249 -8 l 2,20,21
 154 -8 154 -8 119 10.5 c 128,-1,22
 84 29 84 29 72 75 c 0,23,24
 56 137 56 137 56 275 c 2,0,-1
140 316 m 2,25,26
 140 267 140 267 140.5 241 c 128,-1,27
 141 215 141 215 142.5 184 c 128,-1,28
 144 153 144 153 147 139.5 c 128,-1,29
 150 126 150 126 156.5 109 c 128,-1,30
 163 92 163 92 171 86.5 c 128,-1,31
 179 81 179 81 193 75 c 128,-1,32
 207 69 207 69 223 68 c 128,-1,33
 239 67 239 67 263 67 c 0,34,35
 299 67 299 67 320 72.5 c 128,-1,36
 341 78 341 78 354.5 89 c 128,-1,37
 368 100 368 100 373.5 124.5 c 128,-1,38
 379 149 379 149 381 179 c 128,-1,39
 383 209 383 209 384 260 c 0,40,41
 384 268 384 268 384 272 c 2,42,-1
 384 330 l 2,43,44
 384 382 384 382 383 412.5 c 128,-1,45
 382 443 382 443 377.5 470 c 128,-1,46
 373 497 373 497 366 509 c 128,-1,47
 359 521 359 521 345 530.5 c 128,-1,48
 331 540 331 540 314 542 c 128,-1,49
 297 544 297 544 269 544 c 0,50,51
 236 544 236 544 218.5 542.5 c 128,-1,52
 201 541 201 541 183.5 532.5 c 128,-1,53
 166 524 166 524 159.5 512.5 c 128,-1,54
 153 501 153 501 147.5 473 c 128,-1,55
 142 445 142 445 141 412.5 c 128,-1,56
 140 380 140 380 140 323 c 2,57,-1
 140 316 l 2,25,26
EndSplineSet
EndChar

StartChar: P
Encoding: 80 80 51
Width: 525
GlyphClass: 2
Flags: W
AnchorPoint: "Anchor-5" 214 619 basechar 0
AnchorPoint: "Anchor-4" 214 0 basechar 0
LayerCount: 2
Fore
SplineSet
18 38 m 0,0,1
 18 75 18 75 57 75 c 2,2,-1
 89 75 l 1,3,-1
 89 535 l 1,4,-1
 57 535 l 2,5,6
 18 535 18 535 18 572 c 0,7,8
 18 611 18 611 55 611 c 2,9,-1
 289 611 l 2,10,11
 343 611 343 611 382.5 593 c 128,-1,12
 422 575 422 575 442 545 c 128,-1,13
 462 515 462 515 471 484 c 128,-1,14
 480 453 480 453 480 421 c 0,15,16
 480 387 480 387 471 356.5 c 128,-1,17
 462 326 462 326 441.5 296 c 128,-1,18
 421 266 421 266 380.5 248 c 128,-1,19
 340 230 340 230 285 230 c 2,20,-1
 173 230 l 1,21,-1
 173 75 l 1,22,-1
 205 75 l 2,23,24
 243 75 243 75 243 40 c 0,25,26
 243 29 243 29 242 22.5 c 128,-1,27
 241 16 241 16 231.5 8 c 128,-1,28
 222 0 222 0 203 0 c 2,29,-1
 57 0 l 2,30,31
 18 0 18 0 18 38 c 0,0,1
173 305 m 1,32,-1
 267 305 l 2,33,34
 339 305 339 305 368 340.5 c 128,-1,35
 397 376 397 376 397 420 c 0,36,37
 397 438 397 438 392 455.5 c 128,-1,38
 387 473 387 473 374 492.5 c 128,-1,39
 361 512 361 512 333 523.5 c 128,-1,40
 305 535 305 535 265 535 c 2,41,-1
 173 535 l 1,42,-1
 173 305 l 1,32,-1
EndSplineSet
EndChar

StartChar: Q
Encoding: 81 81 52
Width: 525
GlyphClass: 2
Flags: W
AnchorPoint: "Anchor-5" 262 619 basechar 0
AnchorPoint: "Anchor-4" 262 -222 basechar 0
LayerCount: 2
Fore
SplineSet
56 284 m 2,0,-1
 56 337 l 2,1,2
 57 408 57 408 58.5 446.5 c 128,-1,3
 60 485 60 485 68 522 c 128,-1,4
 76 559 76 559 87 574 c 128,-1,5
 98 589 98 589 122.5 601.5 c 128,-1,6
 147 614 147 614 176 616.5 c 128,-1,7
 205 619 205 619 255 619 c 2,8,-1
 270 619 l 2,9,10
 309 619 309 619 331.5 617.5 c 128,-1,11
 354 616 354 616 386.5 606 c 128,-1,12
 419 596 419 596 434 577 c 0,13,14
 468 533 468 533 468 333 c 2,15,-1
 468 292 l 2,16,17
 468 177 468 177 460 118 c 128,-1,18
 452 59 452 59 437.5 38.5 c 128,-1,19
 423 18 423 18 394 6 c 1,20,21
 403 -11 403 -11 412 -29 c 128,-1,22
 421 -47 421 -47 426.5 -57.5 c 128,-1,23
 432 -68 432 -68 437.5 -78.5 c 128,-1,24
 443 -89 443 -89 445.5 -94.5 c 128,-1,25
 448 -100 448 -100 450 -105.5 c 128,-1,26
 452 -111 452 -111 453 -114 c 128,-1,27
 454 -117 454 -117 454 -119 c 0,28,29
 454 -139 454 -139 427 -139 c 2,30,-1
 394 -139 l 2,31,32
 378 -139 378 -139 370.5 -134.5 c 128,-1,33
 363 -130 363 -130 356 -115 c 0,34,35
 338 -78 338 -78 325.5 -53 c 128,-1,36
 313 -28 313 -28 309 -20 c 128,-1,37
 305 -12 305 -12 303 -8 c 1,38,-1
 249 -8 l 2,39,40
 192 -8 192 -8 157.5 -2 c 128,-1,41
 123 4 123 4 103.5 20.5 c 128,-1,42
 84 37 84 37 76.5 57 c 128,-1,43
 69 77 69 77 64 113 c 0,44,45
 56 167 56 167 56 284 c 2,0,-1
140 304 m 2,46,47
 140 244 140 244 141 212.5 c 128,-1,48
 142 181 142 181 146 150 c 128,-1,49
 150 119 150 119 156.5 106 c 128,-1,50
 163 93 163 93 177 82.5 c 128,-1,51
 191 72 191 72 209 69.5 c 128,-1,52
 227 67 227 67 256 67 c 2,53,-1
 266 67 l 1,54,55
 258 84 258 84 247 105.5 c 128,-1,56
 236 127 236 127 232 136 c 128,-1,57
 228 145 228 145 228 151 c 0,58,59
 228 171 228 171 257 171 c 2,60,-1
 294 171 l 2,61,62
 306 170 306 170 310.5 164.5 c 128,-1,63
 315 159 315 159 337 116 c 0,64,65
 347 98 347 98 353 86 c 1,66,67
 363 96 363 96 369 108.5 c 128,-1,68
 375 121 375 121 379.5 162.5 c 128,-1,69
 384 204 384 204 384 275 c 2,70,-1
 384 332 l 2,71,72
 384 387 384 387 382.5 421 c 128,-1,73
 381 455 381 455 373.5 480.5 c 128,-1,74
 366 506 366 506 360 517.5 c 128,-1,75
 354 529 354 529 335 535.5 c 128,-1,76
 316 542 316 542 301 543 c 128,-1,77
 286 544 286 544 252 544 c 0,78,79
 212 544 212 544 192 538.5 c 128,-1,80
 172 533 172 533 159.5 509.5 c 128,-1,81
 147 486 147 486 144 452 c 128,-1,82
 141 418 141 418 140 348 c 2,83,-1
 140 304 l 2,46,47
EndSplineSet
EndChar

StartChar: R
Encoding: 82 82 53
Width: 525
GlyphClass: 2
Flags: W
AnchorPoint: "Anchor-5" 214 619 basechar 0
AnchorPoint: "Anchor-4" 214 0 basechar 0
LayerCount: 2
Fore
SplineSet
15 36 m 0,0,1
 15 47 15 47 16 53 c 128,-1,2
 17 59 17 59 26.5 67 c 128,-1,3
 36 75 36 75 55 75 c 2,4,-1
 80 75 l 1,5,-1
 80 535 l 1,6,-1
 54 535 l 2,7,8
 15 535 15 535 15 573 c 128,-1,9
 15 611 15 611 54 611 c 2,10,-1
 237 611 l 2,11,12
 338 611 338 611 385.5 559.5 c 128,-1,13
 433 508 433 508 433 439 c 0,14,15
 433 345 433 345 360 299 c 1,16,-1
 364 294 l 2,17,18
 369 290 369 290 370 288.5 c 128,-1,19
 371 287 371 287 375.5 281.5 c 128,-1,20
 380 276 380 276 382 273 c 128,-1,21
 384 270 384 270 388 263.5 c 128,-1,22
 392 257 392 257 394 252 c 128,-1,23
 396 247 396 247 398.5 239.5 c 128,-1,24
 401 232 401 232 402.5 224.5 c 128,-1,25
 404 217 404 217 405 208 c 128,-1,26
 406 199 406 199 406 189 c 2,27,-1
 406 133 l 2,28,29
 406 95 406 95 412 82.5 c 128,-1,30
 418 70 418 70 432 67 c 1,31,32
 435 75 435 75 437 95 c 128,-1,33
 439 115 439 115 448 123 c 128,-1,34
 457 131 457 131 481 131 c 0,35,36
 522 131 522 131 522 95 c 0,37,38
 522 56 522 56 497.5 24 c 128,-1,39
 473 -8 473 -8 432 -8 c 0,40,41
 389 -8 389 -8 355.5 23 c 128,-1,42
 322 54 322 54 322 131 c 2,43,-1
 322 205 l 2,44,45
 321 216 321 216 314.5 228.5 c 128,-1,46
 308 241 308 241 287 254.5 c 128,-1,47
 266 268 266 268 234 268 c 2,48,-1
 164 268 l 1,49,-1
 164 75 l 1,50,-1
 192 75 l 2,51,52
 230 75 230 75 230 40 c 0,53,54
 230 0 230 0 190 0 c 2,55,-1
 54 0 l 2,56,57
 15 0 15 0 15 36 c 0,0,1
164 343 m 1,58,-1
 224 343 l 2,59,60
 293 343 293 343 321 372.5 c 128,-1,61
 349 402 349 402 349 439 c 0,62,63
 349 477 349 477 321.5 506.5 c 128,-1,64
 294 536 294 536 224 536 c 0,65,66
 222 536 222 536 219 535.5 c 128,-1,67
 216 535 216 535 215 535 c 2,68,-1
 164 535 l 1,69,-1
 164 343 l 1,58,-1
EndSplineSet
EndChar

StartChar: S
Encoding: 83 83 54
Width: 525
GlyphClass: 2
Flags: W
AnchorPoint: "Anchor-5" 236 619 basechar 0
AnchorPoint: "Anchor-4" 285 0 basechar 0
LayerCount: 2
Fore
SplineSet
52 30 m 2,0,-1
 52 167 l 2,1,2
 53 203 53 203 90 203 c 0,3,4
 116 203 116 203 126 195 c 128,-1,5
 136 187 136 187 135.5 175 c 128,-1,6
 135 163 135 163 140 144 c 128,-1,7
 145 125 145 125 159 109 c 0,8,9
 199 67 199 67 284 67 c 0,10,11
 342 67 342 67 367 97 c 128,-1,12
 392 127 392 127 392 165 c 0,13,14
 392 200 392 200 374.5 222 c 128,-1,15
 357 244 357 244 338 253 c 0,16,17
 322 261 322 261 249.5 277.5 c 128,-1,18
 177 294 177 294 159 301 c 0,19,20
 120 317 120 317 86 355 c 128,-1,21
 52 393 52 393 52 454 c 0,22,23
 52 520 52 520 99 569.5 c 128,-1,24
 146 619 146 619 236 619 c 0,25,26
 316 619 316 619 372 578 c 1,27,28
 385 609 385 609 395 615 c 0,29,30
 402 619 402 619 413 619 c 0,31,32
 445 619 445 619 445 581 c 2,33,-1
 445 444 l 2,34,35
 445 434 445 434 443.5 427.5 c 128,-1,36
 442 421 442 421 433 414 c 128,-1,37
 424 407 424 407 407 407 c 2,38,-1
 397 407 l 2,39,40
 370 407 370 407 363 429 c 0,41,42
 363 430 363 430 360.5 441.5 c 128,-1,43
 358 453 358 453 355.5 464.5 c 128,-1,44
 353 476 353 476 344 491 c 128,-1,45
 335 506 335 506 322.5 517 c 128,-1,46
 310 528 310 528 287 536 c 128,-1,47
 264 544 264 544 235 544 c 0,48,49
 180 544 180 544 156 517.5 c 128,-1,50
 132 491 132 491 132 458 c 0,51,52
 132 427 132 427 153.5 405 c 128,-1,53
 175 383 175 383 201 375 c 0,54,55
 222 368 222 368 254 361.5 c 128,-1,56
 286 355 286 355 309.5 349.5 c 128,-1,57
 333 344 333 344 358.5 335 c 128,-1,58
 384 326 384 326 405.5 308.5 c 128,-1,59
 427 291 427 291 443 266 c 0,60,61
 472 222 472 222 472 170 c 0,62,63
 472 96 472 96 424 44 c 128,-1,64
 376 -8 376 -8 285 -8 c 0,65,66
 191 -8 191 -8 126 32 c 1,67,68
 125 30 125 30 122 23.5 c 128,-1,69
 119 17 119 17 117.5 14 c 128,-1,70
 116 11 116 11 112.5 6 c 128,-1,71
 109 1 109 1 105.5 -1.5 c 128,-1,72
 102 -4 102 -4 96.5 -6 c 128,-1,73
 91 -8 91 -8 84 -8 c 0,74,75
 52 -8 52 -8 52 30 c 2,0,-1
EndSplineSet
EndChar

StartChar: T
Encoding: 84 84 55
Width: 525
GlyphClass: 2
Flags: W
AnchorPoint: "Anchor-5" 262 619 basechar 0
AnchorPoint: "Anchor-4" 262 0 basechar 0
LayerCount: 2
Fore
SplineSet
26 480 m 2,0,-1
 26 573 l 2,1,2
 26 611 26 611 64 611 c 2,3,-1
 461 611 l 2,4,5
 479 611 479 611 488 601.5 c 128,-1,6
 497 592 497 592 497.5 586 c 128,-1,7
 498 580 498 580 498 568 c 2,8,-1
 498 483 l 2,9,10
 498 441 498 441 461 441 c 2,11,-1
 455 441 l 2,12,13
 437 441 437 441 427.5 447.5 c 128,-1,14
 418 454 418 454 416 461 c 128,-1,15
 414 468 414 468 414 481 c 2,16,-1
 414 535 l 1,17,-1
 304 535 l 1,18,-1
 304 75 l 1,19,-1
 357 75 l 2,20,21
 396 75 396 75 396 38 c 0,22,23
 396 15 396 15 386 7.5 c 128,-1,24
 376 0 376 0 358 0 c 2,25,-1
 166 0 l 2,26,27
 127 0 127 0 128 38 c 0,28,29
 128 55 128 55 135 63.5 c 128,-1,30
 142 72 142 72 149 73.5 c 128,-1,31
 156 75 156 75 167 75 c 2,32,-1
 220 75 l 1,33,-1
 220 535 l 1,34,-1
 110 535 l 1,35,-1
 110 481 l 2,36,37
 110 456 110 456 99.5 448.5 c 128,-1,38
 89 441 89 441 66 441 c 2,39,-1
 63 441 l 2,40,41
 26 441 26 441 26 480 c 2,0,-1
EndSplineSet
EndChar

StartChar: U
Encoding: 85 85 56
Width: 525
GlyphClass: 2
Flags: W
AnchorPoint: "Anchor-5" 262 619 basechar 0
AnchorPoint: "Anchor-4" 263 0 basechar 0
AnchorPoint: "Anchor-1" 263 0 basechar 0
LayerCount: 2
Fore
SplineSet
-3 573 m 0,0,1
 -4 611 -4 611 36 611 c 2,2,-1
 183 611 l 2,3,4
 222 611 222 611 222 575 c 0,5,6
 222 566 222 566 221 561 c 128,-1,7
 220 556 220 556 217 549 c 128,-1,8
 214 542 214 542 205 538.5 c 128,-1,9
 196 535 196 535 182 535 c 2,10,-1
 152 535 l 1,11,-1
 152 212 l 2,12,13
 152 131 152 131 185.5 99 c 128,-1,14
 219 67 219 67 263 67 c 0,15,16
 282 67 282 67 299.5 73 c 128,-1,17
 317 79 317 79 335 93.5 c 128,-1,18
 353 108 353 108 363.5 139 c 128,-1,19
 374 170 374 170 374 214 c 2,20,-1
 374 535 l 1,21,-1
 342 535 l 2,22,23
 303 535 303 535 303 573 c 128,-1,24
 303 611 303 611 341 611 c 2,25,-1
 489 611 l 2,26,27
 528 611 528 611 528 573 c 0,28,29
 528 556 528 556 520.5 547 c 128,-1,30
 513 538 513 538 506.5 536.5 c 128,-1,31
 500 535 500 535 490 535 c 2,32,-1
 457 535 l 1,33,-1
 457 215 l 2,34,35
 457 162 457 162 443.5 120.5 c 128,-1,36
 430 79 430 79 409.5 55.5 c 128,-1,37
 389 32 389 32 361.5 17 c 128,-1,38
 334 2 334 2 310.5 -3 c 128,-1,39
 287 -8 287 -8 263 -8 c 0,40,41
 231 -8 231 -8 200.5 1.5 c 128,-1,42
 170 11 170 11 138.5 33.5 c 128,-1,43
 107 56 107 56 87.5 102.5 c 128,-1,44
 68 149 68 149 68 214 c 2,45,-1
 68 535 l 1,46,-1
 35 535 l 2,47,48
 -4 535 -4 535 -3 573 c 0,0,1
EndSplineSet
EndChar

StartChar: V
Encoding: 86 86 57
Width: 525
GlyphClass: 2
Flags: W
AnchorPoint: "Anchor-5" 261 619 basechar 0
AnchorPoint: "Anchor-4" 264 0 basechar 0
LayerCount: 2
Fore
SplineSet
18 573 m 0,0,1
 18 595 18 595 28 603 c 128,-1,2
 38 611 38 611 56 611 c 2,3,-1
 180 611 l 2,4,5
 219 611 219 611 217 573 c 0,6,7
 217 535 217 535 181 535 c 2,8,-1
 163 535 l 1,9,-1
 231 245 l 1,10,-1
 249 161 l 1,11,-1
 260 96 l 1,12,-1
 262 70 l 1,13,14
 263 107 263 107 282.5 198.5 c 128,-1,15
 302 290 302 290 330.5 407.5 c 128,-1,16
 359 525 359 525 361 535 c 1,17,-1
 344 535 l 2,18,19
 305 535 305 535 307 573 c 0,20,21
 306 591 306 591 316 601 c 128,-1,22
 326 611 326 611 344 611 c 2,23,-1
 468 611 l 2,24,25
 506 611 506 611 506 575 c 0,26,27
 506 567 506 567 505 562 c 128,-1,28
 504 557 504 557 501 549.5 c 128,-1,29
 498 542 498 542 489 538.5 c 128,-1,30
 480 535 480 535 466 535 c 2,31,-1
 447 535 l 1,32,-1
 326 39 l 2,33,34
 318 7 318 7 301 -1 c 0,35,36
 292 -5 292 -5 280 -5 c 2,37,-1
 247 -5 l 2,38,39
 233 -5 233 -5 224 -1.5 c 128,-1,40
 215 2 215 2 209.5 10 c 128,-1,41
 204 18 204 18 202.5 22.5 c 128,-1,42
 201 27 201 27 198 38 c 2,43,-1
 88 488 l 2,44,45
 79 523 79 523 77 535 c 1,46,-1
 56 535 l 2,47,48
 18 535 18 535 18 573 c 0,0,1
EndSplineSet
EndChar

StartChar: W
Encoding: 87 87 58
Width: 525
GlyphClass: 2
Flags: W
AnchorPoint: "Anchor-5" 261 619 basechar 0
AnchorPoint: "Anchor-4" 261 0 basechar 0
LayerCount: 2
Fore
SplineSet
11 574 m 0,0,1
 11 584 11 584 12.5 590.5 c 128,-1,2
 14 597 14 597 23 604 c 128,-1,3
 32 611 32 611 49 611 c 2,4,-1
 147 611 l 2,5,6
 183 611 183 611 183 572 c 0,7,8
 184 535 184 535 146 535 c 2,9,-1
 118 535 l 1,10,-1
 156 237 l 1,11,-1
 168 123 l 1,12,-1
 170 92 l 1,13,-1
 171 70 l 1,14,15
 172 118 172 118 183 185.5 c 128,-1,16
 194 253 194 253 204 297 c 2,17,-1
 215 341 l 2,18,19
 225 367 225 367 258 367 c 2,20,-1
 263 367 l 2,21,22
 297 367 297 367 308 342 c 0,23,24
 314 328 314 328 331.5 237 c 128,-1,25
 349 146 349 146 352 99 c 0,26,27
 352 94 352 94 352 84.5 c 128,-1,28
 352 75 352 75 353 70 c 1,29,30
 357 144 357 144 364.5 215.5 c 128,-1,31
 372 287 372 287 386.5 396.5 c 128,-1,32
 401 506 401 506 405 535 c 1,33,-1
 378 535 l 2,34,35
 341 535 341 535 341 572 c 0,36,37
 341 594 341 594 351 602.5 c 128,-1,38
 361 611 361 611 387 611 c 2,39,-1
 474 611 l 2,40,41
 483 611 483 611 489.5 610 c 128,-1,42
 496 609 496 609 504 599.5 c 128,-1,43
 512 590 512 590 512 572 c 0,44,45
 514 535 514 535 473 535 c 1,46,47
 470 515 470 515 465 475 c 128,-1,48
 460 435 460 435 457 415 c 2,49,-1
 407 35 l 2,50,51
 405 17 405 17 396.5 7.5 c 128,-1,52
 388 -2 388 -2 380.5 -3.5 c 128,-1,53
 373 -5 373 -5 361 -5 c 2,54,-1
 355 -5 l 2,55,56
 347 -5 347 -5 341.5 -4 c 128,-1,57
 336 -3 336 -3 331 -0.5 c 128,-1,58
 326 2 326 2 322.5 5 c 128,-1,59
 319 8 319 8 316 14.5 c 128,-1,60
 313 21 313 21 311 26 c 128,-1,61
 309 31 309 31 306 42.5 c 128,-1,62
 303 54 303 54 301.5 62 c 128,-1,63
 300 70 300 70 297 86.5 c 128,-1,64
 294 103 294 103 291 115 c 0,65,66
 266 229 266 229 261 297 c 1,67,68
 260 265 260 265 247.5 196.5 c 128,-1,69
 235 128 235 128 223 75 c 2,70,-1
 211 22 l 2,71,72
 201 -5 201 -5 168 -5 c 2,73,-1
 162 -5 l 2,74,75
 150 -5 150 -5 142.5 -3 c 128,-1,76
 135 -1 135 -1 127 8 c 128,-1,77
 119 17 119 17 117 35 c 2,78,-1
 50 535 l 1,79,80
 40 535 40 535 33 536.5 c 128,-1,81
 26 538 26 538 18.5 547.5 c 128,-1,82
 11 557 11 557 11 574 c 0,0,1
EndSplineSet
EndChar

StartChar: X
Encoding: 88 88 59
Width: 525
GlyphClass: 2
Flags: W
AnchorPoint: "Anchor-5" 261 619 basechar 0
AnchorPoint: "Anchor-4" 261 0 basechar 0
LayerCount: 2
Fore
SplineSet
27 38 m 0,0,1
 26 75 26 75 66 75 c 2,2,-1
 95 75 l 1,3,-1
 215 327 l 1,4,-1
 107 535 l 1,5,-1
 78 535 l 2,6,7
 38 535 38 535 38 571 c 0,8,9
 38 596 38 596 49 603.5 c 128,-1,10
 60 611 60 611 88 611 c 2,11,-1
 200 611 l 2,12,13
 211 611 211 611 218 609.5 c 128,-1,14
 225 608 225 608 232 599 c 128,-1,15
 239 590 239 590 239 572 c 0,16,17
 240 557 240 557 232 546 c 128,-1,18
 224 535 224 535 201 535 c 1,19,-1
 257 426 l 1,20,-1
 307 535 l 1,21,22
 287 535 287 535 277.5 543 c 128,-1,23
 268 551 268 551 267 557 c 128,-1,24
 266 563 266 563 266 574 c 0,25,26
 266 611 266 611 303 611 c 2,27,-1
 428 611 l 2,28,29
 438 611 438 611 444.5 609.5 c 128,-1,30
 451 608 451 608 458.5 599 c 128,-1,31
 466 590 466 590 466 573 c 0,32,33
 466 535 466 535 427 535 c 2,34,-1
 398 535 l 1,35,-1
 298 326 l 1,36,-1
 426 75 l 1,37,-1
 453 75 l 2,38,39
 476 75 476 75 485.5 67.5 c 128,-1,40
 495 60 495 60 495 37 c 0,41,42
 495 0 495 0 458 0 c 2,43,-1
 334 0 l 2,44,45
 323 0 323 0 316 1.5 c 128,-1,46
 309 3 309 3 302 12.5 c 128,-1,47
 295 22 295 22 295 39 c 0,48,49
 295 75 295 75 335 75 c 1,50,-1
 256 237 l 1,51,-1
 185 75 l 1,52,53
 199 75 199 75 206 73.5 c 128,-1,54
 213 72 213 72 220 63.5 c 128,-1,55
 227 55 227 55 227 37 c 0,56,57
 229 0 229 0 191 0 c 2,58,-1
 65 0 l 2,59,60
 25 0 25 0 27 38 c 0,0,1
EndSplineSet
EndChar

StartChar: Y
Encoding: 89 89 60
Width: 525
GlyphClass: 2
Flags: W
AnchorPoint: "Anchor-5" 262 619 basechar 0
AnchorPoint: "Anchor-4" 262 0 basechar 0
LayerCount: 2
Fore
SplineSet
19 571 m 0,0,1
 19 611 19 611 57 611 c 2,2,-1
 183 611 l 2,3,4
 219 611 219 611 219 573 c 128,-1,5
 219 535 219 535 182 535 c 2,6,-1
 178 535 l 1,7,-1
 235 405 l 1,8,-1
 250 364 l 1,9,-1
 259 332 l 1,10,-1
 262 314 l 1,11,-1
 264 326 l 1,12,13
 282 392 282 392 346 535 c 1,14,15
 331 535 331 535 321.5 539 c 128,-1,16
 312 543 312 543 309 551 c 128,-1,17
 306 559 306 559 305.5 562.5 c 128,-1,18
 305 566 305 566 305 574 c 0,19,20
 303 611 303 611 342 611 c 2,21,-1
 467 611 l 2,22,23
 505 611 505 611 505 573 c 128,-1,24
 505 535 505 535 466 535 c 2,25,-1
 439 535 l 1,26,-1
 311 259 l 1,27,-1
 305 244 l 1,28,-1
 304 223 l 1,29,-1
 304 75 l 1,30,-1
 331 75 l 2,31,32
 369 75 369 75 369 40 c 0,33,34
 369 0 369 0 330 0 c 2,35,-1
 194 0 l 2,36,37
 155 0 155 0 155 36 c 0,38,39
 155 47 155 47 156 53 c 128,-1,40
 157 59 157 59 166.5 67 c 128,-1,41
 176 75 176 75 195 75 c 2,42,-1
 220 75 l 1,43,-1
 220 223 l 1,44,-1
 219 244 l 1,45,-1
 86 535 l 1,46,-1
 57 535 l 2,47,48
 19 535 19 535 19 571 c 0,0,1
EndSplineSet
EndChar

StartChar: Z
Encoding: 90 90 61
Width: 525
GlyphClass: 2
Flags: W
AnchorPoint: "Anchor-5" 264 619 basechar 0
AnchorPoint: "Anchor-4" 264 0 basechar 0
LayerCount: 2
Fore
SplineSet
47 40 m 0,0,1
 47 46 47 46 47.5 51 c 128,-1,2
 48 56 48 56 48.5 59 c 128,-1,3
 49 62 49 62 52.5 67 c 128,-1,4
 56 72 56 72 57 74.5 c 128,-1,5
 58 77 58 77 64.5 86 c 128,-1,6
 71 95 71 95 74 100 c 2,7,-1
 367 535 l 1,8,-1
 143 535 l 1,9,-1
 143 477 l 2,10,11
 144 441 144 441 104 441 c 2,12,-1
 97 441 l 2,13,14
 87 441 87 441 80.5 442.5 c 128,-1,15
 74 444 74 444 66.5 453 c 128,-1,16
 59 462 59 462 59 479 c 2,17,-1
 59 574 l 2,18,19
 59 584 59 584 61 591 c 128,-1,20
 63 598 63 598 72 604.5 c 128,-1,21
 81 611 81 611 98 611 c 2,22,-1
 437 611 l 2,23,24
 455 611 455 611 464.5 604 c 128,-1,25
 474 597 474 597 475.5 590 c 128,-1,26
 477 583 477 583 477 572 c 0,27,28
 477 551 477 551 467 536 c 2,29,-1
 157 75 l 1,30,-1
 397 75 l 1,31,-1
 397 150 l 2,32,33
 397 174 397 174 408 181.5 c 128,-1,34
 419 189 419 189 440 189 c 0,35,36
 452 189 452 189 459.5 187.5 c 128,-1,37
 467 186 467 186 474 176.5 c 128,-1,38
 481 167 481 167 481 150 c 2,39,-1
 481 38 l 2,40,41
 481 0 481 0 443 0 c 2,42,-1
 83 0 l 2,43,44
 47 1 47 1 47 40 c 0,0,1
EndSplineSet
EndChar

StartChar: bracketleft
Encoding: 91 91 62
Width: 525
GlyphClass: 2
Flags: W
LayerCount: 2
Fore
SplineSet
209 -48 m 2,0,-1
 209 655 l 2,1,2
 209 677 209 677 218.5 685.5 c 128,-1,3
 228 694 228 694 247 694 c 2,4,-1
 445 694 l 2,5,6
 484 694 484 694 484 658 c 0,7,8
 484 632 484 632 473.5 625.5 c 128,-1,9
 463 619 463 619 439 619 c 2,10,-1
 293 619 l 1,11,-1
 293 -8 l 1,12,-1
 439 -8 l 2,13,14
 451 -8 451 -8 457 -8.5 c 128,-1,15
 463 -9 463 -9 470.5 -12.5 c 128,-1,16
 478 -16 478 -16 481 -24.5 c 128,-1,17
 484 -33 484 -33 484 -47 c 0,18,19
 484 -83 484 -83 447 -83 c 2,20,-1
 247 -83 l 2,21,22
 209 -83 209 -83 209 -48 c 2,0,-1
EndSplineSet
EndChar

StartChar: backslash
Encoding: 92 92 63
Width: 525
GlyphClass: 2
Flags: W
LayerCount: 2
Fore
SplineSet
58 657 m 0,0,1
 58 673 58 673 70 683.5 c 128,-1,2
 82 694 82 694 96 694 c 0,3,4
 120 694 120 694 135 662 c 2,5,-1
 457 -18 l 2,6,7
 466 -36 466 -36 466 -46 c 0,8,9
 466 -60 466 -60 455 -71.5 c 128,-1,10
 444 -83 444 -83 428 -83 c 0,11,12
 403 -83 403 -83 388 -50 c 2,13,-1
 66 631 l 2,14,15
 58 645 58 645 58 657 c 0,0,1
EndSplineSet
EndChar

StartChar: bracketright
Encoding: 93 93 64
Width: 525
GlyphClass: 2
Flags: W
LayerCount: 2
Fore
SplineSet
40 -45 m 0,0,1
 40 -8 40 -8 79 -8 c 2,2,-1
 232 -8 l 1,3,-1
 232 619 l 1,4,-1
 79 619 l 2,5,6
 68 619 68 619 61 620.5 c 128,-1,7
 54 622 54 622 47 630.5 c 128,-1,8
 40 639 40 639 40 655 c 0,9,10
 40 679 40 679 50.5 686.5 c 128,-1,11
 61 694 61 694 79 694 c 2,12,-1
 278 694 l 2,13,14
 315 694 315 694 315 659 c 2,15,-1
 315 -38 l 2,16,17
 315 -39 315 -39 315.5 -41 c 128,-1,18
 316 -43 316 -43 316 -44 c 0,19,20
 316 -66 316 -66 306.5 -74.5 c 128,-1,21
 297 -83 297 -83 278 -83 c 2,22,-1
 80 -83 l 2,23,24
 40 -83 40 -83 40 -45 c 0,0,1
EndSplineSet
EndChar

StartChar: asciicircum
Encoding: 94 94 65
Width: 525
GlyphClass: 2
Flags: W
LayerCount: 2
Fore
SplineSet
72 476 m 0,0,1
 72 490 72 490 80 497 c 128,-1,2
 88 504 88 504 105 510 c 0,3,4
 256 569 256 569 261 569 c 2,5,-1
 262 569 l 2,6,7
 266 569 266 569 422 508 c 0,8,9
 451 498 451 498 451 476 c 0,10,11
 451 465 451 465 442 445 c 128,-1,12
 433 425 433 425 413 425 c 2,13,-1
 411 425 l 2,14,15
 402 425 402 425 334 455 c 128,-1,16
 266 485 266 485 264 485 c 0,17,18
 255 485 255 485 188.5 455 c 128,-1,19
 122 425 122 425 111 425 c 0,20,21
 92 425 92 425 82 445 c 128,-1,22
 72 465 72 465 72 476 c 0,0,1
EndSplineSet
EndChar

StartChar: underscore
Encoding: 95 95 66
Width: 525
GlyphClass: 2
Flags: W
LayerCount: 2
Fore
SplineSet
56 -72 m 0,0,1
 56 -64 56 -64 59 -55.5 c 128,-1,2
 62 -47 62 -47 73.5 -38.5 c 128,-1,3
 85 -30 85 -30 105 -30 c 2,4,-1
 419 -30 l 2,5,6
 438 -30 438 -30 450 -38.5 c 128,-1,7
 462 -47 462 -47 465 -55.5 c 128,-1,8
 468 -64 468 -64 468 -72 c 128,-1,9
 468 -80 468 -80 465 -88 c 128,-1,10
 462 -96 462 -96 450.5 -105 c 128,-1,11
 439 -114 439 -114 419 -114 c 2,12,-1
 105 -114 l 2,13,14
 77 -114 77 -114 66.5 -100 c 128,-1,15
 56 -86 56 -86 56 -72 c 0,0,1
EndSplineSet
EndChar

StartChar: grave
Encoding: 96 96 67
Width: 525
GlyphClass: 2
Flags: W
LayerCount: 2
Fore
SplineSet
110 599 m 0,0,1
 110 615 110 615 122 628 c 128,-1,2
 134 641 134 641 152 641 c 2,3,-1
 153 641 l 2,4,5
 158 641 158 641 290 610 c 0,6,7
 294 609 294 609 299.5 607.5 c 128,-1,8
 305 606 305 606 314 598 c 128,-1,9
 323 590 323 590 323 578 c 0,10,11
 323 571 323 571 321.5 561 c 128,-1,12
 320 551 320 551 311 538.5 c 128,-1,13
 302 526 302 526 288 526 c 2,14,-1
 287 526 l 2,15,16
 282 526 282 526 150 557 c 0,17,18
 110 565 110 565 110 599 c 0,0,1
EndSplineSet
EndChar

StartChar: a
Encoding: 97 97 68
Width: 525
GlyphClass: 2
Flags: W
AnchorPoint: "Anchor-5" 234 450 basechar 0
AnchorPoint: "Anchor-4" 234 0 basechar 0
AnchorPoint: "Anchor-3" 525 611 basechar 0
AnchorPoint: "Anchor-2" 525 -222 basechar 0
AnchorPoint: "Anchor-1" 389 0 basechar 0
LayerCount: 2
Fore
SplineSet
47 138 m 0,0,1
 47 177 47 177 74.5 205 c 128,-1,2
 102 233 102 233 148.5 247.5 c 128,-1,3
 195 262 195 262 244 268.5 c 128,-1,4
 293 275 293 275 347 275 c 1,5,6
 347 290 347 290 346.5 297.5 c 128,-1,7
 346 305 346 305 340 322.5 c 128,-1,8
 334 340 334 340 323 349.5 c 128,-1,9
 312 359 312 359 288.5 367 c 128,-1,10
 265 375 265 375 231 375 c 0,11,12
 210 375 210 375 197 374.5 c 128,-1,13
 184 374 184 374 177 371.5 c 128,-1,14
 170 369 170 369 168 368.5 c 128,-1,15
 166 368 166 368 163 362.5 c 128,-1,16
 160 357 160 357 159 355 c 0,17,18
 147 338 147 338 125 338 c 0,19,20
 108 338 108 338 95.5 350 c 128,-1,21
 83 362 83 362 83 380 c 0,22,23
 83 422 83 422 122.5 436 c 128,-1,24
 162 450 162 450 234 450 c 0,25,26
 272 450 272 450 304.5 442 c 128,-1,27
 337 434 337 434 367 416 c 128,-1,28
 397 398 397 398 414 362.5 c 128,-1,29
 431 327 431 327 431 277 c 2,30,-1
 431 81 l 1,31,32
 445 76 445 76 472.5 76.5 c 128,-1,33
 500 77 500 77 512 69.5 c 128,-1,34
 524 62 524 62 524 37 c 0,35,36
 524 0 524 0 488 0 c 2,37,-1
 465 0 l 2,38,39
 418 0 418 0 390.5 9 c 128,-1,40
 363 18 363 18 352 43 c 1,41,42
 283 -4 283 -4 203 -4 c 0,43,44
 133 -4 133 -4 90 40 c 128,-1,45
 47 84 47 84 47 138 c 0,0,1
131 138 m 0,46,47
 131 110 131 110 158.5 90.5 c 128,-1,48
 186 71 186 71 225 71 c 0,49,50
 241 71 241 71 259 74.5 c 128,-1,51
 277 78 277 78 298 86.5 c 128,-1,52
 319 95 319 95 333 113 c 128,-1,53
 347 131 347 131 347 157 c 2,54,-1
 347 211 l 1,55,56
 248 209 248 209 189.5 190 c 128,-1,57
 131 171 131 171 131 138 c 0,46,47
EndSplineSet
EndChar

StartChar: b
Encoding: 98 98 69
Width: 525
GlyphClass: 2
Flags: W
AnchorPoint: "Anchor-5" 290 611 basechar 0
AnchorPoint: "Anchor-4" 290 0 basechar 0
AnchorPoint: "Anchor-3" 525 611 basechar 0
AnchorPoint: "Anchor-2" 525 -222 basechar 0
LayerCount: 2
Fore
SplineSet
4 573 m 0,0,1
 3 596 3 596 15 603.5 c 128,-1,2
 27 611 27 611 44 611 c 2,3,-1
 131 611 l 2,4,5
 146 611 146 611 155.5 608 c 128,-1,6
 165 605 165 605 168.5 597.5 c 128,-1,7
 172 590 172 590 172.5 585 c 128,-1,8
 173 580 173 580 173 570 c 2,9,-1
 173 397 l 1,10,11
 233 448 233 448 304 448 c 0,12,13
 387 448 387 448 440 388 c 128,-1,14
 493 328 493 328 493 223 c 0,15,16
 493 111 493 111 432.5 53.5 c 128,-1,17
 372 -4 372 -4 292 -4 c 0,18,19
 225 -4 225 -4 173 48 c 1,20,-1
 173 40 l 2,21,22
 173 0 173 0 137 0 c 2,23,-1
 128 0 l 2,24,25
 89 0 89 0 89 37 c 2,26,-1
 89 535 l 1,27,-1
 40 535 l 2,28,29
 2 535 2 535 4 573 c 0,0,1
173 187 m 2,30,31
 173 153 173 153 201.5 112 c 128,-1,32
 230 71 230 71 279 71 c 0,33,34
 338 71 338 71 373.5 112 c 128,-1,35
 409 153 409 153 409 222 c 0,36,37
 409 301 409 301 373 337 c 128,-1,38
 337 373 337 373 289 373 c 0,39,40
 243 373 243 373 208 341.5 c 128,-1,41
 173 310 173 310 173 278 c 2,42,-1
 173 187 l 2,30,31
EndSplineSet
EndChar

StartChar: c
Encoding: 99 99 70
Width: 525
GlyphClass: 2
Flags: W
AnchorPoint: "Anchor-5" 298 450 basechar 0
AnchorPoint: "Anchor-4" 290 0 basechar 0
AnchorPoint: "Anchor-3" 525 611 basechar 0
AnchorPoint: "Anchor-2" 525 -222 basechar 0
LayerCount: 2
Fore
SplineSet
65 222 m 0,0,1
 65 321 65 321 125 385.5 c 128,-1,2
 185 450 185 450 295 450 c 2,3,-1
 302 450 l 2,4,5
 332 450 332 450 351.5 448.5 c 128,-1,6
 371 447 371 447 398 441 c 128,-1,7
 425 435 425 435 439.5 419.5 c 128,-1,8
 454 404 454 404 454 380 c 0,9,10
 454 362 454 362 442 350 c 128,-1,11
 430 338 430 338 412 338 c 0,12,13
 379 338 379 338 371 370 c 1,14,15
 350 375 350 375 300 375 c 0,16,17
 218 375 218 375 183.5 330 c 128,-1,18
 149 285 149 285 149 223 c 0,19,20
 149 151 149 151 195 111 c 128,-1,21
 241 71 241 71 310 71 c 0,22,23
 362 71 362 71 381 120 c 0,24,25
 388 138 388 138 396 142.5 c 128,-1,26
 404 147 404 147 419 147 c 2,27,-1
 423 147 l 2,28,29
 465 147 465 147 465 118 c 0,30,31
 465 108 465 108 456.5 90 c 128,-1,32
 448 72 448 72 430 49.5 c 128,-1,33
 412 27 412 27 375 11.5 c 128,-1,34
 338 -4 338 -4 290 -4 c 0,35,36
 189 -4 189 -4 127 58.5 c 128,-1,37
 65 121 65 121 65 222 c 0,0,1
EndSplineSet
EndChar

StartChar: d
Encoding: 100 100 71
Width: 525
GlyphClass: 2
Flags: W
AnchorPoint: "Anchor-5" 233 611 basechar 0
AnchorPoint: "Anchor-4" 276 0 basechar 0
AnchorPoint: "Anchor-3" 525 611 basechar 0
AnchorPoint: "Anchor-2" 525 -222 basechar 0
LayerCount: 2
Fore
SplineSet
31 220 m 0,0,1
 31 282 31 282 50 328.5 c 128,-1,2
 69 375 69 375 99.5 399.5 c 128,-1,3
 130 424 130 424 163 436 c 128,-1,4
 196 448 196 448 230 448 c 0,5,6
 298 448 298 448 351 401 c 1,7,-1
 351 535 l 1,8,-1
 304 535 l 2,9,10
 266 535 266 535 266 574 c 0,11,12
 264 610 264 610 301 611 c 2,13,-1
 397 611 l 2,14,15
 415 611 415 611 424 602.5 c 128,-1,16
 433 594 433 594 434 587 c 128,-1,17
 435 580 435 580 435 566 c 2,18,-1
 435 75 l 1,19,-1
 480 75 l 2,20,21
 520 75 520 75 520 37 c 0,22,23
 522 0 522 0 483 0 c 2,24,-1
 385 0 l 2,25,26
 351 0 351 0 351 37 c 2,27,-1
 351 54 l 1,28,29
 295 -4 295 -4 222 -4 c 0,30,31
 138 -4 138 -4 84.5 58 c 128,-1,32
 31 120 31 120 31 220 c 0,0,1
115 222 m 0,33,34
 115 143 115 143 151 107 c 128,-1,35
 187 71 187 71 235 71 c 0,36,37
 288 71 288 71 320 115 c 128,-1,38
 352 159 352 159 351 191 c 2,39,-1
 351 279 l 2,40,41
 351 311 351 311 320 342 c 128,-1,42
 289 373 289 373 245 373 c 0,43,44
 186 373 186 373 150.5 332 c 128,-1,45
 115 291 115 291 115 222 c 0,33,34
EndSplineSet
EndChar

StartChar: e
Encoding: 101 101 72
Width: 525
GlyphClass: 2
Flags: W
AnchorPoint: "Anchor-5" 269 450 basechar 0
AnchorPoint: "Anchor-4" 283 0 basechar 0
AnchorPoint: "Anchor-3" 525 611 basechar 0
AnchorPoint: "Anchor-2" 525 -222 basechar 0
AnchorPoint: "Anchor-1" 283 0 basechar 0
LayerCount: 2
Fore
SplineSet
47 224 m 0,0,1
 47 326 47 326 109 388 c 128,-1,2
 171 450 171 450 269 450 c 0,3,4
 293 450 293 450 315.5 446 c 128,-1,5
 338 442 338 442 366.5 427.5 c 128,-1,6
 395 413 395 413 415 389 c 128,-1,7
 435 365 435 365 449.5 321 c 128,-1,8
 464 277 464 277 464 218 c 0,9,10
 464 183 464 183 425 183 c 2,11,-1
 135 183 l 1,12,13
 153 122 153 122 199.5 96.5 c 128,-1,14
 246 71 246 71 302 71 c 0,15,16
 350 71 350 71 374 111 c 0,17,18
 377 116 377 116 382 126 c 128,-1,19
 387 136 387 136 389.5 138.5 c 128,-1,20
 392 141 392 141 400 144 c 128,-1,21
 408 147 408 147 422 147 c 2,22,-1
 425 147 l 2,23,24
 463 147 463 147 463 116 c 0,25,26
 463 81 463 81 414.5 38.5 c 128,-1,27
 366 -4 366 -4 283 -4 c 0,28,29
 177 -4 177 -4 112 58.5 c 128,-1,30
 47 121 47 121 47 224 c 0,0,1
133 252 m 1,31,-1
 378 252 l 1,32,33
 370 375 370 375 269 375 c 0,34,35
 212 375 212 375 176 341.5 c 128,-1,36
 140 308 140 308 133 252 c 1,31,-1
EndSplineSet
EndChar

StartChar: f
Encoding: 102 102 73
Width: 525
GlyphClass: 2
Flags: W
AnchorPoint: "Anchor-5" 353 611 basechar 0
AnchorPoint: "Anchor-4" 218 0 basechar 0
AnchorPoint: "Anchor-3" 525 611 basechar 0
AnchorPoint: "Anchor-2" 525 -222 basechar 0
LayerCount: 2
Fore
SplineSet
35 38 m 0,0,1
 35 75 35 75 73 75 c 2,2,-1
 177 75 l 1,3,-1
 177 369 l 1,4,-1
 81 369 l 2,5,6
 43 369 43 369 43 404 c 0,7,8
 43 444 43 444 81 444 c 2,9,-1
 177 444 l 1,10,-1
 177 477 l 2,11,12
 177 516 177 516 193 544.5 c 128,-1,13
 209 573 209 573 236 587.5 c 128,-1,14
 263 602 263 602 292 608.5 c 128,-1,15
 321 615 321 615 353 615 c 0,16,17
 399 615 399 615 418 597 c 128,-1,18
 437 579 437 579 437 557 c 0,19,20
 437 539 437 539 424.5 526.5 c 128,-1,21
 412 514 412 514 396 514 c 0,22,23
 371 514 371 514 358 539 c 1,24,25
 349 540 349 540 337 540 c 0,26,27
 309 540 309 540 291.5 533.5 c 128,-1,28
 274 527 274 527 268 514 c 128,-1,29
 262 501 262 501 261 495 c 128,-1,30
 260 489 260 489 260 478 c 2,31,-1
 260 444 l 1,32,-1
 376 444 l 2,33,34
 416 444 416 444 416 405 c 0,35,36
 416 369 416 369 376 369 c 2,37,-1
 260 369 l 1,38,-1
 260 75 l 1,39,-1
 365 75 l 2,40,41
 374 75 374 75 380 74 c 128,-1,42
 386 73 386 73 394 63.5 c 128,-1,43
 402 54 402 54 402 37 c 0,44,45
 402 0 402 0 362 0 c 2,46,-1
 72 0 l 2,47,48
 35 0 35 0 35 38 c 0,0,1
EndSplineSet
EndChar

StartChar: g
Encoding: 103 103 74
Width: 525
GlyphClass: 2
Flags: W
AnchorPoint: "Anchor-5" 232 450 basechar 0
AnchorPoint: "Anchor-4" 263 -222 basechar 0
AnchorPoint: "Anchor-3" 525 611 basechar 0
AnchorPoint: "Anchor-2" 525 -222 basechar 0
LayerCount: 2
Fore
SplineSet
29 -79 m 0,0,1
 29 2 29 2 93 42 c 1,2,3
 71 74 71 74 71 111 c 128,-1,4
 71 148 71 148 92 180 c 1,5,-1
 92 182 l 1,6,7
 60 226 60 226 60 283 c 0,8,9
 60 357 60 357 108 402.5 c 128,-1,10
 156 448 156 448 234 448 c 0,11,12
 293 448 293 448 336 420 c 1,13,-1
 337 420 l 1,14,15
 378 452 378 452 435 452 c 0,16,17
 468 452 468 452 489 436 c 128,-1,18
 510 420 510 420 510 395 c 0,19,20
 510 377 510 377 497.5 365 c 128,-1,21
 485 353 485 353 468 353 c 0,22,23
 444 353 444 353 430 377 c 1,24,-1
 408 375 l 1,25,-1
 384 370 l 1,26,27
 406 327 406 327 406 283 c 0,28,29
 406 209 406 209 358 163.5 c 128,-1,30
 310 118 310 118 233 118 c 0,31,32
 181 118 181 118 138 141 c 1,33,34
 134 128 134 128 134 116 c 0,35,36
 134 97 134 97 145 82 c 128,-1,37
 156 67 156 67 185 67 c 2,38,-1
 273 67 l 2,39,40
 390 67 390 67 444 28 c 0,41,42
 495 -10 495 -10 495 -80 c 0,43,44
 495 -104 495 -104 483.5 -128 c 128,-1,45
 472 -152 472 -152 447.5 -175 c 128,-1,46
 423 -198 423 -198 375.5 -212.5 c 128,-1,47
 328 -227 328 -227 263 -227 c 0,48,49
 138 -227 138 -227 83.5 -181 c 128,-1,50
 29 -135 29 -135 29 -79 c 0,0,1
99 -76 m 0,51,52
 99 -108 99 -108 136.5 -134 c 128,-1,53
 174 -160 174 -160 264 -160 c 0,54,55
 339 -160 339 -160 382 -137.5 c 128,-1,56
 425 -115 425 -115 425 -78 c 0,57,58
 425 -53 425 -53 412 -37 c 128,-1,59
 399 -21 399 -21 373 -14 c 128,-1,60
 347 -7 347 -7 324 -5 c 128,-1,61
 301 -3 301 -3 267 -3 c 2,62,-1
 187 -3 l 2,63,64
 136 -3 136 -3 117.5 -26 c 128,-1,65
 99 -49 99 -49 99 -76 c 0,51,52
144 283 m 0,66,67
 144 241 144 241 166.5 213 c 128,-1,68
 189 185 189 185 233 185 c 0,69,70
 274 185 274 185 298 211.5 c 128,-1,71
 322 238 322 238 322 284 c 0,72,73
 322 326 322 326 300 353.5 c 128,-1,74
 278 381 278 381 233 381 c 0,75,76
 197 381 197 381 170.5 358 c 128,-1,77
 144 335 144 335 144 283 c 0,66,67
EndSplineSet
EndChar

StartChar: h
Encoding: 104 104 75
Width: 525
GlyphClass: 2
Flags: W
AnchorPoint: "Anchor-5" 262 611 basechar 0
AnchorPoint: "Anchor-4" 262 0 basechar 0
AnchorPoint: "Anchor-3" 525 611 basechar 0
AnchorPoint: "Anchor-2" 525 -222 basechar 0
LayerCount: 2
Fore
SplineSet
4 37 m 0,0,1
 4 75 4 75 43 75 c 2,2,3
 43 75 43 75 89 75 c 1,4,-1
 89 535 l 1,5,-1
 42 535 l 2,6,7
 4 535 4 535 4 575 c 0,8,9
 5 611 5 611 43 611 c 2,10,-1
 135 611 l 2,11,12
 153 611 153 611 162.5 602 c 128,-1,13
 172 593 172 593 172.5 587 c 128,-1,14
 173 581 173 581 173 569 c 2,15,-1
 173 392 l 1,16,17
 231 448 231 448 305 448 c 0,18,19
 348 448 348 448 376.5 433 c 128,-1,20
 405 418 405 418 416.5 390.5 c 128,-1,21
 428 363 428 363 431.5 341 c 128,-1,22
 435 319 435 319 435 288 c 2,23,-1
 435 75 l 1,24,-1
 482 75 l 2,25,26
 520 75 520 75 520 38 c 0,27,28
 520 0 520 0 483 0 c 2,29,-1
 323 0 l 2,30,31
 284 0 284 0 284 35 c 0,32,33
 284 47 284 47 285 53 c 128,-1,34
 286 59 286 59 295.5 67 c 128,-1,35
 305 75 305 75 324 75 c 2,36,-1
 352 75 l 1,37,-1
 352 287 l 2,38,39
 352 331 352 331 340.5 352 c 128,-1,40
 329 373 329 373 289 373 c 0,41,42
 247 373 247 373 210 339.5 c 128,-1,43
 173 306 173 306 173 231 c 2,44,-1
 173 75 l 1,45,-1
 219 75 l 2,46,47
 258 75 258 75 258 38 c 0,48,49
 258 0 258 0 219 0 c 2,50,-1
 42 0 l 2,51,52
 4 0 4 0 4 37 c 0,0,1
EndSplineSet
EndChar

StartChar: i
Encoding: 105 105 76
Width: 525
GlyphClass: 2
Flags: W
AnchorPoint: "Anchor-5" 274 591 basechar 0
AnchorPoint: "Anchor-4" 274 0 basechar 0
AnchorPoint: "Anchor-3" 525 611 basechar 0
AnchorPoint: "Anchor-2" 525 -222 basechar 0
AnchorPoint: "Anchor-1" 267 0 basechar 0
LayerCount: 2
Fore
SplineSet
71 38 m 0,0,1
 71 59 71 59 80.5 67 c 128,-1,2
 90 75 90 75 110 75 c 2,3,-1
 233 75 l 1,4,-1
 233 369 l 1,5,-1
 120 369 l 2,6,7
 79 369 79 369 79 404 c 0,8,9
 79 412 79 412 80 417 c 128,-1,10
 81 422 81 422 84 429.5 c 128,-1,11
 87 437 87 437 96 440.5 c 128,-1,12
 105 444 105 444 119 444 c 2,13,-1
 280 444 l 2,14,15
 316 444 316 444 316 405 c 2,16,-1
 316 75 l 1,17,-1
 423 75 l 2,18,19
 464 75 464 75 462 38 c 0,20,21
 462 0 462 0 424 0 c 2,22,-1
 108 0 l 2,23,24
 71 0 71 0 71 38 c 0,0,1
197 565 m 128,-1,26
 197 582 197 582 211 596.5 c 128,-1,27
 225 611 225 611 257 611 c 0,28,29
 283 611 283 611 299.5 598 c 128,-1,30
 316 585 316 585 316 565 c 0,31,32
 316 548 316 548 302 534 c 128,-1,33
 288 520 288 520 256 520 c 0,34,35
 225 520 225 520 211 534 c 128,-1,25
 197 548 197 548 197 565 c 128,-1,26
EndSplineSet
EndChar

StartChar: j
Encoding: 106 106 77
Width: 525
GlyphClass: 2
Flags: W
AnchorPoint: "Anchor-4" 236 -222 basechar 0
AnchorPoint: "Anchor-3" 525 611 basechar 0
AnchorPoint: "Anchor-2" 525 -222 basechar 0
LayerCount: 2
Fore
SplineSet
47 -155 m 0,0,1
 47 -136 47 -136 59 -124 c 128,-1,2
 71 -112 71 -112 89 -112 c 0,3,4
 121 -112 121 -112 130 -145 c 1,5,6
 152 -151 152 -151 190 -151 c 2,7,-1
 197 -151 l 2,8,9
 244 -151 244 -151 267.5 -119 c 128,-1,10
 291 -87 291 -87 291 -35 c 2,11,-1
 291 369 l 1,12,-1
 160 369 l 2,13,14
 121 369 121 369 121 406 c 0,15,16
 121 444 121 444 159 444 c 2,17,-1
 337 444 l 2,18,19
 375 444 375 444 375 405 c 2,20,-1
 375 -36 l 2,21,22
 375 -122 375 -122 321.5 -174 c 128,-1,23
 268 -226 268 -226 188 -226 c 2,24,-1
 181 -226 l 2,25,26
 102 -226 102 -226 73 -205 c 0,27,28
 47 -186 47 -186 47 -155 c 0,0,1
255 565 m 128,-1,30
 255 582 255 582 269.5 596.5 c 128,-1,31
 284 611 284 611 316 611 c 0,32,33
 342 611 342 611 358.5 598 c 128,-1,34
 375 585 375 585 375 565 c 0,35,36
 375 548 375 548 360.5 534 c 128,-1,37
 346 520 346 520 314 520 c 0,38,39
 283 520 283 520 269 534 c 128,-1,29
 255 548 255 548 255 565 c 128,-1,30
EndSplineSet
EndChar

StartChar: k
Encoding: 107 107 78
Width: 525
GlyphClass: 2
Flags: W
AnchorPoint: "Anchor-5" 260 611 basechar 0
AnchorPoint: "Anchor-4" 260 0 basechar 0
AnchorPoint: "Anchor-3" 525 611 basechar 0
AnchorPoint: "Anchor-2" 525 -222 basechar 0
LayerCount: 2
Fore
SplineSet
14 38 m 0,0,1
 13 75 13 75 54 75 c 2,2,3
 54 75 54 75 104 75 c 1,4,-1
 104 535 l 1,5,-1
 54 535 l 2,6,7
 42 535 42 535 34.5 537 c 128,-1,8
 27 539 27 539 20.5 548 c 128,-1,9
 14 557 14 557 14 575 c 0,10,11
 15 611 15 611 52 611 c 2,12,-1
 132 611 l 2,13,14
 172 611 172 611 172 572 c 2,15,-1
 172 233 l 1,16,-1
 304 369 l 1,17,-1
 273 369 l 2,18,19
 236 369 236 369 236 408 c 0,20,21
 236 424 236 424 243.5 432.5 c 128,-1,22
 251 441 251 441 258.5 442.5 c 128,-1,23
 266 444 266 444 277 444 c 2,24,-1
 446 444 l 2,25,26
 485 444 485 444 485 406 c 0,27,28
 485 369 485 369 449 369 c 2,29,-1
 412 369 l 2,30,31
 401 368 401 368 386 353 c 0,32,33
 384 351 384 351 293 259 c 1,34,-1
 428 75 l 1,35,-1
 465 75 l 2,36,37
 507 75 507 75 507 38 c 0,38,39
 507 0 507 0 469 0 c 2,40,-1
 332 0 l 2,41,42
 295 0 295 0 295 37 c 0,43,44
 295 76 295 76 334 76 c 0,45,46
 336 76 336 76 339 75.5 c 128,-1,47
 342 75 342 75 344 75 c 1,48,-1
 245 210 l 1,49,50
 235 200 235 200 225.5 190.5 c 128,-1,51
 216 181 216 181 210 174.5 c 128,-1,52
 204 168 204 168 198 162 c 128,-1,53
 192 156 192 156 189 152.5 c 128,-1,54
 186 149 186 149 182.5 145.5 c 128,-1,55
 179 142 179 142 177.5 140 c 128,-1,56
 176 138 176 138 175 136 c 128,-1,57
 174 134 174 134 173.5 132.5 c 128,-1,58
 173 131 173 131 172.5 129.5 c 128,-1,59
 172 128 172 128 172 125 c 2,60,-1
 172 75 l 1,61,-1
 222 75 l 2,62,63
 262 75 262 75 261 38 c 0,64,65
 262 15 262 15 250 7.5 c 128,-1,66
 238 0 238 0 221 0 c 2,67,-1
 54 0 l 2,68,69
 43 0 43 0 35.5 2 c 128,-1,70
 28 4 28 4 21 13 c 128,-1,71
 14 22 14 22 14 38 c 0,0,1
EndSplineSet
EndChar

StartChar: l
Encoding: 108 108 79
Width: 525
GlyphClass: 2
Flags: W
AnchorPoint: "Anchor-5" 262 611 basechar 0
AnchorPoint: "Anchor-4" 262 0 basechar 0
AnchorPoint: "Anchor-3" 525 611 basechar 0
AnchorPoint: "Anchor-2" 525 -222 basechar 0
LayerCount: 2
Fore
SplineSet
50 36 m 0,0,1
 50 54 50 54 57 63 c 128,-1,2
 64 72 64 72 71 73.5 c 128,-1,3
 78 75 78 75 90 75 c 2,4,-1
 220 75 l 1,5,-1
 220 535 l 1,6,-1
 88 535 l 2,7,8
 77 535 77 535 70.5 536.5 c 128,-1,9
 64 538 64 538 57 547.5 c 128,-1,10
 50 557 50 557 50 575 c 0,11,12
 50 611 50 611 89 611 c 2,13,-1
 266 611 l 2,14,15
 304 611 304 611 304 570 c 2,16,-1
 304 75 l 1,17,-1
 435 75 l 2,18,19
 474 75 474 75 474 38 c 0,20,21
 474 21 474 21 467 12 c 128,-1,22
 460 3 460 3 453 1.5 c 128,-1,23
 446 0 446 0 436 0 c 2,24,-1
 88 0 l 2,25,26
 51 0 51 0 50 36 c 0,0,1
EndSplineSet
EndChar

StartChar: m
Encoding: 109 109 80
Width: 525
GlyphClass: 2
Flags: W
AnchorPoint: "Anchor-5" 262 450 basechar 0
AnchorPoint: "Anchor-4" 262 0 basechar 0
AnchorPoint: "Anchor-3" 525 611 basechar 0
AnchorPoint: "Anchor-2" 525 -222 basechar 0
LayerCount: 2
Fore
SplineSet
-11 38 m 0,0,1
 -11 75 -11 75 26 75 c 2,2,3
 26 75 26 75 46 75 c 1,4,-1
 46 369 l 1,5,-1
 28 369 l 2,6,7
 14 369 14 369 5 373 c 128,-1,8
 -4 377 -4 377 -7 385 c 128,-1,9
 -10 393 -10 393 -10.5 397.5 c 128,-1,10
 -11 402 -11 402 -11 410 c 0,11,12
 -11 444 -11 444 26 444 c 2,13,-1
 67 444 l 1,14,-1
 70 444 l 2,15,16
 74 445 74 445 76 445 c 0,17,18
 112 445 112 445 114 410 c 1,19,20
 154 448 154 448 204 448 c 0,21,22
 256 448 256 448 283 394 c 1,23,24
 322 448 322 448 387 448 c 0,25,26
 445 448 445 448 467 391 c 0,27,28
 479 358 479 358 479 297 c 2,29,-1
 479 75 l 1,30,-1
 496 75 l 2,31,32
 515 75 515 75 524.5 67 c 128,-1,33
 534 59 534 59 535 53 c 128,-1,34
 536 47 536 47 536 37 c 0,35,36
 536 0 536 0 499 0 c 2,37,-1
 409 0 l 2,38,39
 371 0 371 0 371 39 c 0,40,41
 370 59 370 59 381 67 c 128,-1,42
 392 75 392 75 412 75 c 1,43,-1
 412 291 l 2,44,45
 412 315 412 315 410.5 330 c 128,-1,46
 409 345 409 345 400 359 c 128,-1,47
 391 373 391 373 375 373 c 0,48,49
 341 373 341 373 319 334.5 c 128,-1,50
 297 296 297 296 297 232 c 2,51,-1
 297 75 l 1,52,-1
 315 75 l 2,53,54
 354 75 354 75 354 38 c 0,55,56
 354 0 354 0 314 0 c 2,57,-1
 226 0 l 2,58,59
 188 0 188 0 188 39 c 0,60,61
 187 59 187 59 198 67 c 128,-1,62
 209 75 209 75 229 75 c 1,63,-1
 229 291 l 2,64,65
 229 315 229 315 227.5 330 c 128,-1,66
 226 345 226 345 217 359 c 128,-1,67
 208 373 208 373 192 373 c 0,68,69
 157 373 157 373 135.5 334 c 128,-1,70
 114 295 114 295 114 232 c 2,71,-1
 114 75 l 1,72,-1
 132 75 l 2,73,74
 170 75 170 75 170 38 c 0,75,76
 170 0 170 0 133 0 c 2,77,-1
 27 0 l 2,78,79
 -11 0 -11 0 -11 38 c 0,0,1
EndSplineSet
EndChar

StartChar: n
Encoding: 110 110 81
Width: 525
GlyphClass: 2
Flags: W
AnchorPoint: "Anchor-5" 262 450 basechar 0
AnchorPoint: "Anchor-4" 262 0 basechar 0
AnchorPoint: "Anchor-3" 525 611 basechar 0
AnchorPoint: "Anchor-2" 525 -222 basechar 0
LayerCount: 2
Fore
SplineSet
4 37 m 0,0,1
 4 75 4 75 43 75 c 2,2,3
 43 75 43 75 89 75 c 1,4,-1
 89 369 l 1,5,-1
 44 369 l 2,6,7
 32 369 32 369 25 370.5 c 128,-1,8
 18 372 18 372 11 381.5 c 128,-1,9
 4 391 4 391 4 409 c 0,10,11
 4 444 4 444 40 444 c 2,12,-1
 135 444 l 2,13,14
 173 444 173 444 173 408 c 2,15,-1
 173 392 l 1,16,17
 231 448 231 448 305 448 c 0,18,19
 348 448 348 448 376.5 433 c 128,-1,20
 405 418 405 418 416.5 390.5 c 128,-1,21
 428 363 428 363 431.5 341 c 128,-1,22
 435 319 435 319 435 288 c 2,23,-1
 435 75 l 1,24,-1
 482 75 l 2,25,26
 520 75 520 75 520 38 c 0,27,28
 520 0 520 0 483 0 c 2,29,-1
 323 0 l 2,30,31
 284 0 284 0 284 35 c 0,32,33
 284 47 284 47 285 53 c 128,-1,34
 286 59 286 59 295.5 67 c 128,-1,35
 305 75 305 75 324 75 c 2,36,-1
 352 75 l 1,37,-1
 352 287 l 2,38,39
 352 331 352 331 340.5 352 c 128,-1,40
 329 373 329 373 289 373 c 0,41,42
 247 373 247 373 210 339 c 128,-1,43
 173 305 173 305 173 231 c 2,44,-1
 173 75 l 1,45,-1
 219 75 l 2,46,47
 258 75 258 75 258 38 c 0,48,49
 258 0 258 0 219 0 c 2,50,-1
 42 0 l 2,51,52
 4 0 4 0 4 37 c 0,0,1
EndSplineSet
EndChar

StartChar: o
Encoding: 111 111 82
Width: 525
GlyphClass: 2
Flags: W
AnchorPoint: "Anchor-5" 262 450 basechar 0
AnchorPoint: "Anchor-4" 261 0 basechar 0
AnchorPoint: "Anchor-3" 525 611 basechar 0
AnchorPoint: "Anchor-2" 525 -222 basechar 0
AnchorPoint: "Anchor-1" 261 0 basechar 0
LayerCount: 2
Fore
SplineSet
52 222 m 0,0,1
 52 328 52 328 110 389 c 128,-1,2
 168 450 168 450 262 450 c 0,3,4
 355 450 355 450 413.5 388 c 128,-1,5
 472 326 472 326 472 222 c 128,-1,6
 472 118 472 118 414 57 c 128,-1,7
 356 -4 356 -4 261 -4 c 0,8,9
 167 -4 167 -4 109.5 57.5 c 128,-1,10
 52 119 52 119 52 222 c 0,0,1
136 231 m 0,11,12
 136 148 136 148 175 109.5 c 128,-1,13
 214 71 214 71 262 71 c 0,14,15
 317 71 317 71 352.5 113.5 c 128,-1,16
 388 156 388 156 388 230 c 0,17,18
 388 297 388 297 353 336 c 128,-1,19
 318 375 318 375 262 375 c 0,20,21
 211 375 211 375 173.5 339.5 c 128,-1,22
 136 304 136 304 136 231 c 0,11,12
EndSplineSet
EndChar

StartChar: p
Encoding: 112 112 83
Width: 525
GlyphClass: 2
Flags: W
AnchorPoint: "Anchor-5" 290 450 basechar 0
AnchorPoint: "Anchor-4" 290 -222 basechar 0
AnchorPoint: "Anchor-3" 525 611 basechar 0
AnchorPoint: "Anchor-2" 525 -222 basechar 0
LayerCount: 2
Fore
SplineSet
4 -187 m 0,0,1
 4 -169 4 -169 11 -159.5 c 128,-1,2
 18 -150 18 -150 25 -148.5 c 128,-1,3
 32 -147 32 -147 43 -147 c 2,4,-1
 89 -147 l 1,5,-1
 89 369 l 1,6,-1
 43 369 l 2,7,8
 20 369 20 369 12 378.5 c 128,-1,9
 4 388 4 388 4 409 c 0,10,11
 4 444 4 444 46 444 c 2,12,-1
 132 444 l 2,13,14
 158 444 158 444 165.5 433.5 c 128,-1,15
 173 423 173 423 173 405 c 2,16,-1
 173 397 l 1,17,18
 233 448 233 448 304 448 c 0,19,20
 386 448 386 448 439.5 387 c 128,-1,21
 493 326 493 326 493 223 c 0,22,23
 493 110 493 110 432.5 53 c 128,-1,24
 372 -4 372 -4 292 -4 c 0,25,26
 225 -4 225 -4 173 48 c 1,27,-1
 173 -147 l 1,28,-1
 219 -147 l 2,29,30
 258 -147 258 -147 258 -184 c 0,31,32
 258 -222 258 -222 219 -222 c 2,33,-1
 44 -222 l 2,34,35
 4 -222 4 -222 4 -187 c 0,0,1
173 187 m 2,36,37
 173 153 173 153 201.5 112 c 128,-1,38
 230 71 230 71 279 71 c 0,39,40
 338 71 338 71 373.5 112 c 128,-1,41
 409 153 409 153 409 222 c 0,42,43
 409 301 409 301 373 337 c 128,-1,44
 337 373 337 373 289 373 c 0,45,46
 242 373 242 373 207.5 341.5 c 128,-1,47
 173 310 173 310 173 278 c 2,48,-1
 173 187 l 2,36,37
EndSplineSet
EndChar

StartChar: q
Encoding: 113 113 84
Width: 525
GlyphClass: 2
Flags: W
AnchorPoint: "Anchor-5" 244 450 basechar 0
AnchorPoint: "Anchor-4" 244 -222 basechar 0
AnchorPoint: "Anchor-3" 525 611 basechar 0
AnchorPoint: "Anchor-2" 525 -222 basechar 0
LayerCount: 2
Fore
SplineSet
33 222 m 0,0,1
 33 330 33 330 95 389 c 128,-1,2
 157 448 157 448 244 448 c 0,3,4
 315 448 315 448 372 391 c 1,5,-1
 372 408 l 2,6,7
 372 426 372 426 379 435.5 c 128,-1,8
 386 445 386 445 393 446.5 c 128,-1,9
 400 448 400 448 412 448 c 2,10,-1
 417 448 l 2,11,12
 431 448 431 448 439.5 444.5 c 128,-1,13
 448 441 448 441 451 432.5 c 128,-1,14
 454 424 454 424 454.5 419.5 c 128,-1,15
 455 415 455 415 455 405 c 2,16,-1
 455 -147 l 1,17,-1
 506 -147 l 2,18,19
 546 -147 546 -147 545 -184 c 0,20,21
 545 -200 545 -200 538 -209 c 128,-1,22
 531 -218 531 -218 523.5 -220 c 128,-1,23
 516 -222 516 -222 506 -222 c 2,24,-1
 321 -222 l 2,25,26
 282 -222 282 -222 282 -186 c 0,27,28
 282 -168 282 -168 289 -159 c 128,-1,29
 296 -150 296 -150 303 -148.5 c 128,-1,30
 310 -147 310 -147 321 -147 c 2,31,-1
 372 -147 l 1,32,-1
 372 52 l 1,33,34
 308 -4 308 -4 232 -4 c 0,35,36
 146 -4 146 -4 89.5 57 c 128,-1,37
 33 118 33 118 33 222 c 0,0,1
117 222 m 0,38,39
 117 152 117 152 153 111.5 c 128,-1,40
 189 71 189 71 247 71 c 0,41,42
 297 71 297 71 334.5 106 c 128,-1,43
 372 141 372 141 372 175 c 2,44,-1
 372 240 l 2,45,46
 372 287 372 287 340 330 c 128,-1,47
 308 373 308 373 257 373 c 0,48,49
 196 373 196 373 156.5 333.5 c 128,-1,50
 117 294 117 294 117 222 c 0,38,39
EndSplineSet
EndChar

StartChar: r
Encoding: 114 114 85
Width: 525
GlyphClass: 2
Flags: W
AnchorPoint: "Anchor-5" 242 450 basechar 0
AnchorPoint: "Anchor-4" 202 0 basechar 0
AnchorPoint: "Anchor-3" 525 611 basechar 0
AnchorPoint: "Anchor-2" 525 -222 basechar 0
LayerCount: 2
Fore
SplineSet
24 40 m 0,0,1
 24 75 24 75 62 75 c 2,2,-1
 145 75 l 1,3,-1
 145 369 l 1,4,-1
 62 369 l 2,5,6
 44 369 44 369 35 376.5 c 128,-1,7
 26 384 26 384 25 391 c 128,-1,8
 24 398 24 398 24 410 c 0,9,10
 24 444 24 444 63 444 c 2,11,-1
 193 444 l 2,12,13
 229 444 229 444 229 402 c 2,14,-1
 229 365 l 1,15,16
 256 401 256 401 298.5 424.5 c 128,-1,17
 341 448 341 448 393 448 c 0,18,19
 443 448 443 448 465 428.5 c 128,-1,20
 487 409 487 409 487 384 c 0,21,22
 487 366 487 366 475 354 c 128,-1,23
 463 342 463 342 446 342 c 0,24,25
 415 342 415 342 405 372 c 0,26,27
 404 372 404 372 400 372.5 c 128,-1,28
 396 373 396 373 395 373 c 0,29,30
 327 373 327 373 278 320.5 c 128,-1,31
 229 268 229 268 229 173 c 2,32,-1
 229 75 l 1,33,-1
 342 75 l 2,34,35
 352 75 352 75 358.5 74 c 128,-1,36
 365 73 365 73 373 63.5 c 128,-1,37
 381 54 381 54 381 36 c 0,38,39
 381 0 381 0 341 0 c 2,40,-1
 62 0 l 2,41,42
 45 0 45 0 35.5 7.5 c 128,-1,43
 26 15 26 15 25 21.5 c 128,-1,44
 24 28 24 28 24 40 c 0,0,1
EndSplineSet
EndChar

StartChar: s
Encoding: 115 115 86
Width: 525
GlyphClass: 2
Flags: W
AnchorPoint: "Anchor-5" 264 450 basechar 0
AnchorPoint: "Anchor-4" 269 0 basechar 0
AnchorPoint: "Anchor-3" 525 611 basechar 0
AnchorPoint: "Anchor-2" 525 -222 basechar 0
LayerCount: 2
Fore
SplineSet
72 32 m 2,0,-1
 72 129 l 2,1,2
 72 153 72 153 82.5 160 c 128,-1,3
 93 167 93 167 119 167 c 0,4,5
 143 167 143 167 152 151 c 0,6,7
 154 148 154 148 159 135 c 128,-1,8
 164 122 164 122 170 113.5 c 128,-1,9
 176 105 176 105 187.5 94 c 128,-1,10
 199 83 199 83 219.5 77 c 128,-1,11
 240 71 240 71 269 71 c 0,12,13
 379 71 379 71 379 130 c 0,14,15
 379 144 379 144 363 160 c 0,16,17
 341 178 341 178 290.5 186.5 c 128,-1,18
 240 195 240 195 187.5 207.5 c 128,-1,19
 135 220 135 220 104 250 c 0,20,21
 72 280 72 280 72 324 c 0,22,23
 72 374 72 374 114 412 c 128,-1,24
 156 450 156 450 264 450 c 0,25,26
 323 450 323 450 365 433 c 1,27,28
 378 450 378 450 397 450 c 0,29,30
 430 450 430 450 430 415 c 2,31,-1
 430 346 l 2,32,33
 430 327 430 327 424.5 317.5 c 128,-1,34
 419 308 419 308 412 306.5 c 128,-1,35
 405 305 405 305 391 305 c 2,36,-1
 383 305 l 2,37,38
 363 305 363 305 355 312 c 128,-1,39
 347 319 347 319 346 329.5 c 128,-1,40
 345 340 345 340 341 350.5 c 128,-1,41
 337 361 337 361 317.5 368 c 128,-1,42
 298 375 298 375 261 375 c 0,43,44
 152 375 152 375 152 329 c 0,45,46
 152 308 152 308 183 296 c 0,47,48
 204 287 204 287 256 280 c 128,-1,49
 308 273 308 273 355 258 c 128,-1,50
 402 243 402 243 431 209 c 0,51,52
 459 176 459 176 459 134 c 0,53,54
 459 110 459 110 451 88.5 c 128,-1,55
 443 67 443 67 424 45 c 128,-1,56
 405 23 405 23 365 9.5 c 128,-1,57
 325 -4 325 -4 269 -4 c 0,58,59
 201 -4 201 -4 144 28 c 1,60,61
 133 9 133 9 126 2.5 c 128,-1,62
 119 -4 119 -4 104 -4 c 0,63,64
 72 -4 72 -4 72 32 c 2,0,-1
EndSplineSet
EndChar

StartChar: t
Encoding: 116 116 87
Width: 525
GlyphClass: 2
Flags: W
AnchorPoint: "Anchor-5" 187 571 basechar 0
AnchorPoint: "Anchor-4" 247 0 basechar 0
AnchorPoint: "Anchor-3" 525 611 basechar 0
AnchorPoint: "Anchor-2" 525 -222 basechar 0
LayerCount: 2
Fore
SplineSet
25 404 m 0,0,1
 25 444 25 444 63 444 c 2,2,-1
 145 444 l 1,3,-1
 145 534 l 2,4,5
 145 551 145 551 153 560 c 128,-1,6
 161 569 161 569 168 570 c 128,-1,7
 175 571 175 571 187 571 c 2,8,-1
 192 571 l 2,9,10
 199 571 199 571 203.5 570 c 128,-1,11
 208 569 208 569 215 566 c 128,-1,12
 222 563 222 563 225.5 555 c 128,-1,13
 229 547 229 547 229 534 c 2,14,-1
 229 444 l 1,15,-1
 391 444 l 2,16,17
 428 444 428 444 428 406 c 0,18,19
 428 369 428 369 393 369 c 2,20,-1
 229 369 l 1,21,-1
 229 162 l 2,22,23
 229 146 229 146 229.5 136.5 c 128,-1,24
 230 127 230 127 233.5 113 c 128,-1,25
 237 99 237 99 243.5 91 c 128,-1,26
 250 83 250 83 263.5 77 c 128,-1,27
 277 71 277 71 296 71 c 0,28,29
 318 71 318 71 342 90 c 1,30,31
 355 107 355 107 360 119.5 c 128,-1,32
 365 132 365 132 365 143 c 128,-1,33
 365 154 365 154 367 159 c 0,34,35
 374 182 374 182 406 182 c 0,36,37
 450 182 450 182 450 147 c 0,38,39
 450 90 450 90 402 43 c 128,-1,40
 354 -4 354 -4 282 -4 c 0,41,42
 264 -4 264 -4 246.5 0 c 128,-1,43
 229 4 229 4 207 14.5 c 128,-1,44
 185 25 185 25 169 51 c 128,-1,45
 153 77 153 77 148 115 c 0,46,47
 145 140 145 140 145 165 c 2,48,-1
 145 369 l 1,49,-1
 63 369 l 2,50,51
 25 369 25 369 25 404 c 0,0,1
EndSplineSet
EndChar

StartChar: u
Encoding: 117 117 88
Width: 525
GlyphClass: 2
Flags: W
AnchorPoint: "Anchor-5" 262 450 basechar 0
AnchorPoint: "Anchor-4" 262 0 basechar 0
AnchorPoint: "Anchor-3" 525 611 basechar 0
AnchorPoint: "Anchor-2" 525 -222 basechar 0
AnchorPoint: "Anchor-1" 393 0 basechar 0
LayerCount: 2
Fore
SplineSet
4 406 m 128,-1,1
 4 444 4 444 38 444 c 2,2,-1
 136 444 l 2,3,4
 154 444 154 444 163 435 c 128,-1,5
 172 426 172 426 172.5 420 c 128,-1,6
 173 414 173 414 173 401 c 2,7,-1
 173 115 l 2,8,9
 173 100 173 100 176 92 c 128,-1,10
 179 84 179 84 195 77.5 c 128,-1,11
 211 71 211 71 244 71 c 0,12,13
 292 71 292 71 319.5 90.5 c 128,-1,14
 347 110 347 110 351 134 c 0,15,16
 352 142 352 142 352 157 c 2,17,-1
 352 369 l 1,18,-1
 305 369 l 2,19,20
 266 369 266 369 266 406 c 0,21,22
 266 444 266 444 305 444 c 2,23,-1
 398 444 l 2,24,25
 435 444 435 444 435 406 c 2,26,-1
 435 75 l 1,27,-1
 482 75 l 2,28,29
 500 75 500 75 509 67 c 128,-1,30
 518 59 518 59 519 53 c 128,-1,31
 520 47 520 47 520 38 c 0,32,33
 521 15 521 15 509 7.5 c 128,-1,34
 497 0 497 0 480 0 c 2,35,-1
 390 0 l 2,36,37
 354 0 354 0 352 33 c 1,38,39
 298 -4 298 -4 225 -4 c 0,40,41
 160 -4 160 -4 124.5 20.5 c 128,-1,42
 89 45 89 45 89 113 c 2,43,-1
 89 369 l 1,44,-1
 56 369 l 2,45,46
 55 369 55 369 51.5 368.5 c 128,-1,47
 48 368 48 368 45 368 c 0,48,0
 4 368 4 368 4 406 c 128,-1,1
EndSplineSet
EndChar

StartChar: v
Encoding: 118 118 89
Width: 525
GlyphClass: 2
Flags: W
AnchorPoint: "Anchor-5" 261 450 basechar 0
AnchorPoint: "Anchor-4" 262 0 basechar 0
AnchorPoint: "Anchor-3" 525 611 basechar 0
AnchorPoint: "Anchor-2" 525 -222 basechar 0
LayerCount: 2
Fore
SplineSet
23 406 m 0,0,1
 23 429 23 429 33 436.5 c 128,-1,2
 43 444 43 444 61 444 c 2,3,-1
 193 444 l 2,4,5
 210 444 210 444 222 436.5 c 128,-1,6
 234 429 234 429 233 406 c 0,7,8
 234 369 234 369 194 369 c 2,9,-1
 167 369 l 1,10,-1
 262 69 l 1,11,-1
 356 369 l 1,12,-1
 329 369 l 2,13,14
 290 369 290 369 290 404 c 0,15,16
 290 416 290 416 291.5 423 c 128,-1,17
 293 430 293 430 302.5 437 c 128,-1,18
 312 444 312 444 330 444 c 2,19,-1
 462 444 l 2,20,21
 481 444 481 444 490.5 436 c 128,-1,22
 500 428 500 428 500 406 c 0,23,24
 500 369 500 369 463 369 c 2,25,-1
 427 369 l 1,26,27
 423 354 423 354 416 335 c 2,28,-1
 322 36 l 2,29,30
 310 -3 310 -3 271 -3 c 2,31,-1
 252 -3 l 2,32,33
 213 -3 213 -3 201 33 c 2,34,-1
 107 332 l 2,35,36
 100 353 100 353 96 369 c 1,37,-1
 62 369 l 2,38,39
 23 369 23 369 23 406 c 0,0,1
EndSplineSet
EndChar

StartChar: w
Encoding: 119 119 90
Width: 525
GlyphClass: 2
Flags: W
AnchorPoint: "Anchor-5" 262 450 basechar 0
AnchorPoint: "Anchor-4" 262 0 basechar 0
AnchorPoint: "Anchor-3" 525 611 basechar 0
AnchorPoint: "Anchor-2" 525 -222 basechar 0
LayerCount: 2
Fore
SplineSet
15 409 m 0,0,1
 15 444 15 444 52 444 c 2,2,-1
 189 444 l 2,3,4
 229 444 229 444 227 406 c 0,5,6
 227 389 227 389 220 380.5 c 128,-1,7
 213 372 213 372 206 370.5 c 128,-1,8
 199 369 199 369 188 369 c 2,9,-1
 137 369 l 1,10,-1
 176 111 l 1,11,-1
 179 89 l 1,12,-1
 180 70 l 1,13,14
 181 108 181 108 212 223 c 0,15,16
 217 243 217 243 226 253 c 128,-1,17
 235 263 235 263 242.5 265 c 128,-1,18
 250 267 250 267 263 267 c 2,19,-1
 269 267 l 2,20,21
 277 267 277 267 283 265.5 c 128,-1,22
 289 264 289 264 293.5 262.5 c 128,-1,23
 298 261 298 261 302 256.5 c 128,-1,24
 306 252 306 252 308 249.5 c 128,-1,25
 310 247 310 247 313 240 c 128,-1,26
 316 233 316 233 316.5 230.5 c 128,-1,27
 317 228 317 228 319.5 218.5 c 128,-1,28
 322 209 322 209 323 207 c 0,29,30
 342 132 342 132 346 70 c 1,31,32
 348 107 348 107 353.5 149.5 c 128,-1,33
 359 192 359 192 363.5 221 c 128,-1,34
 368 250 368 250 375.5 297.5 c 128,-1,35
 383 345 383 345 387 369 c 1,36,-1
 335 369 l 2,37,38
 324 369 324 369 317 370.5 c 128,-1,39
 310 372 310 372 303.5 381.5 c 128,-1,40
 297 391 297 391 297 408 c 0,41,42
 297 444 297 444 335 444 c 2,43,-1
 471 444 l 2,44,45
 509 444 509 444 509 405 c 0,46,47
 509 369 509 369 470 369 c 2,48,-1
 456 369 l 1,49,50
 453 347 453 347 445 303 c 2,51,-1
 401 35 l 2,52,53
 397 14 397 14 386.5 5.5 c 128,-1,54
 376 -3 376 -3 357 -3 c 2,55,-1
 342 -3 l 2,56,57
 334 -3 334 -3 327.5 -1.5 c 128,-1,58
 321 0 321 0 316.5 1.5 c 128,-1,59
 312 3 312 3 308 8 c 128,-1,60
 304 13 304 13 302 16 c 128,-1,61
 300 19 300 19 297 27 c 128,-1,62
 294 35 294 35 293 38 c 128,-1,63
 292 41 292 41 289.5 52 c 128,-1,64
 287 63 287 63 286 67 c 0,65,66
 267 143 267 143 265 197 c 1,67,68
 265 153 265 153 250.5 90 c 128,-1,69
 236 27 236 27 228 15 c 0,70,71
 215 -3 215 -3 189 -3 c 2,72,-1
 168 -3 l 2,73,74
 129 -3 129 -3 123 35 c 2,75,-1
 79 303 l 2,76,77
 71 347 71 347 68 369 c 1,78,-1
 53 369 l 2,79,80
 43 369 43 369 37 370 c 128,-1,81
 31 371 31 371 23 381 c 128,-1,82
 15 391 15 391 15 409 c 0,0,1
EndSplineSet
EndChar

StartChar: x
Encoding: 120 120 91
Width: 525
GlyphClass: 2
Flags: W
AnchorPoint: "Anchor-5" 261 450 basechar 0
AnchorPoint: "Anchor-4" 261 0 basechar 0
AnchorPoint: "Anchor-3" 525 611 basechar 0
AnchorPoint: "Anchor-2" 525 -222 basechar 0
LayerCount: 2
Fore
SplineSet
27 39 m 0,0,1
 27 75 27 75 66 75 c 2,2,-1
 102 75 l 2,3,4
 108 75 108 75 111.5 76.5 c 128,-1,5
 115 78 115 78 116.5 79 c 128,-1,6
 118 80 118 80 122 86 c 128,-1,7
 126 92 126 92 129 95 c 0,8,9
 162 141 162 141 185 172.5 c 128,-1,10
 208 204 208 204 215 214 c 128,-1,11
 222 224 222 224 226 229 c 1,12,-1
 226 230 l 1,13,-1
 122 369 l 1,14,-1
 73 369 l 2,15,16
 33 369 33 369 33 404 c 0,17,18
 33 415 33 415 34 421.5 c 128,-1,19
 35 428 35 428 44.5 436 c 128,-1,20
 54 444 54 444 71 444 c 2,21,-1
 207 444 l 2,22,23
 244 444 244 444 244 407 c 0,24,25
 244 390 244 390 237 381 c 128,-1,26
 230 372 230 372 223 370.5 c 128,-1,27
 216 369 216 369 206 369 c 2,28,-1
 202 369 l 1,29,-1
 260 289 l 1,30,-1
 314 369 l 1,31,32
 286 369 286 369 278.5 379 c 128,-1,33
 271 389 271 389 271 407 c 0,34,35
 271 444 271 444 308 444 c 2,36,-1
 443 444 l 2,37,38
 482 444 482 444 482 406 c 0,39,40
 483 369 483 369 443 369 c 2,41,-1
 406 369 l 2,42,43
 402 369 402 369 399 368.5 c 128,-1,44
 396 368 396 368 393.5 366 c 128,-1,45
 391 364 391 364 389.5 363 c 128,-1,46
 388 362 388 362 385 357.5 c 128,-1,47
 382 353 382 353 381 351 c 2,48,-1
 292 230 l 1,49,50
 298 221 298 221 350 151.5 c 128,-1,51
 402 82 402 82 406 79 c 0,52,53
 411 75 411 75 420 75 c 2,54,-1
 450 75 l 1,55,-1
 452 76 l 2,56,57
 455 76 455 76 457 76 c 0,58,59
 495 76 495 76 495 37 c 0,60,61
 495 0 495 0 457 0 c 2,62,-1
 320 0 l 2,63,64
 284 0 284 0 284 37 c 0,65,66
 284 62 284 62 295 68.5 c 128,-1,67
 306 75 306 75 325 75 c 2,68,-1
 330 75 l 1,69,-1
 259 181 l 1,70,-1
 191 75 l 1,71,-1
 199 75 l 2,72,73
 238 75 238 75 238 37 c 0,74,75
 238 0 238 0 201 0 c 2,76,-1
 65 0 l 2,77,78
 27 0 27 0 27 39 c 0,0,1
EndSplineSet
EndChar

StartChar: y
Encoding: 121 121 92
Width: 525
GlyphClass: 2
Flags: W
AnchorPoint: "Anchor-5" 268 450 basechar 0
AnchorPoint: "Anchor-4" 264 -222 basechar 0
AnchorPoint: "Anchor-3" 525 611 basechar 0
AnchorPoint: "Anchor-2" 525 -222 basechar 0
LayerCount: 2
Fore
SplineSet
26 406 m 0,0,1
 26 444 26 444 64 444 c 2,2,-1
 196 444 l 2,3,4
 236 444 236 444 236 406 c 0,5,6
 236 369 236 369 196 369 c 2,7,-1
 174 369 l 1,8,-1
 238 192 l 1,9,-1
 256 136 l 1,10,-1
 269 91 l 1,11,-1
 273 70 l 1,12,13
 274 86 274 86 285 128.5 c 128,-1,14
 296 171 296 171 307.5 209 c 128,-1,15
 319 247 319 247 336 301 c 128,-1,16
 353 355 353 355 357 369 c 1,17,-1
 331 369 l 2,18,19
 291 369 291 369 291 407 c 0,20,21
 291 430 291 430 301.5 437 c 128,-1,22
 312 444 312 444 331 444 c 2,23,-1
 463 444 l 2,24,25
 473 444 473 444 480 442.5 c 128,-1,26
 487 441 487 441 494 432 c 128,-1,27
 501 423 501 423 501 406 c 0,28,29
 501 369 501 369 464 369 c 2,30,-1
 427 369 l 1,31,32
 424 360 424 360 419 343 c 128,-1,33
 414 326 414 326 411 318 c 2,34,-1
 293 -55 l 2,35,36
 239 -226 239 -226 126 -226 c 0,37,38
 86 -226 86 -226 64 -201 c 128,-1,39
 42 -176 42 -176 42 -148 c 0,40,41
 42 -125 42 -125 55.5 -115 c 128,-1,42
 69 -105 69 -105 84 -105 c 0,43,44
 100 -105 100 -105 112.5 -115.5 c 128,-1,45
 125 -126 125 -126 125 -141 c 0,46,47
 125 -148 125 -148 124 -151 c 1,48,49
 141 -150 141 -150 154.5 -145.5 c 128,-1,50
 168 -141 168 -141 178.5 -131.5 c 128,-1,51
 189 -122 189 -122 196 -114 c 128,-1,52
 203 -106 203 -106 209.5 -90 c 128,-1,53
 216 -74 216 -74 219 -66.5 c 128,-1,54
 222 -59 222 -59 227.5 -40.5 c 128,-1,55
 233 -22 233 -22 234 -18 c 0,56,57
 238 -7 238 -7 238 -1 c 0,58,59
 238 4 238 4 234 15 c 2,60,-1
 115 333 l 2,61,62
 113 339 113 339 108 351 c 128,-1,63
 103 363 103 363 101 369 c 1,64,-1
 66 369 l 2,65,66
 55 369 55 369 48.5 370 c 128,-1,67
 42 371 42 371 34 380 c 128,-1,68
 26 389 26 389 26 406 c 0,0,1
EndSplineSet
EndChar

StartChar: z
Encoding: 122 122 93
Width: 525
GlyphClass: 2
Flags: W
AnchorPoint: "Anchor-5" 253 450 basechar 0
AnchorPoint: "Anchor-4" 253 0 basechar 0
AnchorPoint: "Anchor-3" 525 611 basechar 0
AnchorPoint: "Anchor-2" 525 -222 basechar 0
LayerCount: 2
Fore
SplineSet
32 39 m 0,0,1
 32 52 32 52 34.5 59.5 c 128,-1,2
 37 67 37 67 39 69.5 c 128,-1,3
 41 72 41 72 49 80 c 2,4,-1
 344 369 l 1,5,-1
 132 369 l 1,6,-1
 132 341 l 2,7,8
 132 323 132 323 125 313.5 c 128,-1,9
 118 304 118 304 111 302.5 c 128,-1,10
 104 301 104 301 91 301 c 2,11,-1
 88 301 l 2,12,13
 73 301 73 301 64 304.5 c 128,-1,14
 55 308 55 308 52 317 c 128,-1,15
 49 326 49 326 48.5 330 c 128,-1,16
 48 334 48 334 48 345 c 2,17,-1
 48 399 l 2,18,19
 48 410 48 410 48.5 415 c 128,-1,20
 49 420 49 420 52 428 c 128,-1,21
 55 436 55 436 64 440 c 128,-1,22
 73 444 73 444 87 444 c 2,23,-1
 433 444 l 2,24,25
 450 444 450 444 459 437 c 128,-1,26
 468 430 468 430 469.5 423 c 128,-1,27
 471 416 471 416 471 405 c 0,28,29
 471 396 471 396 470.5 390.5 c 128,-1,30
 470 385 470 385 466.5 379.5 c 128,-1,31
 463 374 463 374 461 371.5 c 128,-1,32
 459 369 459 369 451.5 362 c 128,-1,33
 444 355 444 355 440 351 c 2,34,-1
 160 75 l 1,35,-1
 391 75 l 1,36,-1
 391 115 l 2,37,38
 391 128 391 128 392.5 134.5 c 128,-1,39
 394 141 394 141 404 147.5 c 128,-1,40
 414 154 414 154 433 154 c 0,41,42
 445 154 445 154 452 153 c 128,-1,43
 459 152 459 152 467 143 c 128,-1,44
 475 134 475 134 475 117 c 0,45,46
 475 116 475 116 474.5 113 c 128,-1,47
 474 110 474 110 474 109 c 2,48,-1
 474 47 l 2,49,50
 474 46 474 46 474.5 43 c 128,-1,51
 475 40 475 40 475 38 c 0,52,53
 475 0 475 0 436 0 c 2,54,-1
 68 0 l 2,55,56
 32 1 32 1 32 39 c 0,0,1
EndSplineSet
EndChar

StartChar: braceleft
Encoding: 123 123 94
Width: 525
GlyphClass: 2
Flags: W
LayerCount: 2
Fore
SplineSet
49 305 m 0,0,1
 49 331 49 331 65 340 c 0,2,3
 69 342 69 342 103.5 343.5 c 128,-1,4
 138 345 138 345 172 354.5 c 128,-1,5
 206 364 206 364 216 386 c 0,6,7
 220 395 220 395 220 416 c 2,8,-1
 220 569 l 2,9,10
 220 603 220 603 235 627.5 c 128,-1,11
 250 652 250 652 270.5 664.5 c 128,-1,12
 291 677 291 677 322.5 684 c 128,-1,13
 354 691 354 691 377 692.5 c 128,-1,14
 400 694 400 694 430 694 c 2,15,-1
 438 694 l 2,16,17
 458 694 458 694 466.5 685 c 128,-1,18
 475 676 475 676 474 660 c 0,19,20
 475 640 475 640 468 629.5 c 128,-1,21
 461 619 461 619 439 619 c 2,22,-1
 425 619 l 2,23,24
 368 618 368 618 340 609.5 c 128,-1,25
 312 601 312 601 308 592.5 c 128,-1,26
 304 584 304 584 304 566 c 2,27,-1
 304 409 l 2,28,29
 306 341 306 341 243 306 c 1,30,-1
 243 305 l 1,31,32
 304 273 304 273 304 201 c 2,33,-1
 304 40 l 2,34,35
 304 24 304 24 309 16 c 128,-1,36
 314 8 314 8 341 0.5 c 128,-1,37
 368 -7 368 -7 423 -8 c 2,38,-1
 438 -8 l 2,39,40
 474 -8 474 -8 474 -45 c 128,-1,41
 474 -82 474 -82 440 -83 c 2,42,-1
 419 -83 l 2,43,44
 238 -83 238 -83 221 16 c 0,45,46
 220 20 220 20 220 43 c 2,47,-1
 220 197 l 2,48,49
 220 211 220 211 219.5 217 c 128,-1,50
 219 223 219 223 210.5 234 c 128,-1,51
 202 245 202 245 184 252 c 0,52,53
 160 262 160 262 131.5 264.5 c 128,-1,54
 103 267 103 267 87 266.5 c 128,-1,55
 71 266 71 266 60 274.5 c 128,-1,56
 49 283 49 283 49 305 c 0,0,1
EndSplineSet
EndChar

StartChar: bar
Encoding: 124 124 95
Width: 525
GlyphClass: 2
Flags: W
LayerCount: 2
Fore
SplineSet
220 -32 m 2,0,-1
 220 644 l 2,1,2
 220 665 220 665 229 677 c 128,-1,3
 238 689 238 689 246 691.5 c 128,-1,4
 254 694 254 694 262 694 c 128,-1,5
 270 694 270 694 278 691.5 c 128,-1,6
 286 689 286 689 294.5 677 c 128,-1,7
 303 665 303 665 303 645 c 2,8,-1
 303 -30 l 2,9,10
 303 -83 303 -83 262 -83 c 0,11,12
 220 -83 220 -83 220 -32 c 2,0,-1
EndSplineSet
EndChar

StartChar: braceright
Encoding: 125 125 96
Width: 525
GlyphClass: 2
Flags: W
LayerCount: 2
Fore
SplineSet
49 -45 m 128,-1,1
 49 -8 49 -8 86 -8 c 2,2,-1
 100 -8 l 2,3,4
 155 -7 155 -7 182.5 0.5 c 128,-1,5
 210 8 210 8 215 16.5 c 128,-1,6
 220 25 220 25 220 40 c 2,7,-1
 220 201 l 2,8,9
 218 270 218 270 280 305 c 1,10,-1
 280 306 l 1,11,12
 220 338 220 338 220 409 c 2,13,-1
 220 566 l 2,14,15
 220 584 220 584 216 592.5 c 128,-1,16
 212 601 212 601 184 609.5 c 128,-1,17
 156 618 156 618 98 619 c 2,18,-1
 85 619 l 2,19,20
 49 619 49 619 49 654 c 2,21,-1
 49 660 l 2,22,23
 49 694 49 694 87 694 c 2,24,-1
 99 694 l 2,25,26
 210 694 210 694 257 661.5 c 128,-1,27
 304 629 304 629 304 569 c 2,28,-1
 304 409 l 2,29,30
 304 397 304 397 306 389 c 128,-1,31
 308 381 308 381 318.5 371.5 c 128,-1,32
 329 362 329 362 349 355 c 0,33,34
 377 346 377 346 412.5 345 c 128,-1,35
 448 344 448 344 461 338 c 128,-1,36
 474 332 474 332 474 307 c 0,37,38
 474 279 474 279 458 271 c 0,39,40
 454 269 454 269 419.5 267.5 c 128,-1,41
 385 266 385 266 352 257 c 128,-1,42
 319 248 319 248 308 227 c 0,43,44
 304 220 304 220 304 197 c 2,45,-1
 304 43 l 2,46,47
 304 -17 304 -17 260 -49.5 c 128,-1,48
 216 -82 216 -82 95 -83 c 2,49,-1
 83 -83 l 2,50,0
 49 -82 49 -82 49 -45 c 128,-1,1
EndSplineSet
EndChar

StartChar: asciitilde
Encoding: 126 126 97
Width: 525
GlyphClass: 2
Flags: W
LayerCount: 2
Fore
SplineSet
71 509 m 0,0,1
 71 529 71 529 114.5 570 c 128,-1,2
 158 611 158 611 201 611 c 0,3,4
 234 611 234 611 272 582 c 128,-1,5
 310 553 310 553 323 553 c 0,6,7
 342 553 342 553 369 581.5 c 128,-1,8
 396 610 396 610 410 610 c 0,9,10
 425 610 425 610 438.5 597 c 128,-1,11
 452 584 452 584 452 571 c 0,12,13
 452 550 452 550 407.5 509 c 128,-1,14
 363 468 363 468 322 468 c 0,15,16
 289 468 289 468 251.5 497 c 128,-1,17
 214 526 214 526 201 526 c 0,18,19
 182 526 182 526 154 497.5 c 128,-1,20
 126 469 126 469 112 469 c 0,21,22
 99 469 99 469 85 481.5 c 128,-1,23
 71 494 71 494 71 509 c 0,0,1
EndSplineSet
EndChar

StartChar: exclamdown
Encoding: 161 161 99
Width: 525
GlyphClass: 2
Flags: W
LayerCount: 2
Fore
SplineSet
187 -156 m 0,0,1
 187 -153 187 -153 187.5 -147 c 128,-1,2
 188 -141 188 -141 188 -138 c 2,3,-1
 202 131 l 2,4,5
 202 139 202 139 203.5 144 c 128,-1,6
 205 149 205 149 208.5 154.5 c 128,-1,7
 212 160 212 160 219.5 163 c 128,-1,8
 227 166 227 166 239 166 c 2,9,-1
 283 166 l 2,10,11
 301 166 301 166 310 159 c 128,-1,12
 319 152 319 152 320 145.5 c 128,-1,13
 321 139 321 139 322 125 c 2,14,-1
 336 -134 l 2,15,16
 336 -138 336 -138 336.5 -145 c 128,-1,17
 337 -152 337 -152 337 -156 c 0,18,19
 337 -190 337 -190 314.5 -210 c 128,-1,20
 292 -230 292 -230 262 -230 c 128,-1,21
 232 -230 232 -230 209.5 -210 c 128,-1,22
 187 -190 187 -190 187 -156 c 0,0,1
187 314 m 0,23,24
 187 347 187 347 209.5 368 c 128,-1,25
 232 389 232 389 262 389 c 0,26,27
 294 389 294 389 315 366.5 c 128,-1,28
 336 344 336 344 336 314 c 128,-1,29
 336 284 336 284 315 261.5 c 128,-1,30
 294 239 294 239 262 239 c 0,31,32
 232 239 232 239 209.5 260.5 c 128,-1,33
 187 282 187 282 187 314 c 0,23,24
EndSplineSet
EndChar

StartChar: cent
Encoding: 162 162 100
Width: 525
GlyphClass: 2
Flags: W
LayerCount: 2
Fore
SplineSet
36 222 m 0,0,1
 36 315 36 315 95.5 377 c 128,-1,2
 155 439 155 439 253 448 c 1,3,-1
 253 521 l 2,4,5
 254 558 254 558 288 558 c 2,6,-1
 289 558 l 2,7,8
 290 557 290 557 291 557 c 0,9,10
 328 557 328 557 329 521 c 2,11,-1
 329 450 l 1,12,13
 420 446 420 446 451 429 c 0,14,15
 483 412 483 412 483 380 c 0,16,17
 483 362 483 362 470 350 c 128,-1,18
 457 338 457 338 441 338 c 0,19,20
 410 338 410 338 401 368 c 1,21,-1
 386 371 l 1,22,-1
 359 374 l 1,23,-1
 329 375 l 1,24,-1
 329 72 l 1,25,26
 358 74 358 74 376.5 85 c 128,-1,27
 395 96 395 96 401.5 108 c 128,-1,28
 408 120 408 120 416 131.5 c 128,-1,29
 424 143 424 143 433 145 c 0,30,31
 440 147 440 147 454 147 c 2,32,-1
 457 147 l 2,33,34
 494 147 494 147 494 118 c 0,35,36
 494 108 494 108 485 91 c 128,-1,37
 476 74 476 74 458.5 54 c 128,-1,38
 441 34 441 34 407 18 c 128,-1,39
 373 2 373 2 329 -2 c 1,40,-1
 329 -75 l 2,41,42
 328 -111 328 -111 291 -111 c 128,-1,43
 254 -111 254 -111 253 -75 c 2,44,-1
 253 -2 l 1,45,46
 159 7 159 7 97.5 67 c 128,-1,47
 36 127 36 127 36 222 c 0,0,1
120 223 m 0,48,49
 120 172 120 172 152.5 131.5 c 128,-1,50
 185 91 185 91 253 77 c 1,51,-1
 253 372 l 1,52,53
 218 367 218 367 192.5 352.5 c 128,-1,54
 167 338 167 338 153.5 321.5 c 128,-1,55
 140 305 140 305 132 284.5 c 128,-1,56
 124 264 124 264 122 250 c 128,-1,57
 120 236 120 236 120 223 c 0,48,49
EndSplineSet
EndChar

StartChar: sterling
Encoding: 163 163 101
Width: 525
GlyphClass: 2
Flags: W
LayerCount: 2
Fore
SplineSet
45 54 m 128,-1,1
 45 80 45 80 68.5 101 c 128,-1,2
 92 122 92 122 143 122 c 0,3,4
 162 122 162 122 181 119 c 1,5,6
 185 136 185 136 185 163 c 2,7,-1
 185 268 l 1,8,-1
 144 268 l 2,9,10
 134 268 134 268 127 269.5 c 128,-1,11
 120 271 120 271 113.5 280 c 128,-1,12
 107 289 107 289 107 306 c 128,-1,13
 107 323 107 323 114 332 c 128,-1,14
 121 341 121 341 127.5 342 c 128,-1,15
 134 343 134 343 146 343 c 2,16,-1
 185 343 l 1,17,-1
 185 448 l 2,18,19
 185 498 185 498 200 534 c 128,-1,20
 215 570 215 570 239.5 588.5 c 128,-1,21
 264 607 264 607 289 615 c 128,-1,22
 314 623 314 623 340 623 c 0,23,24
 387 623 387 623 420.5 593.5 c 128,-1,25
 454 564 454 564 466.5 530 c 128,-1,26
 479 496 479 496 479 465 c 0,27,28
 479 438 479 438 465 427.5 c 128,-1,29
 451 417 451 417 436 417 c 0,30,31
 420 417 420 417 409.5 427 c 128,-1,32
 399 437 399 437 396 449 c 2,33,-1
 396 456 l 2,34,35
 395 464 395 464 394 472 c 128,-1,36
 393 480 393 480 391 491 c 128,-1,37
 389 502 389 502 385 511.5 c 128,-1,38
 381 521 381 521 375 529.5 c 128,-1,39
 369 538 369 538 360 543 c 128,-1,40
 351 548 351 548 339 548 c 0,41,42
 311 548 311 548 290 526.5 c 128,-1,43
 269 505 269 505 269 449 c 2,44,-1
 269 343 l 1,45,-1
 333 343 l 2,46,47
 344 343 344 343 350.5 341.5 c 128,-1,48
 357 340 357 340 364 331 c 128,-1,49
 371 322 371 322 371 305 c 0,50,51
 371 269 371 269 335 268 c 2,52,-1
 269 268 l 1,53,-1
 269 161 l 2,54,55
 269 125 269 125 262 100 c 1,56,57
 263 100 263 100 280.5 95 c 128,-1,58
 298 90 298 90 314.5 85.5 c 128,-1,59
 331 81 331 81 351.5 77 c 128,-1,60
 372 73 372 73 384 73 c 0,61,62
 401 73 401 73 408.5 83.5 c 128,-1,63
 416 94 416 94 416 107.5 c 128,-1,64
 416 121 416 121 421 134 c 128,-1,65
 426 147 426 147 440 150 c 0,66,67
 450 152 450 152 459 152 c 0,68,69
 501 152 501 152 501 118 c 0,70,71
 501 76 501 76 469 36 c 128,-1,72
 437 -4 437 -4 379 -4 c 0,73,74
 334 -4 334 -4 217 31 c 1,75,76
 174 -4 174 -4 115 -4 c 0,77,78
 85 -4 85 -4 65 12 c 128,-1,0
 45 28 45 28 45 54 c 128,-1,1
EndSplineSet
EndChar

StartChar: currency
Encoding: 164 164 102
Width: 525
GlyphClass: 2
Flags: W
LayerCount: 2
Fore
SplineSet
-68 -3 m 0,0,1
 -68 12 -68 12 -55 27 c 128,-1,2
 -42 42 -42 42 26 108 c 1,3,4
 -27 188 -27 188 -27 286 c 0,5,6
 -27 388 -27 388 26 464 c 1,7,8
 -56 545 -56 545 -62 554 c 256,9,10
 -68 563 -68 563 -68 575 c 0,11,12
 -68 593 -68 593 -55.5 604.5 c 128,-1,13
 -43 616 -43 616 -26 616 c 0,14,15
 -12 616 -12 616 1 605.5 c 128,-1,16
 14 595 14 595 53 555 c 0,17,18
 72 535 72 535 84 523 c 1,19,20
 164 576 164 576 263 576 c 0,21,22
 367 576 367 576 441 523 c 1,23,24
 520 603 520 603 531 610 c 0,25,26
 540 616 540 616 552 616 c 0,27,28
 568 616 568 616 580.5 604 c 128,-1,29
 593 592 593 592 593 575 c 0,30,31
 593 559 593 559 581 545 c 128,-1,32
 569 531 569 531 500 464 c 1,33,34
 553 388 553 388 553 286 c 0,35,36
 553 188 553 188 500 108 c 1,37,38
 570 39 570 39 581.5 25.5 c 128,-1,39
 593 12 593 12 593 -3 c 0,40,41
 593 -20 593 -20 581 -32.5 c 128,-1,42
 569 -45 569 -45 552 -45 c 0,43,44
 538 -45 538 -45 525.5 -34.5 c 128,-1,45
 513 -24 513 -24 473 16 c 0,46,47
 453 37 453 37 441 49 c 1,48,49
 362 -4 362 -4 263 -4 c 128,-1,50
 164 -4 164 -4 84 49 c 1,51,52
 3 -33 3 -33 -6 -39 c 0,53,54
 -14 -45 -14 -45 -26 -45 c 0,55,56
 -44 -45 -44 -45 -56 -32 c 128,-1,57
 -68 -19 -68 -19 -68 -3 c 0,0,1
56 285 m 0,58,59
 56 181 56 181 116.5 130 c 128,-1,60
 177 79 177 79 261 79 c 0,61,62
 350 79 350 79 409.5 131 c 128,-1,63
 469 183 469 183 469 286 c 0,64,65
 469 390 469 390 408.5 441.5 c 128,-1,66
 348 493 348 493 264 493 c 0,67,68
 174 493 174 493 115 440 c 128,-1,69
 56 387 56 387 56 285 c 0,58,59
EndSplineSet
EndChar

StartChar: yen
Encoding: 165 165 103
Width: 525
GlyphClass: 2
Flags: W
LayerCount: 2
Fore
SplineSet
13 176 m 0,0,1
 13 191 13 191 23 202 c 128,-1,2
 33 213 33 213 49 214 c 2,3,-1
 220 214 l 1,4,-1
 220 230 l 2,5,6
 220 242 220 242 216 253 c 128,-1,7
 212 264 212 264 206 275.5 c 128,-1,8
 200 287 200 287 197 294 c 1,9,-1
 58 294 l 2,10,11
 40 294 40 294 29 302 c 128,-1,12
 18 310 18 310 15.5 317 c 128,-1,13
 13 324 13 324 13 332 c 0,14,15
 13 339 13 339 15 346 c 128,-1,16
 17 353 17 353 28 361.5 c 128,-1,17
 39 370 39 370 58 370 c 2,18,-1
 162 370 l 1,19,-1
 86 535 l 1,20,-1
 57 535 l 2,21,22
 19 535 19 535 19 571 c 0,23,24
 19 611 19 611 57 611 c 2,25,-1
 183 611 l 2,26,27
 219 611 219 611 219 573 c 128,-1,28
 219 535 219 535 182 535 c 2,29,-1
 178 535 l 1,30,-1
 227 423 l 1,31,-1
 248 370 l 1,32,-1
 276 370 l 1,33,34
 287 403 287 403 346 535 c 1,35,36
 331 535 331 535 321.5 539 c 128,-1,37
 312 543 312 543 309 551 c 128,-1,38
 306 559 306 559 305.5 562.5 c 128,-1,39
 305 566 305 566 305 574 c 0,40,41
 303 611 303 611 342 611 c 2,42,-1
 467 611 l 2,43,44
 505 611 505 611 505 573 c 128,-1,45
 505 535 505 535 467 535 c 2,46,-1
 438 535 l 1,47,-1
 362 370 l 1,48,-1
 465 370 l 2,49,50
 492 370 492 370 501.5 357.5 c 128,-1,51
 511 345 511 345 511 332 c 0,52,53
 511 294 511 294 463 294 c 2,54,-1
 327 294 l 1,55,56
 325 287 325 287 318.5 275 c 128,-1,57
 312 263 312 263 308 252.5 c 128,-1,58
 304 242 304 242 304 230 c 2,59,-1
 304 214 l 1,60,-1
 465 214 l 2,61,62
 492 214 492 214 501.5 201.5 c 128,-1,63
 511 189 511 189 511 176 c 0,64,65
 511 162 511 162 501 151 c 128,-1,66
 491 140 491 140 476 139 c 0,67,68
 469 138 469 138 453 138 c 2,69,-1
 304 138 l 1,70,-1
 304 75 l 1,71,-1
 331 75 l 2,72,73
 369 75 369 75 369 40 c 0,74,75
 369 0 369 0 330 0 c 2,76,-1
 193 0 l 2,77,78
 155 0 155 0 155 36 c 0,79,80
 155 47 155 47 156 53 c 128,-1,81
 157 59 157 59 166.5 67 c 128,-1,82
 176 75 176 75 195 75 c 2,83,-1
 220 75 l 1,84,-1
 220 138 l 1,85,-1
 60 138 l 2,86,87
 13 138 13 138 13 176 c 0,0,1
EndSplineSet
EndChar

StartChar: brokenbar
Encoding: 166 166 104
Width: 525
GlyphClass: 2
Flags: W
LayerCount: 2
Fore
SplineSet
220 -31 m 2,0,-1
 220 219 l 2,1,2
 220 253 220 253 244 265 c 0,3,4
 252 269 252 269 262 269 c 0,5,6
 303 269 303 269 303 216 c 2,7,-1
 303 -33 l 2,8,9
 303 -53 303 -53 294.5 -65.5 c 128,-1,10
 286 -78 286 -78 278 -80.5 c 128,-1,11
 270 -83 270 -83 262 -83 c 0,12,13
 220 -83 220 -83 220 -31 c 2,0,-1
220 395 m 2,14,-1
 220 644 l 2,15,16
 220 678 220 678 244 690 c 0,17,18
 252 694 252 694 262 694 c 0,19,20
 303 694 303 694 303 642 c 2,21,-1
 303 392 l 2,22,23
 303 371 303 371 294 359 c 128,-1,24
 285 347 285 347 277.5 344.5 c 128,-1,25
 270 342 270 342 262 342 c 0,26,27
 220 342 220 342 220 395 c 2,14,-1
EndSplineSet
EndChar

StartChar: section
Encoding: 167 167 105
Width: 525
GlyphClass: 2
Flags: W
LayerCount: 2
Fore
SplineSet
82 200 m 0,0,1
 82 280 82 280 154 328 c 1,2,3
 154 328 154 328 150 332 c 0,4,5
 145 335 145 335 142 337.5 c 128,-1,6
 139 340 139 340 133.5 345 c 128,-1,7
 128 350 128 350 124 354.5 c 128,-1,8
 120 359 120 359 114 366 c 128,-1,9
 108 373 108 373 104 380 c 128,-1,10
 100 387 100 387 95.5 396 c 128,-1,11
 91 405 91 405 88.5 413.5 c 128,-1,12
 86 422 86 422 84 433 c 128,-1,13
 82 444 82 444 82 455 c 0,14,15
 82 525 82 525 136.5 570 c 128,-1,16
 191 615 191 615 263 615 c 0,17,18
 329 615 329 615 377.5 577.5 c 128,-1,19
 426 540 426 540 426 484 c 0,20,21
 426 464 426 464 414 452 c 128,-1,22
 402 440 402 440 384 440 c 0,23,24
 353 440 353 440 344 472 c 1,25,-1
 344 476 l 2,26,27
 343 480 343 480 342.5 483 c 128,-1,28
 342 486 342 486 340.5 492 c 128,-1,29
 339 498 339 498 336 503 c 128,-1,30
 333 508 333 508 329 513.5 c 128,-1,31
 325 519 325 519 318.5 523.5 c 128,-1,32
 312 528 312 528 304 532 c 128,-1,33
 296 536 296 536 285 538 c 128,-1,34
 274 540 274 540 260 540 c 0,35,36
 217 540 217 540 179 517 c 128,-1,37
 141 494 141 494 141 455 c 0,38,39
 141 436 141 436 153.5 420.5 c 128,-1,40
 166 405 166 405 185 395 c 128,-1,41
 204 385 204 385 225.5 377 c 128,-1,42
 247 369 247 369 264 364 c 0,43,44
 269 363 269 363 272 362 c 0,45,46
 358 336 358 336 400 290 c 128,-1,47
 442 244 442 244 442 189 c 0,48,49
 442 108 442 108 371 61 c 1,50,51
 442 3 442 3 442 -66 c 0,52,53
 442 -132 442 -132 390.5 -179 c 128,-1,54
 339 -226 339 -226 262 -226 c 0,55,56
 194 -226 194 -226 146 -188 c 128,-1,57
 98 -150 98 -150 98 -96 c 0,58,59
 98 -72 98 -72 111.5 -61.5 c 128,-1,60
 125 -51 125 -51 140 -51 c 128,-1,61
 155 -51 155 -51 166.5 -60.5 c 128,-1,62
 178 -70 178 -70 181 -83 c 2,63,-1
 182 -87 l 2,64,65
 182 -91 182 -91 182.5 -94 c 128,-1,66
 183 -97 183 -97 184.5 -103 c 128,-1,67
 186 -109 186 -109 189 -114 c 128,-1,68
 192 -119 192 -119 196 -124.5 c 128,-1,69
 200 -130 200 -130 206.5 -134.5 c 128,-1,70
 213 -139 213 -139 221 -143 c 128,-1,71
 229 -147 229 -147 240 -149 c 128,-1,72
 251 -151 251 -151 265 -151 c 0,73,74
 311 -151 311 -151 347.5 -127 c 128,-1,75
 384 -103 384 -103 384 -67 c 0,76,77
 384 -54 384 -54 378.5 -42 c 128,-1,78
 373 -30 373 -30 358.5 -20 c 128,-1,79
 344 -10 344 -10 336 -4.5 c 128,-1,80
 328 1 328 1 305 9 c 128,-1,81
 282 17 282 17 278.5 18.5 c 128,-1,82
 275 20 275 20 252 27 c 0,83,84
 166 53 166 53 124 99 c 128,-1,85
 82 145 82 145 82 200 c 0,0,1
141 200 m 0,86,87
 141 169 141 169 177.5 145.5 c 128,-1,88
 214 122 214 122 244.5 114 c 128,-1,89
 275 106 275 106 282 106 c 0,90,91
 312 106 312 106 348 128.5 c 128,-1,92
 384 151 384 151 384 189 c 0,93,94
 384 219 384 219 350 242 c 0,95,96
 328 257 328 257 291 270 c 128,-1,97
 254 283 254 283 244 283 c 0,98,99
 213 283 213 283 177 260.5 c 128,-1,100
 141 238 141 238 141 200 c 0,86,87
EndSplineSet
EndChar

StartChar: dieresis
Encoding: 168 168 106
Width: 525
GlyphClass: 2
Flags: W
LayerCount: 2
Fore
SplineSet
100 551 m 0,0,1
 100 577 100 577 118.5 594 c 128,-1,2
 137 611 137 611 160 611 c 0,3,4
 186 611 186 611 203 593 c 128,-1,5
 220 575 220 575 220 551 c 0,6,7
 220 526 220 526 202.5 508.5 c 128,-1,8
 185 491 185 491 160 491 c 0,9,10
 137 491 137 491 118.5 508.5 c 128,-1,11
 100 526 100 526 100 551 c 0,0,1
304 551 m 0,12,13
 304 575 304 575 321.5 593 c 128,-1,14
 339 611 339 611 364 611 c 0,15,16
 387 611 387 611 405.5 593.5 c 128,-1,17
 424 576 424 576 424 551 c 0,18,19
 424 528 424 528 406.5 509.5 c 128,-1,20
 389 491 389 491 364 491 c 0,21,22
 340 491 340 491 322 508 c 128,-1,23
 304 525 304 525 304 551 c 0,12,13
EndSplineSet
EndChar

StartChar: copyright
Encoding: 169 169 107
Width: 525
GlyphClass: 2
Flags: W
LayerCount: 2
Fore
SplineSet
-75 236 m 128,-1,1
 -75 340 -75 340 -52.5 423 c 128,-1,2
 -30 506 -30 506 4.5 557 c 128,-1,3
 39 608 39 608 85 642 c 128,-1,4
 131 676 131 676 175 689.5 c 128,-1,5
 219 703 219 703 262 703 c 0,6,7
 306 703 306 703 349.5 690 c 128,-1,8
 393 677 393 677 439 643 c 128,-1,9
 485 609 485 609 520 558 c 128,-1,10
 555 507 555 507 577.5 423.5 c 128,-1,11
 600 340 600 340 600 236 c 128,-1,12
 600 132 600 132 577.5 49 c 128,-1,13
 555 -34 555 -34 520 -85 c 128,-1,14
 485 -136 485 -136 439 -170 c 128,-1,15
 393 -204 393 -204 349.5 -217 c 128,-1,16
 306 -230 306 -230 262 -230 c 128,-1,17
 218 -230 218 -230 174.5 -217 c 128,-1,18
 131 -204 131 -204 85 -170 c 128,-1,19
 39 -136 39 -136 4.5 -85 c 128,-1,20
 -30 -34 -30 -34 -52.5 49 c 128,-1,0
 -75 132 -75 132 -75 236 c 128,-1,1
8 236 m 0,21,22
 8 129 8 129 33 50 c 128,-1,23
 58 -29 58 -29 98 -69.5 c 128,-1,24
 138 -110 138 -110 179 -128.5 c 128,-1,25
 220 -147 220 -147 262 -147 c 0,26,27
 368 -147 368 -147 442 -50 c 128,-1,28
 516 47 516 47 516 236 c 0,29,30
 516 323 516 323 499 391.5 c 128,-1,31
 482 460 482 460 456 501.5 c 128,-1,32
 430 543 430 543 395.5 570.5 c 128,-1,33
 361 598 361 598 328.5 608.5 c 128,-1,34
 296 619 296 619 263 619 c 128,-1,35
 230 619 230 619 197 608.5 c 128,-1,36
 164 598 164 598 129 570.5 c 128,-1,37
 94 543 94 543 68 501.5 c 128,-1,38
 42 460 42 460 25 391.5 c 128,-1,39
 8 323 8 323 8 236 c 0,21,22
75 215 m 0,40,41
 75 318 75 318 126.5 377 c 128,-1,42
 178 436 178 436 256 436 c 0,43,44
 301 436 301 436 341 413 c 0,45,46
 342 414 342 414 344.5 417 c 128,-1,47
 347 420 347 420 348.5 421 c 128,-1,48
 350 422 350 422 352 424.5 c 128,-1,49
 354 427 354 427 355.5 428 c 128,-1,50
 357 429 357 429 359.5 430.5 c 128,-1,51
 362 432 362 432 363.5 433 c 128,-1,52
 365 434 365 434 367.5 434.5 c 128,-1,53
 370 435 370 435 373 435.5 c 128,-1,54
 376 436 376 436 379 436 c 0,55,56
 412 436 412 436 412 401 c 2,57,-1
 412 314 l 2,58,59
 412 301 412 301 410.5 294 c 128,-1,60
 409 287 409 287 400.5 280 c 128,-1,61
 392 273 392 273 376 273 c 2,62,-1
 367 273 l 2,63,64
 352 273 352 273 344 277.5 c 128,-1,65
 336 282 336 282 333.5 285.5 c 128,-1,66
 331 289 331 289 328.5 300 c 128,-1,67
 326 311 326 311 325 315 c 0,68,69
 320 331 320 331 306 345.5 c 128,-1,70
 292 360 292 360 271 360 c 0,71,72
 256 360 256 360 239 354 c 128,-1,73
 222 348 222 348 203 334 c 128,-1,74
 184 320 184 320 171.5 288.5 c 128,-1,75
 159 257 159 257 159 214 c 0,76,77
 159 137 159 137 194.5 102 c 128,-1,78
 230 67 230 67 272 67 c 0,79,80
 295 67 295 67 309.5 79.5 c 128,-1,81
 324 92 324 92 327 108 c 2,82,-1
 329 120 l 2,83,84
 331 132 331 132 333 135 c 128,-1,85
 335 138 335 138 344.5 143 c 128,-1,86
 354 148 354 148 369 148 c 0,87,88
 383 148 383 148 390 147 c 128,-1,89
 397 146 397 146 404.5 137.5 c 128,-1,90
 412 129 412 129 412 113 c 0,91,92
 412 68 412 68 368.5 30 c 128,-1,93
 325 -8 325 -8 257 -8 c 0,94,95
 227 -8 227 -8 197 3 c 128,-1,96
 167 14 167 14 139 38 c 128,-1,97
 111 62 111 62 93 108 c 128,-1,98
 75 154 75 154 75 215 c 0,40,41
EndSplineSet
EndChar

StartChar: ordfeminine
Encoding: 170 170 108
Width: 525
GlyphClass: 2
Flags: W
LayerCount: 2
Fore
SplineSet
27 226 m 0,0,1
 27 241 27 241 37 251 c 128,-1,2
 47 261 47 261 61 263 c 0,3,4
 69 264 69 264 84 264 c 2,5,-1
 452 264 l 2,6,7
 470 264 470 264 480.5 256 c 128,-1,8
 491 248 491 248 493.5 240.5 c 128,-1,9
 496 233 496 233 496 226 c 128,-1,10
 496 219 496 219 493.5 211.5 c 128,-1,11
 491 204 491 204 480 196 c 128,-1,12
 469 188 469 188 450 188 c 2,13,-1
 71 188 l 2,14,15
 53 188 53 188 42.5 196 c 128,-1,16
 32 204 32 204 29.5 211 c 128,-1,17
 27 218 27 218 27 226 c 0,0,1
56 457 m 0,18,19
 56 508 56 508 133 524 c 0,20,21
 135 525 135 525 136 525 c 0,22,23
 216 541 216 541 318 541 c 1,24,25
 318 580 318 580 297.5 602.5 c 128,-1,26
 277 625 277 625 222 625 c 0,27,28
 199 625 199 625 178 622 c 1,29,30
 169 589 169 589 137 589 c 0,31,32
 121 589 121 589 108 600.5 c 128,-1,33
 95 612 95 612 95 633 c 0,34,35
 95 661 95 661 118 679 c 0,36,37
 145 700 145 700 223 700 c 0,38,39
 249 700 249 700 272.5 696 c 128,-1,40
 296 692 296 692 320.5 681 c 128,-1,41
 345 670 345 670 362.5 653 c 128,-1,42
 380 636 380 636 391 607.5 c 128,-1,43
 402 579 402 579 402 543 c 2,44,-1
 402 425 l 1,45,46
 420 423 420 423 455 423 c 2,47,-1
 468 423 l 2,48,49
 491 423 491 423 499 413.5 c 128,-1,50
 507 404 507 404 507 384 c 0,51,52
 507 347 507 347 470 347 c 2,53,-1
 447 347 l 2,54,55
 384 347 384 347 358 354.5 c 128,-1,56
 332 362 332 362 320 385 c 1,57,58
 261 343 261 343 193 343 c 0,59,60
 135 343 135 343 95.5 376.5 c 128,-1,61
 56 410 56 410 56 457 c 0,18,19
140 456 m 1,62,63
 150 418 150 418 213 418 c 0,64,65
 229 418 229 418 245.5 421.5 c 128,-1,66
 262 425 262 425 283.5 439.5 c 128,-1,67
 305 454 305 454 314 478 c 1,68,69
 183 476 183 476 140 456 c 1,62,63
EndSplineSet
EndChar

StartChar: guillemotleft
Encoding: 171 171 109
Width: 525
GlyphClass: 2
Flags: W
LayerCount: 2
Fore
SplineSet
32 214 m 0,0,1
 32 227 32 227 49 243 c 0,2,3
 95 287 95 287 156 345 c 0,4,5
 221 407 221 407 234 417 c 128,-1,6
 247 427 247 427 264 427 c 0,7,8
 302 427 302 427 302 398 c 0,9,10
 302 387 302 387 290 375 c 0,11,12
 282 365 282 365 121 214 c 1,13,-1
 121 213 l 1,14,15
 155 180 155 180 206 133 c 0,16,17
 278 65 278 65 290 52 c 128,-1,18
 302 39 302 39 302 29 c 0,19,20
 302 0 302 0 264 0 c 0,21,22
 250 0 250 0 244.5 3 c 128,-1,23
 239 6 239 6 224 20 c 0,24,25
 46 188 46 188 41 193 c 0,26,27
 32 204 32 204 32 214 c 0,0,1
175 214 m 0,28,29
 175 227 175 227 192 243 c 0,30,31
 238 287 238 287 299 345 c 0,32,33
 364 407 364 407 377 417 c 128,-1,34
 390 427 390 427 407 427 c 0,35,36
 445 427 445 427 445 398 c 0,37,38
 445 387 445 387 433 375 c 0,39,40
 425 365 425 365 264 214 c 1,41,-1
 264 213 l 1,42,43
 298 180 298 180 349 133 c 0,44,45
 421 65 421 65 433 52 c 128,-1,46
 445 39 445 39 445 29 c 0,47,48
 445 0 445 0 407 0 c 0,49,50
 393 0 393 0 387.5 3 c 128,-1,51
 382 6 382 6 367 20 c 0,52,53
 189 188 189 188 184 193 c 0,54,55
 175 204 175 204 175 214 c 0,28,29
EndSplineSet
Substitution2: "'locl' Localized Forms in Latin lookup 10 subtable" guillemotleft.lat
AlternateSubs2: "'salt' Stylistic Alternatives in Latin lookup 7 subtable" guillemotleft.lat
Substitution2: "'locl' Localized Forms in Greek lookup 2 subtable" guillemotleft.gr
AlternateSubs2: "'salt' Stylistic Alternatives in Greek lookup 1 subtable" guillemotleft.gr
EndChar

StartChar: logicalnot
Encoding: 172 172 110
Width: 525
GlyphClass: 2
Flags: W
LayerCount: 2
Fore
SplineSet
43 329 m 0,0,1
 43 337 43 337 46 345 c 128,-1,2
 49 353 49 353 61 362 c 128,-1,3
 73 371 73 371 93 371 c 2,4,-1
 433 371 l 2,5,6
 480 371 480 371 480 318 c 2,7,-1
 480 62 l 2,8,9
 480 27 480 27 455 15 c 0,10,11
 445 11 445 11 438 11 c 0,12,13
 429 11 429 11 421 14 c 128,-1,14
 413 17 413 17 405 29 c 128,-1,15
 397 41 397 41 397 62 c 2,16,-1
 397 287 l 1,17,-1
 90 287 l 2,18,19
 64 287 64 287 53.5 301 c 128,-1,20
 43 315 43 315 43 329 c 0,0,1
EndSplineSet
EndChar

StartChar: uni00AD
Encoding: 173 173 111
Width: 525
GlyphClass: 2
Flags: W
LayerCount: 2
Fore
SplineSet
175 219 m 0,0,1
 175 231 175 231 176.5 238 c 128,-1,2
 178 245 178 245 186.5 252.5 c 128,-1,3
 195 260 195 260 212 260 c 2,4,-1
 311 260 l 2,5,6
 352 260 352 260 350 223 c 0,7,8
 350 185 350 185 310 185 c 2,9,-1
 213 185 l 2,10,11
 175 185 175 185 175 219 c 0,0,1
EndSplineSet
EndChar

StartChar: registered
Encoding: 174 174 112
Width: 525
GlyphClass: 2
Flags: W
LayerCount: 2
Fore
SplineSet
-75 236 m 128,-1,1
 -75 340 -75 340 -52.5 423 c 128,-1,2
 -30 506 -30 506 4.5 557 c 128,-1,3
 39 608 39 608 85 642 c 128,-1,4
 131 676 131 676 175 689.5 c 128,-1,5
 219 703 219 703 262 703 c 0,6,7
 306 703 306 703 349.5 690 c 128,-1,8
 393 677 393 677 439 643 c 128,-1,9
 485 609 485 609 520 558 c 128,-1,10
 555 507 555 507 577.5 423.5 c 128,-1,11
 600 340 600 340 600 236 c 128,-1,12
 600 132 600 132 577.5 49 c 128,-1,13
 555 -34 555 -34 520 -85 c 128,-1,14
 485 -136 485 -136 439 -170 c 128,-1,15
 393 -204 393 -204 349.5 -217 c 128,-1,16
 306 -230 306 -230 262 -230 c 128,-1,17
 218 -230 218 -230 174.5 -217 c 128,-1,18
 131 -204 131 -204 85 -170 c 128,-1,19
 39 -136 39 -136 4.5 -85 c 128,-1,20
 -30 -34 -30 -34 -52.5 49 c 128,-1,0
 -75 132 -75 132 -75 236 c 128,-1,1
8 236 m 0,21,22
 8 129 8 129 33 50 c 128,-1,23
 58 -29 58 -29 98 -69.5 c 128,-1,24
 138 -110 138 -110 179 -128.5 c 128,-1,25
 220 -147 220 -147 262 -147 c 0,26,27
 368 -147 368 -147 442 -50 c 128,-1,28
 516 47 516 47 516 236 c 0,29,30
 516 323 516 323 499 391.5 c 128,-1,31
 482 460 482 460 456 501.5 c 128,-1,32
 430 543 430 543 395.5 570.5 c 128,-1,33
 361 598 361 598 328.5 608.5 c 128,-1,34
 296 619 296 619 263 619 c 128,-1,35
 230 619 230 619 197 608.5 c 128,-1,36
 164 598 164 598 129 570.5 c 128,-1,37
 94 543 94 543 68 501.5 c 128,-1,38
 42 460 42 460 25 391.5 c 128,-1,39
 8 323 8 323 8 236 c 0,21,22
52 40 m 0,40,41
 52 75 52 75 90 75 c 2,42,-1
 113 75 l 1,43,-1
 113 352 l 1,44,-1
 91 352 l 2,45,46
 52 352 52 352 52 388 c 0,47,48
 52 428 52 428 90 428 c 2,49,-1
 238 428 l 2,50,51
 285 428 285 428 319.5 415.5 c 128,-1,52
 354 403 354 403 371 383 c 128,-1,53
 388 363 388 363 395.5 343 c 128,-1,54
 403 323 403 323 403 302 c 0,55,56
 403 240 403 240 353 206 c 1,57,58
 378 174 378 174 378 133 c 2,59,-1
 378 97 l 2,60,61
 378 76 378 76 392 68 c 1,62,63
 393 73 393 73 393.5 83 c 128,-1,64
 394 93 394 93 395.5 98.5 c 128,-1,65
 397 104 397 104 400.5 110 c 128,-1,66
 404 116 404 116 413 119 c 128,-1,67
 422 122 422 122 437 122 c 0,68,69
 478 122 478 122 478 88 c 0,70,71
 478 53 478 53 456.5 22.5 c 128,-1,72
 435 -8 435 -8 395 -8 c 0,73,74
 359 -8 359 -8 326.5 15.5 c 128,-1,75
 294 39 294 39 294 98 c 2,76,-1
 294 128 l 2,77,78
 294 139 294 139 293 144 c 128,-1,79
 292 149 292 149 287 158.5 c 128,-1,80
 282 168 282 168 267.5 172 c 128,-1,81
 253 176 253 176 229 176 c 2,82,-1
 196 176 l 1,83,-1
 196 75 l 1,84,-1
 218 75 l 2,85,86
 257 75 257 75 257 38 c 0,87,88
 257 0 257 0 218 0 c 2,89,-1
 90 0 l 2,90,91
 65 0 65 0 58.5 10.5 c 128,-1,92
 52 21 52 21 52 40 c 0,40,41
196 252 m 1,93,-1
 226 252 l 2,94,95
 319 252 319 252 319 303 c 0,96,97
 319 334 319 334 279 346 c 0,98,99
 261 352 261 352 224 352 c 2,100,-1
 196 352 l 1,101,-1
 196 252 l 1,93,-1
EndSplineSet
EndChar

StartChar: macron
Encoding: 175 175 113
Width: 525
GlyphClass: 2
Flags: W
LayerCount: 2
Fore
SplineSet
72 580 m 0,0,1
 72 591 72 591 73 597.5 c 128,-1,2
 74 604 74 604 83 611.5 c 128,-1,3
 92 619 92 619 110 619 c 2,4,-1
 412 619 l 2,5,6
 451 619 451 619 451 581 c 128,-1,7
 451 543 451 543 414 542 c 2,8,-1
 108 542 l 2,9,10
 72 543 72 543 72 580 c 0,0,1
EndSplineSet
EndChar

StartChar: degree
Encoding: 176 176 114
Width: 525
GlyphClass: 2
Flags: W
LayerCount: 2
Fore
SplineSet
112 461 m 128,-1,1
 112 528 112 528 154.5 569.5 c 128,-1,2
 197 611 197 611 262 611 c 0,3,4
 329 611 329 611 370.5 568.5 c 128,-1,5
 412 526 412 526 412 461 c 0,6,7
 412 394 412 394 369.5 352.5 c 128,-1,8
 327 311 327 311 262 311 c 128,-1,9
 197 311 197 311 154.5 352.5 c 128,-1,0
 112 394 112 394 112 461 c 128,-1,1
195 461 m 128,-1,11
 195 429 195 429 213.5 412 c 128,-1,12
 232 395 232 395 262 395 c 0,13,14
 295 395 295 395 311.5 413 c 128,-1,15
 328 431 328 431 328 461 c 0,16,17
 328 492 328 492 310.5 509.5 c 128,-1,18
 293 527 293 527 262 527 c 128,-1,19
 231 527 231 527 213 510 c 128,-1,10
 195 493 195 493 195 461 c 128,-1,11
EndSplineSet
EndChar

StartChar: plusminus
Encoding: 177 177 115
Width: 525
GlyphClass: 2
Flags: W
LayerCount: 2
Fore
SplineSet
37 178 m 0,0,1
 37 187 37 187 39.5 195 c 128,-1,2
 42 203 42 203 54.5 211.5 c 128,-1,3
 67 220 67 220 88 220 c 2,4,-1
 220 220 l 1,5,-1
 220 320 l 1,6,-1
 87 320 l 2,7,8
 66 320 66 320 54 328.5 c 128,-1,9
 42 337 42 337 39.5 345 c 128,-1,10
 37 353 37 353 37 362 c 0,11,12
 37 375 37 375 47.5 389 c 128,-1,13
 58 403 58 403 85 403 c 2,14,-1
 220 403 l 1,15,-1
 220 539 l 2,16,17
 220 566 220 566 234 576 c 128,-1,18
 248 586 248 586 262 586 c 0,19,20
 304 586 304 586 304 533 c 2,21,-1
 304 403 l 1,22,-1
 438 403 l 2,23,24
 486 403 486 403 486 362 c 0,25,26
 486 354 486 354 483 345.5 c 128,-1,27
 480 337 480 337 469 328.5 c 128,-1,28
 458 320 458 320 439 320 c 2,29,-1
 304 320 l 1,30,-1
 304 220 l 1,31,-1
 435 220 l 2,32,33
 456 220 456 220 468 211.5 c 128,-1,34
 480 203 480 203 483 195 c 128,-1,35
 486 187 486 187 486 178 c 0,36,37
 486 170 486 170 483 162 c 128,-1,38
 480 154 480 154 468.5 145.5 c 128,-1,39
 457 137 457 137 437 137 c 2,40,-1
 86 137 l 2,41,42
 58 137 58 137 47.5 150.5 c 128,-1,43
 37 164 37 164 37 178 c 0,0,1
EndSplineSet
EndChar

StartChar: twosuperior
Encoding: 178 178 116
Width: 525
GlyphClass: 2
Flags: W
LayerCount: 2
Fore
SplineSet
59 344 m 0,0,1
 59 360 59 360 65.5 367 c 128,-1,2
 72 374 72 374 88 382 c 0,3,4
 333 498 333 498 347 507 c 0,5,6
 353 511 353 511 360 518 c 0,7,8
 381 537 381 537 381 560 c 0,9,10
 381 627 381 627 218 627 c 0,11,12
 185 627 185 627 167 622 c 128,-1,13
 149 617 149 617 146 612.5 c 128,-1,14
 143 608 143 608 142 600 c 0,15,16
 136 565 136 565 101 565 c 0,17,18
 86 565 86 565 72.5 576 c 128,-1,19
 59 587 59 587 59 609 c 0,20,21
 59 648 59 648 87.5 670.5 c 128,-1,22
 116 693 116 693 164 699 c 0,23,24
 195 703 195 703 239 703 c 2,25,-1
 240 703 l 2,26,27
 307 703 307 703 354 689.5 c 128,-1,28
 401 676 401 676 423.5 653 c 128,-1,29
 446 630 446 630 455.5 607.5 c 128,-1,30
 465 585 465 585 465 561 c 0,31,32
 465 544 465 544 460.5 529.5 c 128,-1,33
 456 515 456 515 450.5 504 c 128,-1,34
 445 493 445 493 431 481 c 128,-1,35
 417 469 417 469 407 461.5 c 128,-1,36
 397 454 397 454 373.5 442 c 128,-1,37
 350 430 350 430 336.5 424 c 128,-1,38
 323 418 323 418 291 403.5 c 128,-1,39
 259 389 259 389 242 381 c 1,40,-1
 382 381 l 1,41,42
 382 382 382 382 381.5 385 c 128,-1,43
 381 388 381 388 381 389 c 0,44,45
 381 428 381 428 422 428 c 2,46,-1
 428 428 l 2,47,48
 465 428 465 428 465 389 c 2,49,-1
 465 349 l 2,50,51
 464 346 464 346 465 341 c 128,-1,52
 466 336 466 336 464 329.5 c 128,-1,53
 462 323 462 323 459 317.5 c 128,-1,54
 456 312 456 312 447.5 308.5 c 128,-1,55
 439 305 439 305 426 305 c 2,56,-1
 97 305 l 2,57,58
 79 305 79 305 69 313 c 128,-1,59
 59 321 59 321 59 344 c 0,0,1
EndSplineSet
EndChar

StartChar: threesuperior
Encoding: 179 179 117
Width: 525
GlyphClass: 2
Flags: W
LayerCount: 2
Fore
SplineSet
49 381 m 0,0,1
 49 399 49 399 61 411.5 c 128,-1,2
 73 424 73 424 91 424 c 0,3,4
 126 424 126 424 132 388 c 1,5,6
 162 377 162 377 254 377 c 2,7,-1
 261 377 l 2,8,9
 306 377 306 377 337 385.5 c 128,-1,10
 368 394 368 394 379.5 404.5 c 128,-1,11
 391 415 391 415 391 426 c 128,-1,12
 391 437 391 437 380 448 c 128,-1,13
 369 459 369 459 339.5 467.5 c 128,-1,14
 310 476 310 476 268 476 c 2,15,-1
 239 476 l 2,16,17
 212 476 212 476 204 485.5 c 128,-1,18
 196 495 196 495 196 515 c 0,19,20
 196 541 196 541 211 547.5 c 128,-1,21
 226 554 226 554 261 554.5 c 128,-1,22
 296 555 296 555 320 563 c 0,23,24
 358 576 358 576 358 595 c 0,25,26
 358 609 358 609 331.5 618 c 128,-1,27
 305 627 305 627 266 627 c 0,28,29
 177 627 177 627 167 590 c 2,30,-1
 166 586 l 2,31,32
 166 583 166 583 165 579 c 128,-1,33
 164 575 164 575 162.5 569.5 c 128,-1,34
 161 564 161 564 158 559.5 c 128,-1,35
 155 555 155 555 150.5 550.5 c 128,-1,36
 146 546 146 546 139 543.5 c 128,-1,37
 132 541 132 541 124 541 c 0,38,39
 109 541 109 541 95.5 552.5 c 128,-1,40
 82 564 82 564 82 586 c 0,41,42
 82 639 82 639 132 670.5 c 128,-1,43
 182 702 182 702 266 702 c 0,44,45
 360 702 360 702 401 670 c 128,-1,46
 442 638 442 638 442 597 c 0,47,48
 442 588 442 588 440.5 579.5 c 128,-1,49
 439 571 439 571 436.5 564 c 128,-1,50
 434 557 434 557 429.5 550.5 c 128,-1,51
 425 544 425 544 422 539.5 c 128,-1,52
 419 535 419 535 414.5 530.5 c 128,-1,53
 410 526 410 526 407.5 523.5 c 128,-1,54
 405 521 405 521 401 518 c 2,55,-1
 397 515 l 1,56,57
 426 505 426 505 450.5 482.5 c 128,-1,58
 475 460 475 460 475 426 c 0,59,60
 475 378 475 378 426 339.5 c 128,-1,61
 377 301 377 301 259 301 c 2,62,-1
 234 301 l 2,63,64
 49 301 49 301 49 381 c 0,0,1
EndSplineSet
EndChar

StartChar: acute
Encoding: 180 180 118
Width: 525
GlyphClass: 2
Flags: W
LayerCount: 2
Fore
SplineSet
201 578 m 0,0,1
 201 602 201 602 234 610 c 0,2,3
 366 641 366 641 372 641 c 0,4,5
 390 641 390 641 401.5 628 c 128,-1,6
 413 615 413 615 413 599 c 0,7,8
 413 567 413 567 372 557 c 0,9,10
 242 526 242 526 236 526 c 0,11,12
 221 526 221 526 212 540 c 128,-1,13
 203 554 203 554 202 563 c 128,-1,14
 201 572 201 572 201 578 c 0,0,1
EndSplineSet
EndChar

StartChar: uni00B5
Encoding: 181 181 119
Width: 525
GlyphClass: 2
Flags: W
LayerCount: 2
Fore
SplineSet
4 -187 m 0,0,1
 4 -169 4 -169 11 -159.5 c 128,-1,2
 18 -150 18 -150 25 -148.5 c 128,-1,3
 32 -147 32 -147 43 -147 c 2,4,-1
 89 -147 l 1,5,-1
 89 369 l 1,6,-1
 56 369 l 2,7,8
 55 369 55 369 51.5 368.5 c 128,-1,9
 48 368 48 368 45 368 c 0,10,11
 4 368 4 368 4 406 c 128,-1,12
 4 444 4 444 38 444 c 2,13,-1
 136 444 l 2,14,15
 154 444 154 444 163 435 c 128,-1,16
 172 426 172 426 172.5 420 c 128,-1,17
 173 414 173 414 173 401 c 2,18,-1
 173 108 l 2,19,20
 173 89 173 89 187.5 80 c 128,-1,21
 202 71 202 71 244 71 c 0,22,23
 292 71 292 71 319.5 90.5 c 128,-1,24
 347 110 347 110 351 134 c 0,25,26
 352 142 352 142 352 157 c 2,27,-1
 352 369 l 1,28,-1
 307 369 l 2,29,30
 295 369 295 369 288 370.5 c 128,-1,31
 281 372 281 372 274 381 c 128,-1,32
 267 390 267 390 267 408 c 0,33,34
 267 444 267 444 305 444 c 2,35,-1
 398 444 l 2,36,37
 435 444 435 444 435 406 c 2,38,-1
 435 75 l 1,39,-1
 482 75 l 2,40,41
 500 75 500 75 509 67 c 128,-1,42
 518 59 518 59 519 53 c 128,-1,43
 520 47 520 47 520 38 c 0,44,45
 521 16 521 16 510 8 c 128,-1,46
 499 0 499 0 480 0 c 2,47,-1
 390 0 l 2,48,49
 354 0 354 0 352 33 c 1,50,51
 299 -4 299 -4 223 -4 c 2,52,-1
 221 -4 l 2,53,54
 193 -4 193 -4 173 0 c 1,55,-1
 173 -147 l 1,56,-1
 219 -147 l 2,57,58
 258 -147 258 -147 258 -184 c 0,59,60
 258 -222 258 -222 219 -222 c 2,61,-1
 44 -222 l 2,62,63
 4 -222 4 -222 4 -187 c 0,0,1
EndSplineSet
EndChar

StartChar: paragraph
Encoding: 182 182 120
Width: 525
GlyphClass: 2
Flags: W
LayerCount: 2
Fore
SplineSet
47 382 m 0,0,1
 47 471 47 471 101 541 c 128,-1,2
 155 611 155 611 249 611 c 2,3,-1
 451 611 l 2,4,5
 471 611 471 611 483 602 c 128,-1,6
 495 593 495 593 497.5 585 c 128,-1,7
 500 577 500 577 500 569 c 0,8,9
 500 527 500 527 449 527 c 2,10,-1
 429 527 l 1,11,-1
 429 -139 l 1,12,-1
 448 -139 l 2,13,14
 500 -139 500 -139 500 -180 c 0,15,16
 500 -188 500 -188 497.5 -196 c 128,-1,17
 495 -204 495 -204 483.5 -213 c 128,-1,18
 472 -222 472 -222 453 -222 c 2,19,-1
 179 -222 l 2,20,21
 152 -222 152 -222 141.5 -208.5 c 128,-1,22
 131 -195 131 -195 131 -181 c 0,23,24
 131 -172 131 -172 134 -164 c 128,-1,25
 137 -156 137 -156 149 -147.5 c 128,-1,26
 161 -139 161 -139 182 -139 c 2,27,-1
 202 -139 l 1,28,-1
 202 158 l 1,29,30
 131 176 131 176 89 239 c 128,-1,31
 47 302 47 302 47 382 c 0,0,1
285 -139 m 1,32,-1
 345 -139 l 1,33,-1
 345 527 l 1,34,-1
 285 527 l 1,35,-1
 285 -139 l 1,32,-1
EndSplineSet
EndChar

StartChar: periodcentered
Encoding: 183 183 121
Width: 525
GlyphClass: 2
Flags: W
LayerCount: 2
Fore
SplineSet
202 214 m 0,0,1
 202 237 202 237 219.5 255.5 c 128,-1,2
 237 274 237 274 262 274 c 0,3,4
 286 274 286 274 304 257 c 128,-1,5
 322 240 322 240 322 214 c 0,6,7
 322 191 322 191 304.5 172.5 c 128,-1,8
 287 154 287 154 262 154 c 0,9,10
 238 154 238 154 220 171 c 128,-1,11
 202 188 202 188 202 214 c 0,0,1
EndSplineSet
EndChar

StartChar: cedilla
Encoding: 184 184 122
Width: 525
GlyphClass: 2
Flags: W
LayerCount: 2
Fore
SplineSet
122 -175 m 0,0,1
 121 -153 121 -153 130 -144 c 128,-1,2
 139 -135 139 -135 160 -135 c 2,3,-1
 177 -135 l 2,4,5
 318 -135 318 -135 318 -100 c 0,6,7
 318 -84 318 -84 298.5 -75 c 128,-1,8
 279 -66 279 -66 265.5 -64.5 c 128,-1,9
 252 -63 252 -63 245 -63 c 0,10,11
 220 -58 220 -58 220 -26 c 2,12,-1
 220 13 l 2,13,14
 220 26 220 26 221 33 c 0,15,16
 224 61 224 61 259 61 c 2,17,-1
 265 61 l 2,18,19
 304 61 304 61 304 23 c 2,20,-1
 304 5 l 1,21,22
 355 -8 355 -8 378.5 -36 c 128,-1,23
 402 -64 402 -64 402 -99 c 0,24,25
 402 -136 402 -136 382 -160 c 128,-1,26
 362 -184 362 -184 324.5 -194 c 128,-1,27
 287 -204 287 -204 259 -206.5 c 128,-1,28
 231 -209 231 -209 189 -210 c 2,29,-1
 160 -210 l 2,30,31
 122 -210 122 -210 122 -175 c 0,0,1
EndSplineSet
EndChar

StartChar: onesuperior
Encoding: 185 185 123
Width: 525
GlyphClass: 2
Flags: W
LayerCount: 2
Fore
SplineSet
82 562 m 0,0,1
 82 569 82 569 83.5 574.5 c 128,-1,2
 85 580 85 580 86.5 583.5 c 128,-1,3
 88 587 88 587 92 590 c 128,-1,4
 96 593 96 593 98 594.5 c 128,-1,5
 100 596 100 596 105 597 c 128,-1,6
 110 598 110 598 111.5 598 c 128,-1,7
 113 598 113 598 118 598 c 2,8,-1
 123 599 l 1,9,10
 205 606 205 606 251 677 c 0,11,12
 267 702 267 702 287 702 c 0,13,14
 320 702 320 702 320 663 c 2,15,-1
 320 381 l 1,16,-1
 405 381 l 2,17,18
 442 381 442 381 442 342 c 0,19,20
 442 305 442 305 405 305 c 2,21,-1
 131 305 l 2,22,23
 98 305 98 305 98 343 c 128,-1,24
 98 381 98 381 136 381 c 2,25,-1
 236 381 l 1,26,-1
 236 561 l 1,27,28
 175 523 175 523 122 523 c 0,29,30
 99 523 99 523 90.5 532 c 128,-1,31
 82 541 82 541 82 562 c 0,0,1
EndSplineSet
EndChar

StartChar: ordmasculine
Encoding: 186 186 124
Width: 525
GlyphClass: 2
Flags: W
LayerCount: 2
Fore
SplineSet
27 226 m 0,0,1
 27 241 27 241 37 251 c 128,-1,2
 47 261 47 261 61 263 c 0,3,4
 69 264 69 264 84 264 c 2,5,-1
 452 264 l 2,6,7
 470 264 470 264 480.5 256 c 128,-1,8
 491 248 491 248 493.5 240.5 c 128,-1,9
 496 233 496 233 496 226 c 128,-1,10
 496 219 496 219 493.5 211.5 c 128,-1,11
 491 204 491 204 480 196 c 128,-1,12
 469 188 469 188 450 188 c 2,13,-1
 71 188 l 2,14,15
 53 188 53 188 42.5 196 c 128,-1,16
 32 204 32 204 29.5 211 c 128,-1,17
 27 218 27 218 27 226 c 0,0,1
39 521 m 0,18,19
 39 602 39 602 99.5 651 c 128,-1,20
 160 700 160 700 261 700 c 0,21,22
 375 700 375 700 429.5 646 c 128,-1,23
 484 592 484 592 484 521 c 0,24,25
 484 449 484 449 428.5 396 c 128,-1,26
 373 343 373 343 261 343 c 0,27,28
 148 343 148 343 93.5 396 c 128,-1,29
 39 449 39 449 39 521 c 0,18,19
123 526 m 0,30,31
 123 485 123 485 156.5 451.5 c 128,-1,32
 190 418 190 418 261 418 c 0,33,34
 334 418 334 418 367 451.5 c 128,-1,35
 400 485 400 485 400 526 c 0,36,37
 400 574 400 574 359 599.5 c 128,-1,38
 318 625 318 625 262 625 c 0,39,40
 202 625 202 625 162.5 598.5 c 128,-1,41
 123 572 123 572 123 526 c 0,30,31
EndSplineSet
EndChar

StartChar: guillemotright
Encoding: 187 187 125
Width: 525
GlyphClass: 2
Flags: W
LayerCount: 2
Fore
SplineSet
78 29 m 0,0,1
 78 40 78 40 91 53 c 0,2,3
 95 58 95 58 260 213 c 1,4,-1
 260 214 l 1,5,6
 219 252 219 252 163 305 c 0,7,8
 100 365 100 365 89 376.5 c 128,-1,9
 78 388 78 388 78 398 c 0,10,11
 78 427 78 427 116 427 c 0,12,13
 131 427 131 427 137 424.5 c 128,-1,14
 143 422 143 422 157 408 c 0,15,16
 332 243 332 243 340 233.5 c 128,-1,17
 348 224 348 224 348 214 c 0,18,19
 348 200 348 200 331 184 c 0,20,21
 285 140 285 140 224 82 c 0,22,23
 159 20 159 20 146 10 c 128,-1,24
 133 0 133 0 116 0 c 0,25,26
 78 0 78 0 78 29 c 0,0,1
221 29 m 0,27,28
 221 40 221 40 233 52 c 0,29,30
 241 62 241 62 402 213 c 1,31,-1
 402 214 l 1,32,33
 368 247 368 247 317 294 c 0,34,35
 245 362 245 362 233 375 c 128,-1,36
 221 388 221 388 221 398 c 0,37,38
 221 427 221 427 259 427 c 0,39,40
 274 427 274 427 279 424.5 c 128,-1,41
 284 422 284 422 299 408 c 0,42,43
 342 367 342 367 401 312 c 0,44,45
 469 249 469 249 480 237 c 128,-1,46
 491 225 491 225 491 215 c 2,47,-1
 491 214 l 2,48,49
 491 200 491 200 474 184 c 0,50,51
 428 140 428 140 367 82 c 0,52,53
 302 20 302 20 289 10 c 128,-1,54
 276 0 276 0 259 0 c 0,55,56
 221 0 221 0 221 29 c 0,27,28
EndSplineSet
Substitution2: "'locl' Localized Forms in Latin lookup 10 subtable" guillemotright.lat
AlternateSubs2: "'salt' Stylistic Alternatives in Latin lookup 7 subtable" guillemotright.lat
Substitution2: "'locl' Localized Forms in Greek lookup 2 subtable" guillemotright.gr
AlternateSubs2: "'salt' Stylistic Alternatives in Greek lookup 1 subtable" guillemotright.gr
EndChar

StartChar: onequarter
Encoding: 188 188 126
Width: 525
GlyphClass: 2
Flags: W
LayerCount: 2
Fore
SplineSet
-8 236 m 0,0,1
 -8 251 -8 251 3 264.5 c 128,-1,2
 14 278 14 278 39 278 c 2,3,-1
 486 278 l 2,4,5
 513 278 513 278 523.5 264 c 128,-1,6
 534 250 534 250 534 236 c 128,-1,7
 534 222 534 222 523.5 208.5 c 128,-1,8
 513 195 513 195 486 195 c 2,9,-1
 42 195 l 2,10,11
 22 195 22 195 9.5 204 c 128,-1,12
 -3 213 -3 213 -5.5 220.5 c 128,-1,13
 -8 228 -8 228 -8 236 c 0,0,1
34 -71 m 2,14,15
 34 -59 34 -59 47 -44.5 c 128,-1,16
 60 -30 60 -30 124 29 c 0,17,18
 166 67 166 67 193 93 c 0,19,20
 194 94 194 94 197.5 97.5 c 128,-1,21
 201 101 201 101 202.5 102 c 128,-1,22
 204 103 204 103 207.5 106 c 128,-1,23
 211 109 211 109 213 110 c 128,-1,24
 215 111 215 111 218.5 113 c 128,-1,25
 222 115 222 115 225.5 116 c 128,-1,26
 229 117 229 117 233 118 c 128,-1,27
 237 119 237 119 242 119.5 c 128,-1,28
 247 120 247 120 253 120 c 2,29,-1
 322 120 l 2,30,31
 333 120 333 120 340.5 118.5 c 128,-1,32
 348 117 348 117 355 107.5 c 128,-1,33
 362 98 362 98 362 80 c 2,34,-1
 362 -56 l 1,35,-1
 455 -56 l 2,36,37
 494 -56 494 -56 492 -93 c 0,38,39
 492 -105 492 -105 490 -112 c 128,-1,40
 488 -119 488 -119 479.5 -125 c 128,-1,41
 471 -131 471 -131 455 -131 c 2,42,-1
 362 -131 l 1,43,-1
 362 -147 l 1,44,-1
 438 -147 l 2,45,46
 477 -147 477 -147 477 -186 c 0,47,48
 477 -222 477 -222 442 -222 c 2,49,-1
 216 -222 l 2,50,51
 180 -221 180 -221 180 -184 c 128,-1,52
 180 -147 180 -147 217 -147 c 2,53,-1
 295 -147 l 1,54,-1
 295 -131 l 1,55,-1
 73 -131 l 2,56,57
 61 -131 61 -131 54 -129.5 c 128,-1,58
 47 -128 47 -128 40.5 -119 c 128,-1,59
 34 -110 34 -110 34 -93 c 2,60,-1
 34 -71 l 2,14,15
83 600 m 0,61,62
 83 635 83 635 118 636 c 0,63,64
 162 637 162 637 193.5 647.5 c 128,-1,65
 225 658 225 658 237.5 670 c 128,-1,66
 250 682 250 682 263 692 c 128,-1,67
 276 702 276 702 287 702 c 2,68,-1
 288 702 l 2,69,70
 304 702 304 702 312 693 c 128,-1,71
 320 684 320 684 320.5 678 c 128,-1,72
 321 672 321 672 321 659 c 2,73,-1
 321 437 l 1,74,-1
 406 437 l 2,75,76
 445 437 445 437 443 400 c 0,77,78
 443 361 443 361 406 361 c 2,79,-1
 132 361 l 2,80,81
 99 361 99 361 99 399 c 128,-1,82
 99 437 99 437 137 437 c 2,83,-1
 237 437 l 1,84,-1
 237 585 l 1,85,86
 182 560 182 560 124 560 c 0,87,88
 102 560 102 560 92.5 569.5 c 128,-1,89
 83 579 83 579 83 600 c 0,61,62
140 -56 m 1,90,-1
 295 -56 l 1,91,-1
 295 88 l 1,92,-1
 294 88 l 1,93,-1
 140 -56 l 1,90,-1
EndSplineSet
EndChar

StartChar: onehalf
Encoding: 189 189 127
Width: 525
GlyphClass: 2
Flags: W
LayerCount: 2
Fore
SplineSet
-8 236 m 0,0,1
 -8 251 -8 251 3 264.5 c 128,-1,2
 14 278 14 278 39 278 c 2,3,-1
 486 278 l 2,4,5
 513 278 513 278 523.5 264 c 128,-1,6
 534 250 534 250 534 236 c 128,-1,7
 534 222 534 222 523.5 208.5 c 128,-1,8
 513 195 513 195 486 195 c 2,9,-1
 42 195 l 2,10,11
 22 195 22 195 9.5 204 c 128,-1,12
 -3 213 -3 213 -5.5 220.5 c 128,-1,13
 -8 228 -8 228 -8 236 c 0,0,1
60 48 m 0,14,15
 60 73 60 73 76.5 89 c 128,-1,16
 93 105 93 105 124 111 c 128,-1,17
 155 117 155 117 177 118.5 c 128,-1,18
 199 120 199 120 234 120 c 2,19,-1
 238 120 l 2,20,21
 323 120 323 120 377 105 c 128,-1,22
 431 90 431 90 454 47 c 0,23,24
 466 25 466 25 466 -2 c 0,25,26
 466 -24 466 -24 457.5 -41.5 c 128,-1,27
 449 -59 449 -59 439 -70 c 128,-1,28
 429 -81 429 -81 406 -93 c 128,-1,29
 383 -105 383 -105 367.5 -111 c 128,-1,30
 352 -117 352 -117 319.5 -129 c 128,-1,31
 287 -141 287 -141 270 -147 c 1,32,-1
 382 -147 l 1,33,-1
 382 -138 l 2,34,35
 382 -119 382 -119 390.5 -109 c 128,-1,36
 399 -99 399 -99 425 -99 c 0,37,38
 466 -99 466 -99 466 -137 c 2,39,-1
 466 -179 l 2,40,41
 466 -188 466 -188 465.5 -193 c 128,-1,42
 465 -198 465 -198 462 -206 c 128,-1,43
 459 -214 459 -214 450.5 -218 c 128,-1,44
 442 -222 442 -222 429 -222 c 2,45,-1
 97 -222 l 2,46,47
 60 -222 60 -222 60 -184 c 0,48,49
 60 -167 60 -167 66.5 -159.5 c 128,-1,50
 73 -152 73 -152 90 -145 c 0,51,52
 140 -126 140 -126 217 -97 c 0,53,54
 329 -55 329 -55 355.5 -40.5 c 128,-1,55
 382 -26 382 -26 382 -3 c 0,56,57
 382 24 382 24 342.5 33.5 c 128,-1,58
 303 43 303 43 217 44 c 2,59,-1
 187 44 l 2,60,61
 156 44 156 44 143 41 c 1,62,63
 135 6 135 6 102 6 c 0,64,65
 84 6 84 6 72 18 c 128,-1,66
 60 30 60 30 60 48 c 0,14,15
83 600 m 0,67,68
 83 635 83 635 118 636 c 0,69,70
 162 637 162 637 193.5 647.5 c 128,-1,71
 225 658 225 658 237.5 670 c 128,-1,72
 250 682 250 682 263 692 c 128,-1,73
 276 702 276 702 287 702 c 2,74,-1
 288 702 l 2,75,76
 304 702 304 702 312 693 c 128,-1,77
 320 684 320 684 320.5 678 c 128,-1,78
 321 672 321 672 321 659 c 2,79,-1
 321 437 l 1,80,-1
 406 437 l 2,81,82
 445 437 445 437 443 400 c 0,83,84
 443 361 443 361 406 361 c 2,85,-1
 132 361 l 2,86,87
 99 361 99 361 99 399 c 128,-1,88
 99 437 99 437 137 437 c 2,89,-1
 237 437 l 1,90,-1
 237 585 l 1,91,92
 182 560 182 560 124 560 c 0,93,94
 102 560 102 560 92.5 569.5 c 128,-1,95
 83 579 83 579 83 600 c 0,67,68
EndSplineSet
EndChar

StartChar: threequarters
Encoding: 190 190 128
Width: 525
GlyphClass: 2
Flags: W
LayerCount: 2
Fore
SplineSet
-8 236 m 0,0,1
 -8 251 -8 251 3 264.5 c 128,-1,2
 14 278 14 278 39 278 c 2,3,-1
 486 278 l 2,4,5
 513 278 513 278 523.5 264 c 128,-1,6
 534 250 534 250 534 236 c 128,-1,7
 534 222 534 222 523.5 208.5 c 128,-1,8
 513 195 513 195 486 195 c 2,9,-1
 42 195 l 2,10,11
 22 195 22 195 9.5 204 c 128,-1,12
 -3 213 -3 213 -5.5 220.5 c 128,-1,13
 -8 228 -8 228 -8 236 c 0,0,1
34 -71 m 2,14,15
 34 -59 34 -59 47 -44.5 c 128,-1,16
 60 -30 60 -30 124 29 c 0,17,18
 166 67 166 67 193 93 c 0,19,20
 194 94 194 94 197.5 97.5 c 128,-1,21
 201 101 201 101 202.5 102 c 128,-1,22
 204 103 204 103 207.5 106 c 128,-1,23
 211 109 211 109 213 110 c 128,-1,24
 215 111 215 111 218.5 113 c 128,-1,25
 222 115 222 115 225.5 116 c 128,-1,26
 229 117 229 117 233 118 c 128,-1,27
 237 119 237 119 242 119.5 c 128,-1,28
 247 120 247 120 253 120 c 2,29,-1
 322 120 l 2,30,31
 333 120 333 120 340.5 118.5 c 128,-1,32
 348 117 348 117 355 107.5 c 128,-1,33
 362 98 362 98 362 80 c 2,34,-1
 362 -56 l 1,35,-1
 455 -56 l 2,36,37
 494 -56 494 -56 492 -93 c 0,38,39
 492 -105 492 -105 490 -112 c 128,-1,40
 488 -119 488 -119 479.5 -125 c 128,-1,41
 471 -131 471 -131 455 -131 c 2,42,-1
 362 -131 l 1,43,-1
 362 -147 l 1,44,-1
 438 -147 l 2,45,46
 477 -147 477 -147 477 -186 c 0,47,48
 477 -222 477 -222 442 -222 c 2,49,-1
 216 -222 l 2,50,51
 180 -221 180 -221 180 -184 c 128,-1,52
 180 -147 180 -147 217 -147 c 2,53,-1
 295 -147 l 1,54,-1
 295 -131 l 1,55,-1
 73 -131 l 2,56,57
 61 -131 61 -131 54 -129.5 c 128,-1,58
 47 -128 47 -128 40.5 -119 c 128,-1,59
 34 -110 34 -110 34 -93 c 2,60,-1
 34 -71 l 2,14,15
50 428 m 0,61,62
 50 446 50 446 62 458.5 c 128,-1,63
 74 471 74 471 92 471 c 0,64,65
 107 471 107 471 118 461 c 128,-1,66
 129 451 129 451 132 438 c 1,67,68
 162 428 162 428 262 428 c 2,69,-1
 267 428 l 2,70,71
 320 428 320 428 355 438.5 c 128,-1,72
 390 449 390 449 390 466 c 0,73,74
 390 471 390 471 381 478 c 128,-1,75
 372 485 372 485 338 492.5 c 128,-1,76
 304 500 304 500 252 500 c 2,77,-1
 235 500 l 2,78,79
 197 500 197 500 197 538 c 0,80,81
 197 548 197 548 199.5 555.5 c 128,-1,82
 202 563 202 563 205 566.5 c 128,-1,83
 208 570 208 570 214.5 572.5 c 128,-1,84
 221 575 221 575 224.5 575.5 c 128,-1,85
 228 576 228 576 237 576.5 c 128,-1,86
 246 577 246 577 248 577 c 0,87,88
 357 584 357 584 357 603 c 0,89,90
 357 627 357 627 266 627 c 2,91,-1
 264 627 l 2,92,93
 193 627 193 627 167 617 c 1,94,95
 165 600 165 600 153.5 588.5 c 128,-1,96
 142 577 142 577 125 577 c 0,97,98
 107 577 107 577 95 589.5 c 128,-1,99
 83 602 83 602 83 620 c 0,100,101
 83 653 83 653 112 676 c 0,102,103
 150 703 150 703 253 703 c 2,104,-1
 263 703 l 2,105,106
 363 703 363 703 403 673.5 c 128,-1,107
 443 644 443 644 443 606 c 0,108,109
 443 567 443 567 408 538 c 1,110,111
 476 514 476 514 476 463 c 0,112,113
 476 420 476 420 428 386.5 c 128,-1,114
 380 353 380 353 264 353 c 2,115,-1
 228 353 l 2,116,117
 50 353 50 353 50 428 c 0,61,62
140 -56 m 1,118,-1
 295 -56 l 1,119,-1
 295 88 l 1,120,-1
 294 88 l 1,121,-1
 140 -56 l 1,118,-1
EndSplineSet
EndChar

StartChar: questiondown
Encoding: 191 191 129
Width: 525
GlyphClass: 2
Flags: W
LayerCount: 2
Fore
SplineSet
61 -102 m 0,0,1
 61 -54 61 -54 94 -21 c 0,2,3
 98 -17 98 -17 126.5 4 c 128,-1,4
 155 25 155 25 173 50 c 0,5,6
 198 87 198 87 198 147 c 2,7,-1
 198 153 l 2,8,9
 198 188 198 188 231 188 c 2,10,-1
 261 188 l 2,11,12
 294 188 294 188 294 147 c 2,13,-1
 294 134 l 2,14,15
 294 18 294 18 180 -58 c 0,16,17
 179 -59 179 -59 173.5 -62.5 c 128,-1,18
 168 -66 168 -66 166.5 -67 c 128,-1,19
 165 -68 165 -68 160.5 -71.5 c 128,-1,20
 156 -75 156 -75 154 -77.5 c 128,-1,21
 152 -80 152 -80 149.5 -84 c 128,-1,22
 147 -88 147 -88 146 -92.5 c 128,-1,23
 145 -97 145 -97 145 -102 c 0,24,25
 145 -151 145 -151 244 -151 c 0,26,27
 287 -151 287 -151 315 -147 c 128,-1,28
 343 -143 343 -143 355.5 -134 c 128,-1,29
 368 -125 368 -125 373 -119.5 c 128,-1,30
 378 -114 378 -114 379.5 -102 c 128,-1,31
 381 -90 381 -90 381 -89 c 0,32,33
 390 -60 390 -60 420 -60 c 0,34,35
 438 -60 438 -60 450 -72 c 128,-1,36
 462 -84 462 -84 462 -104 c 0,37,38
 462 -125 462 -125 453.5 -144 c 128,-1,39
 445 -163 445 -163 423.5 -182.5 c 128,-1,40
 402 -202 402 -202 356.5 -214 c 128,-1,41
 311 -226 311 -226 246 -226 c 0,42,43
 190 -226 190 -226 150.5 -214 c 128,-1,44
 111 -202 111 -202 93 -182 c 128,-1,45
 75 -162 75 -162 68 -143 c 128,-1,46
 61 -124 61 -124 61 -102 c 0,0,1
186 329 m 0,47,48
 186 352 186 352 203.5 370.5 c 128,-1,49
 221 389 221 389 246 389 c 128,-1,50
 271 389 271 389 288.5 372 c 128,-1,51
 306 355 306 355 306 329 c 0,52,53
 306 306 306 306 288.5 287.5 c 128,-1,54
 271 269 271 269 246 269 c 0,55,56
 220 269 220 269 203 287 c 128,-1,57
 186 305 186 305 186 329 c 0,47,48
EndSplineSet
EndChar

StartChar: Acircumflex
Encoding: 194 194 132
Width: 525
GlyphClass: 2
Flags: W
AnchorPoint: "Anchor-5" 264 845 basechar 0
AnchorPoint: "Anchor-4" 262 0 basechar 0
LayerCount: 2
Fore
SplineSet
27 38 m 0,0,1
 26 75 26 75 65 75 c 2,2,-1
 89 75 l 1,3,-1
 98 119 l 1,4,-1
 199 576 l 2,5,6
 202 587 202 587 203.5 592 c 128,-1,7
 205 597 205 597 210 605 c 128,-1,8
 215 613 215 613 224 616 c 128,-1,9
 233 619 233 619 247 619 c 2,10,-1
 280 619 l 2,11,12
 297 619 297 619 307.5 610.5 c 128,-1,13
 318 602 318 602 320.5 595 c 128,-1,14
 323 588 323 588 325 576 c 2,15,-1
 424 125 l 2,16,17
 430 99 430 99 435 75 c 1,18,-1
 457 75 l 2,19,20
 498 75 498 75 497 38 c 0,21,22
 497 0 497 0 458 0 c 2,23,-1
 334 0 l 2,24,25
 294 0 294 0 294 35 c 0,26,27
 294 75 294 75 333 75 c 2,28,-1
 349 75 l 1,29,-1
 333 150 l 1,30,-1
 190 150 l 1,31,-1
 175 75 l 1,32,-1
 190 75 l 2,33,34
 229 75 229 75 229 38 c 0,35,36
 229 0 229 0 190 0 c 2,37,-1
 65 0 l 2,38,39
 25 0 25 0 27 38 c 0,0,1
82 711 m 0,40,41
 82 723 82 723 93 734.5 c 128,-1,42
 104 746 104 746 171 805 c 0,43,44
 203 833 203 833 223 851 c 0,45,46
 239 865 239 865 251 865 c 2,47,-1
 254 865 l 2,48,49
 261 865 261 865 275 854 c 128,-1,50
 289 843 289 843 345 793 c 0,51,52
 380 762 380 762 403 741 c 0,53,54
 420 724 420 724 420 711 c 128,-1,55
 420 698 420 698 405 681.5 c 128,-1,56
 390 665 390 665 373 665 c 0,57,58
 364 665 364 665 354 673.5 c 128,-1,59
 344 682 344 682 301 724 c 0,60,61
 271 753 271 753 251 773 c 1,62,63
 153 676 153 676 144 670 c 0,64,65
 136 665 136 665 129 665 c 0,66,67
 112 665 112 665 97 681.5 c 128,-1,68
 82 698 82 698 82 711 c 0,40,41
207 225 m 1,69,-1
 317 225 l 1,70,71
 314 242 314 242 299.5 312 c 128,-1,72
 285 382 285 382 274 444 c 128,-1,73
 263 506 263 506 262 541 c 1,74,75
 259 498 259 498 247 430.5 c 128,-1,76
 235 363 235 363 221.5 298 c 128,-1,77
 208 233 208 233 207 225 c 1,69,-1
EndSplineSet
Substitution2: "'locl' Localized Forms in Latin lookup 9 subtable" Acircumflex.vn
AlternateSubs2: "'ss01' Style Set 1 lookup 8 subtable" Acircumflex.vn
AlternateSubs2: "'salt' Stylistic Alternatives in Latin lookup 7 subtable" Acircumflex.vn
EndChar

StartChar: Atilde
Encoding: 195 195 133
Width: 525
GlyphClass: 2
Flags: W
AnchorPoint: "Anchor-5" 264 841 basechar 0
AnchorPoint: "Anchor-4" 262 0 basechar 0
LayerCount: 2
Fore
SplineSet
27 38 m 0,0,1
 26 75 26 75 65 75 c 2,2,-1
 89 75 l 1,3,-1
 98 119 l 1,4,-1
 199 576 l 2,5,6
 202 587 202 587 203.5 592 c 128,-1,7
 205 597 205 597 210 605 c 128,-1,8
 215 613 215 613 224 616 c 128,-1,9
 233 619 233 619 247 619 c 2,10,-1
 280 619 l 2,11,12
 297 619 297 619 307.5 610.5 c 128,-1,13
 318 602 318 602 320.5 595 c 128,-1,14
 323 588 323 588 325 576 c 2,15,-1
 424 125 l 2,16,17
 430 99 430 99 435 75 c 1,18,-1
 457 75 l 2,19,20
 498 75 498 75 497 38 c 0,21,22
 497 0 497 0 458 0 c 2,23,-1
 334 0 l 2,24,25
 294 0 294 0 294 35 c 0,26,27
 294 75 294 75 333 75 c 2,28,-1
 349 75 l 1,29,-1
 333 150 l 1,30,-1
 190 150 l 1,31,-1
 175 75 l 1,32,-1
 190 75 l 2,33,34
 229 75 229 75 229 38 c 0,35,36
 229 0 229 0 190 0 c 2,37,-1
 65 0 l 2,38,39
 25 0 25 0 27 38 c 0,0,1
58 747 m 0,40,41
 58 767 58 767 99.5 814 c 128,-1,42
 141 861 141 861 188 861 c 0,43,44
 224 861 224 861 271.5 826.5 c 128,-1,45
 319 792 319 792 334 792 c 0,46,47
 356 792 356 792 382 826 c 128,-1,48
 408 860 408 860 424 860 c 0,49,50
 436 860 436 860 450.5 849 c 128,-1,51
 465 838 465 838 465 822 c 0,52,53
 465 802 465 802 424.5 755 c 128,-1,54
 384 708 384 708 336 708 c 0,55,56
 301 708 301 708 253 742.5 c 128,-1,57
 205 777 205 777 190 777 c 0,58,59
 165 777 165 777 131 730 c 0,60,61
 117 709 117 709 100 709 c 0,62,63
 87 709 87 709 72.5 720 c 128,-1,64
 58 731 58 731 58 747 c 0,40,41
207 225 m 1,65,-1
 317 225 l 1,66,67
 314 242 314 242 299.5 312 c 128,-1,68
 285 382 285 382 274 444 c 128,-1,69
 263 506 263 506 262 541 c 1,70,71
 259 498 259 498 247 430.5 c 128,-1,72
 235 363 235 363 221.5 298 c 128,-1,73
 208 233 208 233 207 225 c 1,65,-1
EndSplineSet
Substitution2: "'locl' Localized Forms in Latin lookup 9 subtable" Atilde.vn
AlternateSubs2: "'ss01' Style Set 1 lookup 8 subtable" Atilde.vn
AlternateSubs2: "'salt' Stylistic Alternatives in Latin lookup 7 subtable" Atilde.vn
EndChar

StartChar: Adieresis
Encoding: 196 196 134
Width: 525
GlyphClass: 2
Flags: W
AnchorPoint: "Anchor-5" 264 774 basechar 0
AnchorPoint: "Anchor-4" 262 0 basechar 0
LayerCount: 2
Fore
SplineSet
27 38 m 0,0,1
 26 75 26 75 65 75 c 2,2,-1
 89 75 l 1,3,-1
 98 119 l 1,4,-1
 199 576 l 2,5,6
 202 587 202 587 203.5 592 c 128,-1,7
 205 597 205 597 210 605 c 128,-1,8
 215 613 215 613 224 616 c 128,-1,9
 233 619 233 619 247 619 c 2,10,-1
 280 619 l 2,11,12
 297 619 297 619 307.5 610.5 c 128,-1,13
 318 602 318 602 320.5 595 c 128,-1,14
 323 588 323 588 325 576 c 2,15,-1
 424 125 l 2,16,17
 430 99 430 99 435 75 c 1,18,-1
 457 75 l 2,19,20
 498 75 498 75 497 38 c 0,21,22
 497 0 497 0 458 0 c 2,23,-1
 334 0 l 2,24,25
 294 0 294 0 294 35 c 0,26,27
 294 75 294 75 333 75 c 2,28,-1
 349 75 l 1,29,-1
 333 150 l 1,30,-1
 190 150 l 1,31,-1
 175 75 l 1,32,-1
 190 75 l 2,33,34
 229 75 229 75 229 38 c 0,35,36
 229 0 229 0 190 0 c 2,37,-1
 65 0 l 2,38,39
 25 0 25 0 27 38 c 0,0,1
100 734 m 0,40,41
 100 757 100 757 117.5 775.5 c 128,-1,42
 135 794 135 794 160 794 c 0,43,44
 184 794 184 794 202 776.5 c 128,-1,45
 220 759 220 759 220 734 c 128,-1,46
 220 709 220 709 202.5 691.5 c 128,-1,47
 185 674 185 674 160 674 c 128,-1,48
 135 674 135 674 117.5 691 c 128,-1,49
 100 708 100 708 100 734 c 0,40,41
207 225 m 1,50,-1
 317 225 l 1,51,52
 314 242 314 242 299.5 312 c 128,-1,53
 285 382 285 382 274 444 c 128,-1,54
 263 506 263 506 262 541 c 1,55,56
 259 498 259 498 247 430.5 c 128,-1,57
 235 363 235 363 221.5 298 c 128,-1,58
 208 233 208 233 207 225 c 1,50,-1
304 734 m 0,59,60
 304 758 304 758 321.5 776 c 128,-1,61
 339 794 339 794 364 794 c 128,-1,62
 389 794 389 794 406.5 777 c 128,-1,63
 424 760 424 760 424 734 c 128,-1,64
 424 708 424 708 405.5 691 c 128,-1,65
 387 674 387 674 364 674 c 0,66,67
 340 674 340 674 322 691.5 c 128,-1,68
 304 709 304 709 304 734 c 0,59,60
EndSplineSet
EndChar

StartChar: AE
Encoding: 198 198 136
Width: 525
GlyphClass: 2
Flags: W
AnchorPoint: "Anchor-5" 297 619 basechar 0
AnchorPoint: "Anchor-4" 260 0 basechar 0
LayerCount: 2
Fore
SplineSet
22 41 m 0,0,1
 22 75 22 75 59 75 c 2,2,-1
 72 75 l 1,3,-1
 73 76 l 1,4,-1
 162 535 l 1,5,6
 127 535 127 535 127 571 c 0,7,8
 127 611 127 611 161 611 c 2,9,-1
 454 611 l 2,10,11
 491 611 491 611 491 569 c 2,12,-1
 491 486 l 2,13,14
 491 441 491 441 456 441 c 0,15,16
 424 441 424 441 423 476 c 2,17,-1
 423 535 l 1,18,-1
 331 535 l 1,19,-1
 331 354 l 1,20,-1
 436 354 l 2,21,22
 446 354 446 354 453 352.5 c 128,-1,23
 460 351 460 351 467 342 c 128,-1,24
 474 333 474 333 474 317 c 0,25,26
 474 306 474 306 472.5 299.5 c 128,-1,27
 471 293 471 293 462 286 c 128,-1,28
 453 279 453 279 436 279 c 2,29,-1
 331 279 l 1,30,-1
 331 75 l 1,31,-1
 431 75 l 1,32,-1
 431 148 l 2,33,34
 431 185 431 185 465 185 c 128,-1,35
 499 185 499 185 499 147 c 2,36,-1
 499 39 l 2,37,38
 499 0 499 0 462 0 c 2,39,-1
 261 0 l 2,40,41
 238 0 238 0 230.5 10.5 c 128,-1,42
 223 21 223 21 223 39 c 0,43,44
 222 59 222 59 233 67 c 128,-1,45
 244 75 244 75 263 75 c 1,46,-1
 263 169 l 1,47,-1
 160 169 l 1,48,-1
 159 168 l 1,49,-1
 142 75 l 1,50,-1
 147 75 l 2,51,52
 186 75 186 75 186 38 c 0,53,54
 186 0 186 0 148 0 c 2,55,-1
 60 0 l 2,56,57
 39 0 39 0 30.5 10 c 128,-1,58
 22 20 22 20 22 41 c 0,0,1
174 244 m 1,59,-1
 263 244 l 1,60,-1
 263 535 l 1,61,-1
 231 535 l 1,62,-1
 174 244 l 1,59,-1
EndSplineSet
EndChar

StartChar: Ccedilla
Encoding: 199 199 137
Width: 525
GlyphClass: 2
Flags: W
AnchorPoint: "Anchor-5" 279 619 basechar 0
LayerCount: 2
Fore
SplineSet
40 305 m 0,0,1
 40 392 40 392 63.5 456.5 c 128,-1,2
 87 521 87 521 124.5 554.5 c 128,-1,3
 162 588 162 588 201 603.5 c 128,-1,4
 240 619 240 619 280 619 c 0,5,6
 349 619 349 619 404 578 c 1,7,8
 406 581 406 581 410.5 588 c 128,-1,9
 415 595 415 595 416.5 597.5 c 128,-1,10
 418 600 418 600 422 605 c 128,-1,11
 426 610 426 610 428 611.5 c 128,-1,12
 430 613 430 613 434 615.5 c 128,-1,13
 438 618 438 618 442.5 618.5 c 128,-1,14
 447 619 447 619 452 619 c 0,15,16
 484 619 484 619 484 580 c 2,17,-1
 484 449 l 2,18,19
 484 440 484 440 484 437.5 c 128,-1,20
 484 435 484 435 482 427 c 128,-1,21
 480 419 480 419 476.5 416 c 128,-1,22
 473 413 473 413 465 410 c 128,-1,23
 457 407 457 407 445 407 c 2,24,-1
 436 407 l 2,25,26
 417 407 417 407 410 413.5 c 128,-1,27
 403 420 403 420 399 441 c 128,-1,28
 395 462 395 462 391 471 c 0,29,30
 362 543 362 543 291 543 c 0,31,32
 263 543 263 543 236 531 c 128,-1,33
 209 519 209 519 183 493.5 c 128,-1,34
 157 468 157 468 140.5 419 c 128,-1,35
 124 370 124 370 124 305 c 0,36,37
 124 239 124 239 140.5 190 c 128,-1,38
 157 141 157 141 184.5 116 c 128,-1,39
 212 91 212 91 240 79 c 128,-1,40
 268 67 268 67 296 67 c 0,41,42
 336 67 336 67 365 91.5 c 128,-1,43
 394 116 394 116 399 151 c 0,44,45
 400 155 400 155 400.5 163.5 c 128,-1,46
 401 172 401 172 402 174.5 c 128,-1,47
 403 177 403 177 405.5 182.5 c 128,-1,48
 408 188 408 188 412 190 c 128,-1,49
 416 192 416 192 423.5 193.5 c 128,-1,50
 431 195 431 195 442 195 c 0,51,52
 454 195 454 195 461.5 193.5 c 128,-1,53
 469 192 469 192 476.5 184 c 128,-1,54
 484 176 484 176 484 161 c 0,55,56
 484 114 484 114 449.5 67.5 c 128,-1,57
 415 21 415 21 337 -2 c 1,58,59
 409 -33 409 -33 409 -100 c 0,60,61
 409 -158 409 -158 358 -185 c 0,62,63
 313 -210 313 -210 196 -210 c 2,64,-1
 189 -210 l 2,65,66
 150 -210 150 -210 150 -172 c 0,67,68
 150 -135 150 -135 188 -135 c 2,69,-1
 210 -135 l 2,70,71
 325 -133 325 -133 325 -100 c 0,72,73
 325 -89 325 -89 314 -79 c 128,-1,74
 303 -69 303 -69 283 -65 c 0,75,76
 282 -65 282 -65 275 -64.5 c 128,-1,77
 268 -64 268 -64 264.5 -63 c 128,-1,78
 261 -62 261 -62 255 -59.5 c 128,-1,79
 249 -57 249 -57 246 -53.5 c 128,-1,80
 243 -50 243 -50 240.5 -42.5 c 128,-1,81
 238 -35 238 -35 238 -25 c 0,82,83
 238 -14 238 -14 241 -5 c 1,84,85
 142 15 142 15 91 99 c 128,-1,86
 40 183 40 183 40 305 c 0,0,1
EndSplineSet
EndChar

StartChar: Egrave
Encoding: 200 200 138
Width: 525
GlyphClass: 2
Flags: W
AnchorPoint: "Anchor-5" 260 789 basechar 0
AnchorPoint: "Anchor-4" 260 0 basechar 0
LayerCount: 2
Fore
SplineSet
18 41 m 0,0,1
 18 75 18 75 57 75 c 2,2,-1
 89 75 l 1,3,-1
 89 535 l 1,4,-1
 60 535 l 2,5,6
 48 535 48 535 40 536.5 c 128,-1,7
 32 538 32 538 25 547 c 128,-1,8
 18 556 18 556 18 572 c 0,9,10
 18 582 18 582 19 588.5 c 128,-1,11
 20 595 20 595 30 603 c 128,-1,12
 40 611 40 611 58 611 c 2,13,-1
 442 611 l 2,14,15
 460 611 460 611 469 603 c 128,-1,16
 478 595 478 595 479 588.5 c 128,-1,17
 480 582 480 582 480 570 c 2,18,-1
 480 477 l 2,19,20
 481 441 481 441 444 441 c 2,21,-1
 440 441 l 2,22,23
 424 441 424 441 415 444 c 128,-1,24
 406 447 406 447 402 455 c 128,-1,25
 398 463 398 463 397.5 468.5 c 128,-1,26
 397 474 397 474 397 487 c 2,27,-1
 397 535 l 1,28,-1
 173 535 l 1,29,-1
 173 354 l 1,30,-1
 290 354 l 1,31,-1
 290 372 l 2,32,33
 290 389 290 389 297 398.5 c 128,-1,34
 304 408 304 408 311 409.5 c 128,-1,35
 318 411 318 411 328 411 c 2,36,-1
 333 411 l 2,37,38
 359 411 359 411 366.5 400.5 c 128,-1,39
 374 390 374 390 374 371 c 2,40,-1
 374 260 l 2,41,42
 374 222 374 222 335 222 c 2,43,-1
 331 222 l 2,44,45
 312 222 312 222 302 230 c 128,-1,46
 292 238 292 238 291 244.5 c 128,-1,47
 290 251 290 251 290 262 c 2,48,-1
 290 279 l 1,49,-1
 173 279 l 1,50,-1
 173 75 l 1,51,-1
 419 75 l 1,52,-1
 419 149 l 2,53,54
 419 165 419 165 426.5 173.5 c 128,-1,55
 434 182 434 182 441.5 183.5 c 128,-1,56
 449 185 449 185 463 185 c 0,57,58
 503 185 503 185 503 149 c 2,59,-1
 503 43 l 2,60,61
 503 30 503 30 501.5 22 c 128,-1,62
 500 14 500 14 490.5 7 c 128,-1,63
 481 0 481 0 464 0 c 2,64,-1
 55 0 l 2,65,66
 18 0 18 0 18 41 c 0,0,1
146 760 m 0,67,68
 146 774 146 774 157.5 787.5 c 128,-1,69
 169 801 169 801 188 801 c 0,70,71
 202 801 202 801 325 777 c 0,72,73
 360 771 360 771 360 744 c 0,74,75
 360 726 360 726 352 709 c 128,-1,76
 344 692 344 692 325 692 c 2,77,-1
 324 692 l 2,78,79
 322 692 322 692 188 717 c 0,80,81
 146 725 146 725 146 760 c 0,67,68
EndSplineSet
Substitution2: "'locl' Localized Forms in Latin lookup 9 subtable" Egrave.vn
AlternateSubs2: "'ss01' Style Set 1 lookup 8 subtable" Egrave.vn
AlternateSubs2: "'salt' Stylistic Alternatives in Latin lookup 7 subtable" Egrave.vn
EndChar

StartChar: Ecircumflex
Encoding: 202 202 140
Width: 525
GlyphClass: 2
Flags: W
AnchorPoint: "Anchor-5" 260 853 basechar 0
AnchorPoint: "Anchor-4" 260 0 basechar 0
LayerCount: 2
Fore
SplineSet
18 41 m 0,0,1
 18 75 18 75 57 75 c 2,2,-1
 89 75 l 1,3,-1
 89 535 l 1,4,-1
 60 535 l 2,5,6
 48 535 48 535 40 536.5 c 128,-1,7
 32 538 32 538 25 547 c 128,-1,8
 18 556 18 556 18 572 c 0,9,10
 18 582 18 582 19 588.5 c 128,-1,11
 20 595 20 595 30 603 c 128,-1,12
 40 611 40 611 58 611 c 2,13,-1
 442 611 l 2,14,15
 460 611 460 611 469 603 c 128,-1,16
 478 595 478 595 479 588.5 c 128,-1,17
 480 582 480 582 480 570 c 2,18,-1
 480 477 l 2,19,20
 481 441 481 441 444 441 c 2,21,-1
 440 441 l 2,22,23
 424 441 424 441 415 444 c 128,-1,24
 406 447 406 447 402 455 c 128,-1,25
 398 463 398 463 397.5 468.5 c 128,-1,26
 397 474 397 474 397 487 c 2,27,-1
 397 535 l 1,28,-1
 173 535 l 1,29,-1
 173 354 l 1,30,-1
 290 354 l 1,31,-1
 290 372 l 2,32,33
 290 389 290 389 297 398.5 c 128,-1,34
 304 408 304 408 311 409.5 c 128,-1,35
 318 411 318 411 328 411 c 2,36,-1
 333 411 l 2,37,38
 359 411 359 411 366.5 400.5 c 128,-1,39
 374 390 374 390 374 371 c 2,40,-1
 374 260 l 2,41,42
 374 222 374 222 335 222 c 2,43,-1
 331 222 l 2,44,45
 312 222 312 222 302 230 c 128,-1,46
 292 238 292 238 291 244.5 c 128,-1,47
 290 251 290 251 290 262 c 2,48,-1
 290 279 l 1,49,-1
 173 279 l 1,50,-1
 173 75 l 1,51,-1
 419 75 l 1,52,-1
 419 149 l 2,53,54
 419 165 419 165 426.5 173.5 c 128,-1,55
 434 182 434 182 441.5 183.5 c 128,-1,56
 449 185 449 185 463 185 c 0,57,58
 503 185 503 185 503 149 c 2,59,-1
 503 43 l 2,60,61
 503 30 503 30 501.5 22 c 128,-1,62
 500 14 500 14 490.5 7 c 128,-1,63
 481 0 481 0 464 0 c 2,64,-1
 55 0 l 2,65,66
 18 0 18 0 18 41 c 0,0,1
93 711 m 0,67,68
 93 723 93 723 104 734.5 c 128,-1,69
 115 746 115 746 182 805 c 0,70,71
 214 833 214 833 234 851 c 0,72,73
 250 865 250 865 262 865 c 2,74,-1
 265 865 l 2,75,76
 272 865 272 865 286 854 c 128,-1,77
 300 843 300 843 356 793 c 0,78,79
 391 762 391 762 414 741 c 0,80,81
 431 724 431 724 431 711 c 128,-1,82
 431 698 431 698 416 681.5 c 128,-1,83
 401 665 401 665 384 665 c 0,84,85
 375 665 375 665 365 673.5 c 128,-1,86
 355 682 355 682 312 724 c 0,87,88
 282 753 282 753 262 773 c 1,89,90
 164 676 164 676 155 670 c 0,91,92
 147 665 147 665 140 665 c 0,93,94
 123 665 123 665 108 681.5 c 128,-1,95
 93 698 93 698 93 711 c 0,67,68
EndSplineSet
Substitution2: "'locl' Localized Forms in Latin lookup 9 subtable" Ecircumflex.vn
AlternateSubs2: "'ss01' Style Set 1 lookup 8 subtable" Ecircumflex.vn
AlternateSubs2: "'salt' Stylistic Alternatives in Latin lookup 7 subtable" Ecircumflex.vn
EndChar

StartChar: Edieresis
Encoding: 203 203 141
Width: 525
GlyphClass: 2
Flags: W
AnchorPoint: "Anchor-5" 260 782 basechar 0
AnchorPoint: "Anchor-4" 260 0 basechar 0
LayerCount: 2
Fore
SplineSet
18 41 m 0,0,1
 18 75 18 75 57 75 c 2,2,-1
 89 75 l 1,3,-1
 89 535 l 1,4,-1
 60 535 l 2,5,6
 48 535 48 535 40 536.5 c 128,-1,7
 32 538 32 538 25 547 c 128,-1,8
 18 556 18 556 18 572 c 0,9,10
 18 582 18 582 19 588.5 c 128,-1,11
 20 595 20 595 30 603 c 128,-1,12
 40 611 40 611 58 611 c 2,13,-1
 442 611 l 2,14,15
 460 611 460 611 469 603 c 128,-1,16
 478 595 478 595 479 588.5 c 128,-1,17
 480 582 480 582 480 570 c 2,18,-1
 480 477 l 2,19,20
 481 441 481 441 444 441 c 2,21,-1
 440 441 l 2,22,23
 424 441 424 441 415 444 c 128,-1,24
 406 447 406 447 402 455 c 128,-1,25
 398 463 398 463 397.5 468.5 c 128,-1,26
 397 474 397 474 397 487 c 2,27,-1
 397 535 l 1,28,-1
 173 535 l 1,29,-1
 173 354 l 1,30,-1
 290 354 l 1,31,-1
 290 372 l 2,32,33
 290 389 290 389 297 398.5 c 128,-1,34
 304 408 304 408 311 409.5 c 128,-1,35
 318 411 318 411 328 411 c 2,36,-1
 333 411 l 2,37,38
 359 411 359 411 366.5 400.5 c 128,-1,39
 374 390 374 390 374 371 c 2,40,-1
 374 260 l 2,41,42
 374 222 374 222 335 222 c 2,43,-1
 331 222 l 2,44,45
 312 222 312 222 302 230 c 128,-1,46
 292 238 292 238 291 244.5 c 128,-1,47
 290 251 290 251 290 262 c 2,48,-1
 290 279 l 1,49,-1
 173 279 l 1,50,-1
 173 75 l 1,51,-1
 419 75 l 1,52,-1
 419 149 l 2,53,54
 419 165 419 165 426.5 173.5 c 128,-1,55
 434 182 434 182 441.5 183.5 c 128,-1,56
 449 185 449 185 463 185 c 0,57,58
 503 185 503 185 503 149 c 2,59,-1
 503 43 l 2,60,61
 503 30 503 30 501.5 22 c 128,-1,62
 500 14 500 14 490.5 7 c 128,-1,63
 481 0 481 0 464 0 c 2,64,-1
 55 0 l 2,65,66
 18 0 18 0 18 41 c 0,0,1
100 734 m 0,67,68
 100 757 100 757 117.5 775.5 c 128,-1,69
 135 794 135 794 160 794 c 0,70,71
 184 794 184 794 202 777 c 128,-1,72
 220 760 220 760 220 734 c 0,73,74
 220 709 220 709 202.5 691.5 c 128,-1,75
 185 674 185 674 160 674 c 128,-1,76
 135 674 135 674 117.5 691 c 128,-1,77
 100 708 100 708 100 734 c 0,67,68
304 734 m 0,78,79
 304 758 304 758 321.5 776 c 128,-1,80
 339 794 339 794 364 794 c 0,81,82
 387 794 387 794 405.5 776.5 c 128,-1,83
 424 759 424 759 424 734 c 0,84,85
 424 711 424 711 406.5 692.5 c 128,-1,86
 389 674 389 674 364 674 c 0,87,88
 340 674 340 674 322 691.5 c 128,-1,89
 304 709 304 709 304 734 c 0,78,79
EndSplineSet
EndChar

StartChar: Igrave
Encoding: 204 204 142
Width: 525
GlyphClass: 2
Flags: W
AnchorPoint: "Anchor-5" 262 789 basechar 0
AnchorPoint: "Anchor-4" 262 0 basechar 0
LayerCount: 2
Fore
SplineSet
71 38 m 0,0,1
 71 75 71 75 110 75 c 2,2,-1
 220 75 l 1,3,-1
 220 535 l 1,4,-1
 110 535 l 2,5,6
 71 535 71 535 71 575 c 0,7,8
 72 611 72 611 109 611 c 2,9,-1
 415 611 l 2,10,11
 452 611 452 611 452 573 c 128,-1,12
 452 535 452 535 414 535 c 2,13,-1
 304 535 l 1,14,-1
 304 75 l 1,15,-1
 414 75 l 2,16,17
 436 75 436 75 444 66 c 128,-1,18
 452 57 452 57 452 37 c 0,19,20
 452 0 452 0 414 0 c 2,21,-1
 108 0 l 2,22,23
 71 0 71 0 71 38 c 0,0,1
190 760 m 0,24,25
 190 775 190 775 201 788 c 128,-1,26
 212 801 212 801 231 801 c 0,27,28
 246 801 246 801 369 777 c 0,29,30
 403 771 403 771 403 744 c 0,31,32
 403 726 403 726 395 709 c 128,-1,33
 387 692 387 692 368 692 c 2,34,-1
 367 692 l 2,35,36
 365 692 365 692 231 717 c 0,37,38
 190 724 190 724 190 760 c 0,24,25
EndSplineSet
Substitution2: "'locl' Localized Forms in Latin lookup 9 subtable" Igrave.vn
AlternateSubs2: "'ss01' Style Set 1 lookup 8 subtable" Igrave.vn
AlternateSubs2: "'salt' Stylistic Alternatives in Latin lookup 7 subtable" Igrave.vn
EndChar

StartChar: Icircumflex
Encoding: 206 206 144
Width: 525
GlyphClass: 2
Flags: W
AnchorPoint: "Anchor-5" 262 853 basechar 0
AnchorPoint: "Anchor-4" 262 0 basechar 0
LayerCount: 2
Fore
SplineSet
71 38 m 0,0,1
 71 75 71 75 110 75 c 2,2,-1
 220 75 l 1,3,-1
 220 535 l 1,4,-1
 110 535 l 2,5,6
 71 535 71 535 71 575 c 0,7,8
 72 611 72 611 109 611 c 2,9,-1
 415 611 l 2,10,11
 452 611 452 611 452 573 c 128,-1,12
 452 535 452 535 414 535 c 2,13,-1
 304 535 l 1,14,-1
 304 75 l 1,15,-1
 414 75 l 2,16,17
 436 75 436 75 444 66 c 128,-1,18
 452 57 452 57 452 37 c 0,19,20
 452 0 452 0 414 0 c 2,21,-1
 108 0 l 2,22,23
 71 0 71 0 71 38 c 0,0,1
93 711 m 128,-1,25
 93 724 93 724 107.5 738.5 c 128,-1,26
 122 753 122 753 233 851 c 0,27,28
 249 865 249 865 261 865 c 2,29,-1
 264 865 l 2,30,31
 271 865 271 865 285 854 c 128,-1,32
 299 843 299 843 355 793 c 0,33,34
 390 762 390 762 413 741 c 0,35,36
 431 723 431 723 431 711 c 0,37,38
 431 698 431 698 415.5 681.5 c 128,-1,39
 400 665 400 665 383 665 c 0,40,41
 374 665 374 665 364 673.5 c 128,-1,42
 354 682 354 682 311 724 c 0,43,44
 281 753 281 753 261 773 c 1,45,46
 163 676 163 676 156 671 c 0,47,48
 148 665 148 665 140 665 c 0,49,50
 123 665 123 665 108 681.5 c 128,-1,24
 93 698 93 698 93 711 c 128,-1,25
EndSplineSet
EndChar

StartChar: Idieresis
Encoding: 207 207 145
Width: 525
GlyphClass: 2
Flags: W
AnchorPoint: "Anchor-5" 262 782 basechar 0
AnchorPoint: "Anchor-4" 262 0 basechar 0
LayerCount: 2
Fore
SplineSet
71 38 m 0,0,1
 71 75 71 75 110 75 c 2,2,-1
 220 75 l 1,3,-1
 220 535 l 1,4,-1
 110 535 l 2,5,6
 71 535 71 535 71 575 c 0,7,8
 72 611 72 611 109 611 c 2,9,-1
 415 611 l 2,10,11
 452 611 452 611 452 573 c 128,-1,12
 452 535 452 535 414 535 c 2,13,-1
 304 535 l 1,14,-1
 304 75 l 1,15,-1
 414 75 l 2,16,17
 436 75 436 75 444 66 c 128,-1,18
 452 57 452 57 452 37 c 0,19,20
 452 0 452 0 414 0 c 2,21,-1
 108 0 l 2,22,23
 71 0 71 0 71 38 c 0,0,1
100 734 m 0,24,25
 100 757 100 757 117.5 775.5 c 128,-1,26
 135 794 135 794 160 794 c 0,27,28
 186 794 186 794 202.5 776 c 128,-1,29
 219 758 219 758 219 734 c 0,30,31
 219 709 219 709 202 691.5 c 128,-1,32
 185 674 185 674 160 674 c 128,-1,33
 135 674 135 674 117.5 691 c 128,-1,34
 100 708 100 708 100 734 c 0,24,25
304 734 m 0,35,36
 304 758 304 758 321.5 776 c 128,-1,37
 339 794 339 794 364 794 c 0,38,39
 387 794 387 794 405 776.5 c 128,-1,40
 423 759 423 759 423 734 c 0,41,42
 423 711 423 711 406 692.5 c 128,-1,43
 389 674 389 674 364 674 c 0,44,45
 340 674 340 674 322 691 c 128,-1,46
 304 708 304 708 304 734 c 0,35,36
EndSplineSet
EndChar

StartChar: Eth
Encoding: 208 208 146
Width: 525
GlyphClass: 2
Flags: W
LayerCount: 2
Fore
SplineSet
15 40 m 0,0,1
 15 76 15 76 52 76 c 0,2,3
 53 76 53 76 54 76 c 2,4,-1
 56 75 l 1,5,-1
 78 75 l 1,6,-1
 78 262 l 1,7,-1
 54 262 l 2,8,9
 32 262 32 262 23.5 271.5 c 128,-1,10
 15 281 15 281 15 302 c 0,11,12
 15 338 15 338 54 338 c 2,13,-1
 78 338 l 1,14,-1
 78 535 l 1,15,-1
 54 535 l 2,16,17
 15 535 15 535 15 571 c 0,18,19
 15 611 15 611 54 611 c 2,20,-1
 260 611 l 2,21,22
 312 611 312 611 352.5 591.5 c 128,-1,23
 393 572 393 572 417.5 541 c 128,-1,24
 442 510 442 510 458 468 c 128,-1,25
 474 426 474 426 480 385.5 c 128,-1,26
 486 345 486 345 486 302 c 0,27,28
 486 246 486 246 475.5 196.5 c 128,-1,29
 465 147 465 147 441 101 c 128,-1,30
 417 55 417 55 370.5 27.5 c 128,-1,31
 324 0 324 0 260 0 c 2,32,-1
 53 0 l 2,33,34
 15 0 15 0 15 40 c 0,0,1
162 75 m 1,35,-1
 242 75 l 2,36,37
 288 75 288 75 321 96 c 128,-1,38
 354 117 354 117 370.5 152 c 128,-1,39
 387 187 387 187 394.5 224 c 128,-1,40
 402 261 402 261 402 302 c 0,41,42
 402 344 402 344 394.5 382 c 128,-1,43
 387 420 387 420 370.5 456 c 128,-1,44
 354 492 354 492 321 513.5 c 128,-1,45
 288 535 288 535 242 535 c 2,46,-1
 162 535 l 1,47,-1
 162 338 l 1,48,-1
 263 338 l 2,49,50
 287 338 287 338 294.5 328 c 128,-1,51
 302 318 302 318 302 300 c 0,52,53
 304 262 304 262 264 262 c 2,54,-1
 162 262 l 1,55,-1
 162 75 l 1,35,-1
EndSplineSet
EndChar

StartChar: Ntilde
Encoding: 209 209 147
Width: 525
GlyphClass: 2
Flags: W
LayerCount: 2
Fore
SplineSet
21 36 m 0,0,1
 21 44 21 44 22 49 c 128,-1,2
 23 54 23 54 26 61 c 128,-1,3
 29 68 29 68 38 71.5 c 128,-1,4
 47 75 47 75 61 75 c 2,5,-1
 86 75 l 1,6,-1
 86 535 l 1,7,-1
 60 535 l 2,8,9
 21 535 21 535 21 573 c 128,-1,10
 21 611 21 611 59 611 c 2,11,-1
 150 611 l 2,12,13
 157 611 157 611 163 610 c 128,-1,14
 169 609 169 609 173.5 607 c 128,-1,15
 178 605 178 605 181.5 603 c 128,-1,16
 185 601 185 601 188 597 c 128,-1,17
 191 593 191 593 193 591 c 128,-1,18
 195 589 195 589 197 584.5 c 128,-1,19
 199 580 199 580 199.5 578.5 c 128,-1,20
 200 577 200 577 202 573 c 2,21,-1
 203 569 l 1,22,-1
 325 215 l 2,23,24
 364 97 364 97 369 70 c 1,25,-1
 369 535 l 1,26,-1
 342 535 l 2,27,28
 303 535 303 535 303 573 c 128,-1,29
 303 611 303 611 343 611 c 2,30,-1
 464 611 l 2,31,32
 502 611 502 611 502 575 c 0,33,34
 502 567 502 567 501 562 c 128,-1,35
 500 557 500 557 497 549.5 c 128,-1,36
 494 542 494 542 485 538.5 c 128,-1,37
 476 535 476 535 462 535 c 2,38,-1
 437 535 l 1,39,-1
 437 38 l 2,40,41
 437 0 437 0 398 0 c 2,42,-1
 375 0 l 2,43,44
 367 0 367 0 361 0.5 c 128,-1,45
 355 1 355 1 350 3.5 c 128,-1,46
 345 6 345 6 341.5 8 c 128,-1,47
 338 10 338 10 334 15.5 c 128,-1,48
 330 21 330 21 328 24 c 128,-1,49
 326 27 326 27 322 36.5 c 128,-1,50
 318 46 318 46 316.5 51 c 128,-1,51
 315 56 315 56 310.5 69.5 c 128,-1,52
 306 83 306 83 303 90 c 2,53,-1
 205 374 l 2,54,55
 162 504 162 504 154 541 c 1,56,-1
 154 75 l 1,57,-1
 182 75 l 2,58,59
 220 75 220 75 220 40 c 0,60,61
 220 0 220 0 180 0 c 2,62,-1
 59 0 l 2,63,64
 21 0 21 0 21 36 c 0,0,1
58 747 m 0,65,66
 58 761 58 761 87 799 c 0,67,68
 134 861 134 861 188 861 c 0,69,70
 223 861 223 861 270.5 826.5 c 128,-1,71
 318 792 318 792 334 792 c 0,72,73
 351 792 351 792 366.5 809 c 128,-1,74
 382 826 382 826 395.5 843 c 128,-1,75
 409 860 409 860 423 860 c 0,76,77
 435 860 435 860 450 849 c 128,-1,78
 465 838 465 838 465 822 c 0,79,80
 465 802 465 802 424 755 c 128,-1,81
 383 708 383 708 335 708 c 0,82,83
 300 708 300 708 252.5 742.5 c 128,-1,84
 205 777 205 777 190 777 c 0,85,86
 165 777 165 777 131 730 c 0,87,88
 117 709 117 709 100 709 c 0,89,90
 87 709 87 709 72.5 720 c 128,-1,91
 58 731 58 731 58 747 c 0,65,66
EndSplineSet
EndChar

